{"glyphs":{"0":{"ha":889,"x_min":0,"x_max":0,"o":"m 142 674 b 576 1007 179 886 336 1007 b 839 908 694 1007 782 974 b 894 646 896 842 914 754 l 836 313 b 403 -21 799 97 643 -21 b 139 79 283 -21 196 13 b 82 340 82 144 63 232 m 674 664 b 543 800 689 753 642 800 b 365 664 444 800 378 751 l 304 324 b 435 186 289 235 336 186 b 613 324 533 186 597 235 "},"1":{"ha":608,"x_min":0,"x_max":0,"o":"m 567 986 b 614 929 610 986 621 972 l 460 57 b 393 0 453 14 436 0 l 281 0 b 235 57 238 0 228 14 l 350 708 l 201 632 b 119 654 158 610 132 617 l 86 742 b 126 818 74 776 86 796 l 404 964 b 488 986 432 979 460 986 "},"2":{"ha":840,"x_min":0,"x_max":0,"o":"m 133 774 b 543 1007 222 929 358 1007 b 785 913 651 1007 732 975 b 840 676 838 850 856 771 b 725 453 825 578 786 503 b 403 292 664 401 557 349 b 332 268 390 286 349 274 b 301 254 322 264 313 260 b 263 214 278 243 264 231 l 260 204 l 682 204 b 728 147 725 204 735 188 l 713 57 b 646 0 706 14 689 0 l 44 0 b -1 57 4 0 -8 14 l 17 167 b 178 397 43 285 93 346 b 339 474 242 438 265 444 b 518 553 432 508 492 535 b 608 679 569 586 600 628 b 504 800 621 756 582 800 b 333 699 433 800 376 767 b 256 663 307 656 293 650 l 156 701 b 133 774 118 717 111 735 "},"3":{"ha":860,"x_min":0,"x_max":0,"o":"m 833 713 b 694 517 818 625 771 560 b 788 272 776 468 808 386 b 374 -21 754 85 617 -21 b 19 213 167 -21 49 57 b 68 285 13 251 25 272 l 178 322 b 242 286 218 338 235 326 b 399 183 258 214 297 183 b 556 292 490 183 543 219 b 458 400 568 364 535 400 l 349 400 b 301 456 306 400 294 413 l 315 542 b 382 599 322 585 339 599 l 464 599 b 606 700 538 599 594 633 b 501 803 617 768 581 803 b 322 703 406 803 363 775 b 244 667 300 663 282 654 l 147 704 b 125 776 110 719 104 736 b 547 1007 210 931 338 1007 b 833 713 758 1007 865 889 "},"4":{"ha":894,"x_min":0,"x_max":0,"o":"m 811 399 b 858 342 854 399 865 385 l 844 264 b 778 207 838 221 821 207 l 700 207 l 672 57 b 606 0 665 14 649 0 l 508 0 b 461 57 465 0 454 14 l 489 207 l 53 207 b 6 264 10 207 -1 221 l 18 333 b 54 407 24 372 28 383 l 589 946 b 676 986 621 978 636 986 l 779 986 b 826 929 822 986 833 972 l 733 399 m 574 692 l 282 399 l 522 399 "},"5":{"ha":839,"x_min":0,"x_max":0,"o":"m 800 986 b 846 929 843 986 853 972 l 831 838 b 764 781 824 794 807 781 l 393 781 l 353 635 l 481 635 b 729 540 596 635 678 603 b 779 304 779 478 796 399 b 646 69 763 208 718 129 b 361 -21 574 10 479 -21 b 11 208 157 -21 40 56 b 60 281 4 249 17 265 l 174 319 b 238 285 213 335 231 325 b 392 186 251 219 303 186 b 543 317 469 186 526 232 b 432 435 556 390 511 435 l 143 435 b 96 500 94 435 85 454 l 210 906 b 313 986 226 967 250 986 "},"6":{"ha":892,"x_min":0,"x_max":0,"o":"m 351 610 b 532 626 403 621 464 626 b 844 292 779 626 883 515 b 404 -21 810 85 650 -21 b 83 364 156 -21 44 129 l 135 654 b 583 1007 175 883 332 1007 b 917 785 776 1007 888 933 b 869 713 924 746 913 728 l 764 676 b 697 711 721 661 710 671 b 551 800 681 771 632 800 b 358 639 440 800 376 746 m 304 338 b 439 183 286 235 331 183 b 624 303 546 183 608 224 b 482 422 636 385 599 422 b 315 400 413 422 357 415 "},"7":{"ha":768,"x_min":0,"x_max":0,"o":"m 821 986 b 868 929 864 986 875 972 l 856 861 b 825 782 851 836 840 810 l 361 50 b 247 0 335 7 318 0 l 138 0 b 119 57 103 0 97 19 l 582 781 l 179 781 b 133 836 139 781 126 793 l 150 929 b 215 986 160 972 175 986 "},"8":{"ha":883,"x_min":0,"x_max":0,"o":"m 164 728 b 568 1007 196 910 344 1007 b 876 722 800 1007 908 900 b 729 519 863 643 814 575 b 829 269 815 471 849 388 b 388 -21 796 76 649 -21 b 47 258 119 -21 15 82 b 233 492 64 357 126 435 b 164 728 168 543 144 622 m 656 714 b 536 815 668 781 625 815 b 386 714 449 815 399 782 b 494 603 375 653 411 626 l 550 588 b 656 714 611 615 646 657 m 596 278 b 558 363 603 318 593 344 b 438 403 524 381 500 388 b 397 413 419 407 407 410 b 278 278 328 383 288 338 b 422 171 267 207 307 171 b 596 278 526 171 583 207 "},"9":{"ha":893,"x_min":0,"x_max":0,"o":"m 601 376 b 421 360 551 365 492 360 b 108 694 175 360 71 471 b 550 1007 146 901 304 1007 b 869 622 799 1007 910 857 l 819 332 b 369 -21 776 103 621 -21 b 36 201 176 -21 65 53 b 83 274 29 240 40 258 l 189 311 b 256 275 233 324 244 315 b 403 186 272 215 321 186 b 596 347 513 186 576 240 m 649 649 b 514 803 667 751 622 803 b 331 683 407 803 346 763 b 471 564 315 601 354 564 b 639 586 542 564 597 571 "}," ":{"ha":286,"x_min":0,"x_max":0,"o":""},"!":{"ha":367,"x_min":0,"x_max":0,"o":"m 358 1028 b 400 976 397 1028 407 1015 l 268 360 b 210 310 258 321 247 310 l 139 310 b 97 360 101 310 92 322 l 185 976 b 244 1028 190 1015 206 1028 m 172 222 b 260 118 251 222 272 197 l 254 93 b 132 -11 239 14 211 -11 l 103 -11 b 17 93 24 -11 4 14 l 21 118 b 144 222 33 196 65 222 "},"\"":{"ha":531,"x_min":0,"x_max":0,"o":"m 275 663 b 218 619 265 624 257 619 l 156 619 b 115 663 115 619 108 625 l 165 940 b 219 986 171 979 181 986 l 308 986 b 347 940 347 986 357 978 m 497 663 b 439 619 486 624 478 619 l 376 619 b 338 663 338 619 331 625 l 386 940 b 440 986 393 979 403 986 l 529 986 b 569 940 569 986 576 979 "},"#":{"ha":1026,"x_min":0,"x_max":0,"o":"m 1007 721 b 1036 672 1046 721 1053 710 l 994 583 b 918 536 979 551 954 536 l 826 536 l 760 396 l 854 396 b 883 346 893 396 901 383 l 840 257 b 764 210 825 225 800 210 l 671 210 l 596 51 b 522 0 578 13 560 0 l 428 0 b 400 51 389 0 382 14 l 475 210 l 335 210 l 261 51 b 186 0 243 17 218 0 l 92 0 b 64 51 53 0 46 14 l 139 210 l 46 210 b 18 260 8 210 1 225 l 60 349 b 136 396 78 386 96 396 l 226 396 l 294 536 l 200 536 b 172 586 161 536 154 549 l 214 675 b 289 721 231 710 249 721 l 382 721 l 458 883 b 533 935 476 922 494 935 l 628 935 b 654 883 665 935 672 921 l 578 721 l 718 721 l 794 883 b 869 935 813 922 831 935 l 964 935 b 990 883 1001 935 1008 921 l 914 721 m 490 536 l 424 396 l 563 396 l 631 536 "},"$":{"ha":832,"x_min":0,"x_max":0,"o":"m 596 1065 b 639 1015 635 1065 644 1053 l 628 958 b 828 775 729 940 796 879 b 782 696 839 736 828 714 l 686 657 b 615 685 646 640 628 646 b 489 765 597 739 563 765 b 335 685 389 765 344 744 b 485 603 325 633 379 614 b 665 558 556 596 603 586 b 739 507 696 544 721 528 b 781 297 775 465 797 392 b 465 32 753 143 650 65 l 454 -28 b 394 -79 447 -67 433 -79 l 289 -79 b 247 -28 251 -79 240 -67 l 257 29 b 24 232 124 50 46 118 b 75 307 17 268 35 293 l 175 340 b 247 307 219 356 236 347 b 385 222 258 250 304 222 b 560 311 490 222 549 251 b 410 396 569 367 515 385 b 229 443 339 406 290 414 b 154 497 197 458 172 476 b 111 701 115 539 94 611 b 421 958 136 844 239 931 l 431 1015 b 490 1065 438 1053 453 1065 "},"%":{"ha":1175,"x_min":0,"x_max":0,"o":"m 110 797 b 385 1008 132 929 233 1008 b 588 797 539 1008 610 929 l 569 697 b 293 490 546 568 447 490 b 92 697 142 490 69 568 m 1100 986 b 1118 932 1138 986 1144 961 l 314 50 b 265 8 294 28 278 14 b 194 0 251 3 228 0 l 113 0 b 94 57 74 0 67 25 l 900 939 b 947 979 918 960 935 974 b 1011 986 960 983 981 986 m 419 789 b 357 849 425 828 406 849 b 275 789 310 849 282 829 l 261 710 b 322 647 253 668 274 647 b 406 710 369 647 397 668 m 639 286 b 914 496 661 418 763 496 b 1117 286 1068 496 1139 418 l 1099 186 b 824 -22 1075 54 975 -22 b 621 186 669 -22 599 54 m 949 276 b 888 338 956 317 936 338 b 804 276 839 338 811 317 l 790 197 b 851 136 783 157 803 136 b 935 197 900 136 928 157 "},"&":{"ha":950,"x_min":0,"x_max":0,"o":"m 222 750 b 329 933 235 824 271 885 b 550 1007 386 982 460 1007 b 728 933 625 1007 685 982 b 775 753 771 885 788 824 b 568 508 757 649 689 567 l 554 501 l 654 369 l 746 444 b 813 444 771 468 793 468 l 875 369 b 861 310 890 350 885 331 l 761 226 l 896 50 b 863 0 919 17 908 0 l 728 0 b 658 29 696 0 674 10 l 607 97 b 308 -21 492 7 413 -21 b 94 64 214 -21 143 7 b 47 286 46 121 31 194 b 264 553 68 401 140 490 b 222 750 224 611 210 676 m 585 757 b 519 832 592 800 564 832 b 417 746 464 832 424 794 b 450 639 410 708 415 685 l 501 664 b 585 757 550 688 578 719 m 368 414 b 256 282 303 382 265 339 b 351 169 243 215 283 169 b 456 206 390 169 433 189 b 499 240 465 213 481 225 "},"'":{"ha":310,"x_min":0,"x_max":0,"o":"m 275 663 b 218 619 265 624 257 619 l 156 619 b 115 663 115 619 108 625 l 165 940 b 219 986 171 979 181 986 l 308 986 b 347 940 347 986 357 978 "},"(":{"ha":426,"x_min":0,"x_max":0,"o":"m 167 842 b 431 1196 199 1026 286 1135 b 494 1163 469 1211 485 1201 l 524 1064 b 482 994 533 1026 525 1015 b 372 839 421 965 389 922 l 247 126 b 303 -28 232 43 251 1 b 318 -97 336 -50 342 -62 l 258 -176 b 183 -210 229 -215 218 -221 b 43 146 60 -149 11 -39 "},")":{"ha":425,"x_min":0,"x_max":0,"o":"m 222 1163 b 297 1196 251 1201 263 1207 b 438 842 421 1135 471 1026 l 315 146 b 50 -210 282 -42 194 -149 b -14 -176 13 -225 -3 -215 l -40 -76 b 0 -7 -50 -42 -39 -28 b 111 149 63 25 96 65 l 236 861 b 181 1015 251 944 232 986 b 164 1085 147 1038 142 1050 "},"*":{"ha":489,"x_min":0,"x_max":0,"o":"m 378 938 b 400 904 401 938 410 926 l 364 799 l 469 849 b 507 831 496 860 503 854 l 517 779 b 485 740 518 757 508 744 l 376 725 l 438 650 b 428 604 453 635 449 619 l 378 574 b 336 585 356 560 342 564 l 306 676 l 242 585 b 194 572 228 563 213 558 l 157 604 b 161 650 139 619 140 635 l 251 725 l 149 740 b 131 781 125 744 119 757 l 157 831 b 203 849 169 853 185 858 l 289 799 l 290 904 b 324 938 289 926 300 938 "},"+":{"ha":747,"x_min":0,"x_max":0,"o":"m 679 551 b 725 494 719 551 732 538 l 711 415 b 646 358 701 372 686 358 l 464 358 l 431 176 b 364 121 424 133 407 121 l 285 121 b 239 176 244 121 232 133 l 271 358 l 90 358 b 44 415 47 358 38 375 l 58 494 b 125 551 65 538 82 551 l 306 551 l 336 732 b 403 788 343 775 363 788 l 482 788 b 528 732 525 788 535 772 l 497 551 "},",":{"ha":333,"x_min":0,"x_max":0,"o":"m 131 -121 b 63 -172 115 -160 101 -172 l 14 -172 b -21 -133 -19 -172 -25 -165 l 22 149 b 93 211 32 197 47 211 l 182 211 b 232 149 231 211 247 190 "},"-":{"ha":564,"x_min":0,"x_max":0,"o":"m 450 467 b 497 410 493 467 504 453 l 482 325 b 415 268 475 282 458 268 l 107 268 b 61 325 67 268 54 282 l 75 410 b 142 467 82 453 99 467 "},".":{"ha":346,"x_min":0,"x_max":0,"o":"m 161 225 b 249 119 240 225 261 199 l 243 93 b 119 -11 231 14 199 -11 l 96 -11 b 10 93 17 -11 -3 14 l 15 119 b 138 225 28 199 58 225 "},"/":{"ha":653,"x_min":0,"x_max":0,"o":"m 175 -36 b 100 -83 157 -74 139 -83 l -11 -83 b -37 -36 -49 -83 -54 -69 l 500 940 b 576 988 518 978 538 988 l 688 988 b 713 940 725 988 729 974 "},":":{"ha":385,"x_min":0,"x_max":0,"o":"m 258 703 b 344 599 338 703 357 678 l 340 572 b 217 467 325 493 296 467 l 193 467 b 107 572 114 467 92 493 l 111 599 b 235 703 124 678 156 703 m 183 225 b 269 119 263 225 282 201 l 264 93 b 142 -11 249 14 221 -11 l 118 -11 b 31 93 39 -11 18 14 l 36 119 b 160 225 49 199 81 225 "},";":{"ha":381,"x_min":0,"x_max":0,"o":"m 224 546 b 276 453 283 539 297 515 l 254 440 b 149 364 236 378 211 358 l 158 426 b 106 525 97 436 85 463 l 138 536 b 244 607 158 599 183 617 m 147 43 b 107 -18 147 14 133 -6 l 75 -33 b 28 -22 44 -50 39 -46 l 76 197 b 122 265 72 235 83 250 l 185 281 b 242 253 225 294 243 285 "},"<":{"ha":672,"x_min":0,"x_max":0,"o":"m 617 808 b 669 765 665 831 679 817 l 653 678 b 585 586 642 618 631 607 l 307 460 l 304 453 l 539 328 b 575 236 579 307 585 299 l 558 140 b 492 97 549 90 526 76 l 75 349 b 42 418 43 369 35 383 l 54 488 b 111 558 61 525 74 538 "},"=":{"ha":818,"x_min":0,"x_max":0,"o":"m 740 696 b 788 639 783 696 794 682 l 772 553 b 704 496 765 510 747 496 l 150 496 b 104 553 107 496 97 510 l 119 639 b 186 696 126 682 143 696 m 690 411 b 736 354 733 411 743 397 l 722 268 b 656 211 713 225 696 211 l 101 211 b 54 268 58 211 44 225 l 69 354 b 136 411 76 397 93 411 "},">":{"ha":674,"x_min":0,"x_max":0,"o":"m 139 767 b 206 810 149 818 165 832 l 622 558 b 656 489 654 538 663 524 l 643 419 b 586 349 636 382 624 369 l 79 99 b 29 140 33 76 19 90 l 46 243 b 113 335 56 300 67 313 l 392 460 l 392 468 l 158 592 b 122 683 118 613 113 618 "},"?":{"ha":806,"x_min":0,"x_max":0,"o":"m 113 803 b 510 1026 197 951 314 1026 b 760 942 619 1026 703 999 b 822 732 817 885 838 815 b 699 519 801 625 761 564 b 583 451 654 486 632 475 b 531 425 558 439 540 431 b 449 336 482 399 454 368 b 386 282 442 296 425 282 l 303 282 b 260 336 264 282 253 296 b 422 560 281 453 335 511 b 501 603 438 567 485 593 b 533 625 508 607 519 615 b 600 731 568 651 590 679 b 486 838 611 796 574 838 b 294 728 396 838 343 806 b 217 693 268 685 251 676 l 135 731 b 113 803 97 749 92 764 m 350 222 b 436 118 429 222 449 197 l 432 93 b 308 -11 419 14 388 -11 l 281 -11 b 194 93 201 -11 179 14 l 199 118 b 321 222 211 197 242 222 "},"@":{"ha":1254,"x_min":0,"x_max":0,"o":"m 107 460 b 324 860 136 628 208 761 b 772 1007 439 958 589 1007 b 1169 860 956 1007 1088 958 b 1249 460 1251 761 1278 628 l 1229 353 b 1124 135 1214 260 1178 188 b 936 54 1068 81 1006 54 b 818 104 863 58 853 68 b 568 71 744 82 661 71 b 358 310 400 71 331 150 l 393 501 b 688 740 421 661 519 740 b 944 699 792 740 876 726 b 978 632 979 683 985 671 l 911 251 b 963 199 906 217 922 199 b 1074 350 1011 199 1056 243 l 1093 463 b 747 868 1140 733 1025 868 b 263 463 479 868 307 718 l 243 350 b 588 -44 199 94 315 -44 b 896 -12 658 -44 761 -33 b 925 -33 922 -7 929 -11 l 913 -106 b 871 -150 907 -133 899 -143 b 565 -183 779 -172 678 -183 b 88 353 194 -183 28 18 m 793 578 b 683 589 765 585 729 589 b 558 497 606 589 571 563 l 526 314 b 618 224 515 249 542 224 b 740 235 672 224 714 228 l 800 567 b 793 578 801 572 800 576 "},"A":{"ha":931,"x_min":0,"x_max":0,"o":"m 888 56 b 840 0 894 18 878 0 l 743 0 b 649 51 672 0 654 11 l 629 182 l 285 182 l 218 51 b 108 0 197 11 176 0 l 6 0 b -22 56 -33 0 -43 18 l 467 939 b 543 986 485 976 503 986 l 650 986 b 713 942 690 986 706 976 m 568 581 b 565 753 561 640 561 715 l 568 779 l 557 779 b 489 582 544 714 522 647 l 378 365 l 603 365 "},"B":{"ha":908,"x_min":0,"x_max":0,"o":"m 639 986 b 888 714 821 986 917 875 b 756 518 869 619 832 567 l 754 513 b 846 264 833 475 867 386 b 472 0 814 92 668 0 l 75 0 b 28 57 32 0 21 14 l 182 929 b 249 986 192 972 206 986 m 536 597 b 653 692 603 597 642 629 b 569 786 664 754 636 786 l 382 786 l 349 597 m 614 300 b 528 401 625 368 596 401 l 315 401 l 279 200 l 492 200 b 614 300 561 200 601 233 "},"C":{"ha":889,"x_min":0,"x_max":0,"o":"m 129 647 b 600 1007 169 879 338 1007 b 935 769 793 1007 906 928 b 890 697 942 729 933 710 l 789 664 b 722 699 746 651 732 658 b 567 800 708 767 657 800 b 353 635 443 800 372 744 l 303 351 b 458 186 283 242 335 186 b 651 288 549 186 613 219 b 729 322 674 328 692 338 l 833 282 b 857 210 871 267 878 249 b 425 -21 772 56 629 -21 b 79 364 165 -21 40 129 "},"D":{"ha":935,"x_min":0,"x_max":0,"o":"m 574 986 b 857 879 703 986 797 950 b 915 596 917 808 936 714 l 874 357 b 408 0 831 125 669 0 l 75 0 b 28 57 32 0 21 14 l 182 929 b 249 986 192 972 206 986 m 693 613 b 536 781 713 725 660 781 l 381 781 l 279 207 l 435 207 b 651 374 558 207 631 263 "},"E":{"ha":811,"x_min":0,"x_max":0,"o":"m 807 986 b 854 929 850 986 861 972 l 838 836 b 771 781 831 796 814 781 l 381 781 l 350 601 l 671 601 b 717 546 711 601 724 589 l 700 453 b 633 396 693 410 676 396 l 313 396 l 279 207 l 683 207 b 729 150 726 207 736 190 l 713 57 b 647 0 706 14 690 0 l 75 0 b 28 57 32 0 21 14 l 182 929 b 249 986 192 972 206 986 "},"F":{"ha":796,"x_min":0,"x_max":0,"o":"m 807 986 b 854 929 850 986 861 972 l 838 836 b 771 781 831 796 814 781 l 381 781 l 346 582 l 667 582 b 713 525 710 582 719 568 l 697 432 b 631 376 690 392 674 376 l 310 376 l 253 57 b 188 0 246 14 231 0 l 75 0 b 28 57 32 0 21 14 l 182 929 b 249 986 192 972 206 986 "},"G":{"ha":925,"x_min":0,"x_max":0,"o":"m 875 557 b 922 500 918 557 929 543 l 886 294 b 422 -21 853 100 682 -21 b 140 86 293 -21 200 15 b 79 369 81 157 60 251 l 129 650 b 601 1007 169 883 336 1007 b 936 771 793 1007 904 928 b 893 699 946 731 936 711 l 789 665 b 722 700 746 653 732 660 b 565 800 708 767 656 800 b 353 635 442 800 371 744 l 301 351 b 457 186 282 242 333 186 b 665 307 572 186 653 236 l 674 357 l 504 357 b 457 414 461 357 450 371 l 472 500 b 539 557 479 543 496 557 "},"H":{"ha":960,"x_min":0,"x_max":0,"o":"m 922 986 b 968 929 965 986 975 972 l 814 57 b 749 0 807 14 792 0 l 636 0 b 589 57 593 0 582 14 l 649 396 l 314 396 l 254 57 b 188 0 247 14 231 0 l 75 0 b 28 57 32 0 21 14 l 182 929 b 249 986 189 972 206 986 l 361 986 b 407 929 404 986 414 972 l 350 603 l 686 603 l 743 929 b 810 986 753 972 767 986 "},"I":{"ha":399,"x_min":0,"x_max":0,"o":"m 182 931 b 247 986 192 974 207 986 l 361 986 b 407 931 404 986 414 971 l 253 56 b 188 0 246 15 231 0 l 74 0 b 28 56 33 0 21 13 "},"J":{"ha":804,"x_min":0,"x_max":0,"o":"m 774 986 b 818 931 814 986 825 971 l 710 311 b 297 -21 671 90 533 -21 b -18 204 115 -21 11 54 b 28 276 -25 244 -15 264 l 131 311 b 196 276 174 324 186 317 b 322 185 213 215 254 185 b 489 333 415 185 471 235 l 593 931 b 658 986 603 974 618 986 "},"K":{"ha":890,"x_min":0,"x_max":0,"o":"m 811 60 b 771 0 826 26 811 0 l 660 0 b 556 51 588 0 568 8 l 472 315 b 350 399 450 381 428 399 l 314 399 l 253 57 b 188 0 246 14 231 0 l 75 0 b 28 57 32 0 21 14 l 182 929 b 249 986 192 972 206 986 l 361 986 b 407 929 404 986 414 972 l 349 601 l 371 601 l 386 601 l 690 939 b 739 978 708 960 725 972 b 808 986 751 983 775 986 l 931 986 b 950 931 969 986 976 960 l 588 539 b 693 399 635 513 669 465 "},"L":{"ha":740,"x_min":0,"x_max":0,"o":"m 361 986 b 407 929 404 986 414 972 l 281 207 l 639 207 b 685 150 682 207 692 190 l 669 57 b 603 0 663 14 646 0 l 75 0 b 28 57 32 0 21 14 l 182 929 b 249 986 192 972 206 986 "},"M":{"ha":1139,"x_min":0,"x_max":0,"o":"m 1101 986 b 1149 931 1144 986 1156 971 l 994 56 b 928 0 988 15 971 0 l 824 0 b 778 56 781 0 771 15 l 833 371 b 933 683 847 456 881 560 l 922 683 b 765 425 879 593 826 507 l 638 249 b 567 208 615 219 600 208 l 510 208 b 454 249 476 208 465 217 l 385 425 b 326 683 358 492 339 578 l 315 683 b 303 369 322 561 318 457 l 247 56 b 181 0 240 15 224 0 l 75 0 b 28 56 32 0 21 13 l 182 931 b 249 986 189 971 206 986 l 336 986 b 408 944 382 986 396 978 l 581 474 l 919 943 b 1001 986 946 981 957 986 "},"N":{"ha":974,"x_min":0,"x_max":0,"o":"m 935 986 b 982 929 978 986 989 972 l 828 57 b 761 0 821 14 804 0 l 650 0 b 601 26 626 0 610 8 l 403 440 b 333 700 368 514 344 600 l 322 700 b 307 389 329 596 325 492 l 249 57 b 182 0 242 14 225 0 l 75 0 b 28 57 32 0 21 14 l 182 929 b 249 986 192 972 206 986 l 356 986 b 410 960 382 986 400 978 l 613 539 b 671 361 640 481 661 403 b 683 290 676 332 683 292 l 693 290 b 703 597 681 388 683 490 l 763 929 b 828 986 769 972 785 986 "},"O":{"ha":938,"x_min":0,"x_max":0,"o":"m 129 646 b 597 1007 169 878 336 1007 b 883 901 726 1007 822 972 b 944 618 943 831 964 736 l 894 336 b 426 -21 854 104 689 -21 b 142 85 297 -21 201 14 b 79 364 81 154 60 247 m 724 638 b 567 800 742 744 685 800 b 354 638 443 800 372 746 l 303 349 b 458 186 285 242 340 186 b 672 349 582 186 653 240 "},"P":{"ha":889,"x_min":0,"x_max":0,"o":"m 619 986 b 851 889 724 986 800 954 b 899 635 901 824 917 739 b 504 321 861 429 717 321 l 300 321 l 253 57 b 188 0 246 14 231 0 l 75 0 b 28 57 32 0 21 14 l 182 929 b 249 986 192 972 206 986 m 517 528 b 668 653 599 528 656 574 b 561 781 683 732 640 781 l 381 781 l 336 528 "},"Q":{"ha":960,"x_min":0,"x_max":0,"o":"m 129 646 b 597 1007 169 878 336 1007 b 883 901 726 1007 822 972 b 944 618 943 831 964 736 l 894 336 b 797 121 879 249 847 178 l 854 35 b 833 -46 875 3 871 -17 l 749 -104 b 671 -97 717 -131 690 -128 l 604 3 b 426 -21 556 -12 497 -21 b 142 85 297 -21 201 14 b 79 364 81 154 60 247 m 567 800 b 354 638 443 800 372 746 l 303 349 b 458 186 285 242 340 186 b 672 349 582 186 653 240 l 724 638 b 567 800 742 744 685 800 "},"R":{"ha":911,"x_min":0,"x_max":0,"o":"m 633 986 b 903 654 835 986 940 856 b 693 382 881 522 811 432 b 714 333 701 367 708 351 l 810 60 b 768 0 822 19 808 0 l 657 0 b 550 54 586 0 563 11 l 486 268 b 372 350 465 335 450 350 l 306 350 l 253 57 b 188 0 246 14 231 0 l 75 0 b 28 57 32 0 21 14 l 182 929 b 249 986 192 972 206 986 m 625 583 b 669 667 649 603 663 631 b 656 751 676 703 671 731 b 575 781 639 771 613 781 l 381 781 l 342 553 l 535 553 b 625 583 572 553 601 563 "},"S":{"ha":881,"x_min":0,"x_max":0,"o":"m 108 721 b 547 1007 142 904 292 1007 b 878 794 738 1007 833 929 b 838 725 889 757 881 742 l 731 682 b 664 710 692 665 679 672 b 517 801 643 771 594 801 b 335 706 406 801 344 769 b 385 631 329 671 344 646 b 526 603 425 615 460 610 b 828 269 686 583 871 511 b 375 -21 793 76 642 -21 b 13 204 163 -21 42 54 b 61 276 6 243 18 261 l 169 313 b 236 279 210 328 225 319 b 399 183 254 215 308 183 b 601 293 521 183 589 219 b 432 393 613 356 550 381 b 236 443 356 403 303 411 b 156 500 201 458 175 478 b 108 721 115 544 92 622 "},"T":{"ha":807,"x_min":0,"x_max":0,"o":"m 839 986 b 885 929 882 986 892 972 l 869 836 b 803 781 860 796 843 781 l 585 781 l 457 57 b 390 0 450 14 433 0 l 278 0 b 232 57 238 0 225 14 l 360 781 l 142 781 b 96 836 99 781 89 796 l 111 929 b 178 986 118 972 135 986 "},"U":{"ha":960,"x_min":0,"x_max":0,"o":"m 321 342 b 469 185 303 242 354 185 b 672 342 588 185 654 238 l 776 929 b 843 986 786 972 800 986 l 956 986 b 1001 929 999 986 1008 972 l 894 326 b 438 -21 856 100 699 -21 b 157 88 308 -21 215 15 b 99 368 97 158 78 253 l 199 929 b 265 986 206 972 222 986 l 378 986 b 424 929 421 986 431 972 "},"V":{"ha":910,"x_min":0,"x_max":0,"o":"m 971 986 b 997 931 1008 986 1018 968 l 525 47 b 447 0 504 10 486 0 l 335 0 b 274 44 294 0 279 10 l 111 931 b 158 986 104 968 121 986 l 263 986 b 351 935 328 986 346 975 l 422 417 b 429 275 428 372 431 308 l 429 250 l 439 250 b 503 415 457 310 478 364 l 758 935 b 864 986 779 975 797 986 "},"W":{"ha":1271,"x_min":0,"x_max":0,"o":"m 1311 986 b 1339 931 1351 986 1356 969 l 971 47 b 893 0 954 8 933 0 l 772 0 b 713 44 732 0 714 10 l 678 493 b 690 683 676 564 681 626 l 678 683 b 621 493 667 624 647 560 l 428 47 b 350 0 411 8 393 0 l 236 0 b 175 44 196 0 176 10 l 114 931 b 161 986 110 971 121 986 l 289 986 b 356 936 338 986 354 976 l 364 508 b 358 393 365 482 363 444 b 347 294 354 342 350 310 l 357 294 b 383 396 361 315 369 349 b 422 508 397 443 410 481 l 608 936 b 692 986 625 975 647 986 l 793 986 b 860 936 839 986 858 975 l 892 508 b 893 392 894 478 894 439 b 883 294 890 344 888 313 l 893 294 b 954 508 908 365 929 436 l 1108 936 b 1192 986 1124 976 1142 986 "},"X":{"ha":903,"x_min":0,"x_max":0,"o":"m 947 986 b 965 932 985 986 992 960 l 608 504 l 824 57 b 786 0 842 28 825 0 l 657 0 b 556 50 586 0 574 4 l 435 325 l 229 50 b 183 8 211 28 196 14 b 111 0 169 3 146 0 l -21 0 b -39 57 -60 0 -65 25 l 332 503 l 129 932 b 165 986 113 960 126 986 l 289 986 b 393 939 356 986 369 979 l 503 682 l 701 939 b 747 979 719 960 735 974 b 813 986 760 983 781 986 "},"Y":{"ha":910,"x_min":0,"x_max":0,"o":"m 975 986 b 994 929 1015 986 1021 961 l 572 383 l 514 57 b 447 0 507 14 490 0 l 335 0 b 289 57 292 0 282 14 l 346 386 l 115 929 b 154 986 100 961 114 986 l 279 986 b 381 936 350 986 364 982 l 499 613 l 733 936 b 778 979 749 960 764 974 b 851 986 792 983 817 986 "},"Z":{"ha":832,"x_min":0,"x_max":0,"o":"m 831 986 b 878 929 874 986 885 972 l 863 849 b 835 792 858 826 850 807 l 297 207 l 700 207 b 747 150 743 207 757 193 l 731 57 b 664 0 724 14 707 0 l 32 0 b -15 57 -11 0 -22 14 l 0 138 b 28 194 4 158 13 176 l 565 781 l 176 781 b 131 836 133 781 124 796 l 146 929 b 213 986 156 972 169 986 "},"[":{"ha":453,"x_min":0,"x_max":0,"o":"m 517 1189 b 558 1139 560 1189 565 1182 l 544 1061 b 486 1011 538 1018 529 1011 l 392 1011 l 208 -25 l 303 -25 b 344 -74 346 -25 351 -31 l 331 -154 b 271 -203 321 -197 314 -203 l 28 -203 b -14 -153 -15 -203 -24 -193 l 214 1138 b 274 1189 221 1181 231 1189 "},"\\":{"ha":639,"x_min":0,"x_max":0,"o":"m 133 939 b 174 986 126 972 136 986 l 276 986 b 338 939 315 986 331 976 l 529 -36 b 488 -83 535 -71 525 -83 l 385 -83 b 325 -36 347 -83 332 -74 "},"]":{"ha":454,"x_min":0,"x_max":0,"o":"m 465 1189 b 508 1138 508 1189 515 1181 l 281 -153 b 219 -203 271 -196 263 -203 l -24 -203 b -64 -154 -67 -203 -74 -197 l -50 -74 b 8 -25 -43 -33 -35 -25 l 103 -25 l 286 1011 l 190 1011 b 150 1061 150 1011 143 1018 l 164 1139 b 222 1189 171 1182 179 1189 "},"^":{"ha":832,"x_min":0,"x_max":0,"o":"m 581 1125 b 646 1079 624 1119 624 1117 l 843 782 b 804 722 867 742 854 722 l 703 722 b 608 768 643 722 635 728 l 514 926 l 507 926 l 354 768 b 307 731 335 747 319 735 b 243 722 294 725 274 722 l 150 722 b 132 782 101 722 93 744 l 432 1079 b 517 1125 467 1114 483 1125 "},"_":{"ha":689,"x_min":0,"x_max":0,"o":"m 539 0 b 586 -57 582 0 593 -14 l 571 -142 b 504 -199 564 -185 547 -199 l -21 -199 b -68 -142 -64 -199 -75 -185 l -53 -57 b 14 0 -46 -14 -29 0 "},"`":{"ha":357,"x_min":0,"x_max":0,"o":"m 188 1015 b 279 1018 214 1040 244 1042 l 454 901 b 447 849 476 886 474 876 l 414 815 b 350 811 401 801 379 800 l 122 900 b 125 956 94 913 96 926 "},"a":{"ha":753,"x_min":0,"x_max":0,"o":"m 81 463 b 454 743 115 657 233 743 b 711 697 567 743 651 728 b 747 619 751 676 757 665 l 651 72 b 590 11 644 33 631 21 b 306 -21 504 -10 410 -21 b 50 288 106 -21 15 100 m 517 546 b 435 556 492 553 464 556 b 286 442 346 556 301 524 l 256 268 b 356 167 244 200 278 167 b 460 176 393 167 428 169 l 524 535 b 517 546 525 540 524 544 "},"b":{"ha":756,"x_min":0,"x_max":0,"o":"m 342 1028 b 382 976 379 1028 389 1015 l 339 729 b 471 743 383 739 428 743 b 718 442 669 743 751 629 l 686 267 b 313 -21 654 75 529 -21 b 56 25 206 -21 121 -6 b 19 103 15 47 10 58 l 172 976 b 233 1028 179 1015 194 1028 m 510 457 b 411 558 522 529 489 558 b 307 544 379 558 344 554 l 243 185 b 246 178 243 181 244 179 b 332 167 268 171 297 167 b 481 282 417 167 467 206 "},"c":{"ha":713,"x_min":0,"x_max":0,"o":"m 79 461 b 451 743 113 649 236 743 b 721 558 611 743 700 669 b 676 486 726 518 715 499 l 593 458 b 526 493 550 443 536 453 b 419 563 514 539 479 563 b 289 457 344 563 301 528 l 254 264 b 347 160 242 194 272 160 b 475 231 403 160 446 183 b 553 264 497 269 515 276 l 640 236 b 661 163 676 222 683 197 b 317 -21 590 40 475 -21 b 49 285 104 -21 15 96 "},"d":{"ha":754,"x_min":0,"x_max":0,"o":"m 82 463 b 432 743 117 656 231 743 b 558 735 472 743 514 740 l 601 976 b 663 1028 608 1015 624 1028 l 771 1028 b 811 976 808 1028 818 1015 l 657 103 b 589 26 647 57 638 44 b 307 -21 507 -6 414 -21 b 51 286 101 -21 17 99 m 525 547 b 435 556 492 553 461 556 b 288 442 347 556 303 524 l 257 268 b 356 167 246 203 282 167 b 457 176 396 167 431 169 b 463 183 458 178 461 179 "},"e":{"ha":744,"x_min":0,"x_max":0,"o":"m 81 458 b 465 743 114 642 250 743 b 690 672 563 743 638 719 b 749 482 742 624 761 561 b 413 285 725 350 614 285 b 260 297 374 285 322 289 l 254 261 b 358 151 240 188 275 151 b 506 207 422 151 471 169 b 589 225 538 240 551 246 l 651 188 b 658 106 683 168 685 140 b 328 -21 593 21 482 -21 b 92 71 215 -21 136 10 b 51 304 47 132 33 210 m 544 501 b 438 576 551 550 515 576 b 290 465 360 576 306 533 l 286 447 b 421 436 346 440 390 436 b 544 501 494 436 536 458 "},"f":{"ha":525,"x_min":0,"x_max":0,"o":"m 578 1028 b 621 975 618 1028 628 1015 l 607 900 b 544 847 600 861 583 847 b 397 726 450 847 413 810 l 397 722 l 525 722 b 567 671 564 722 574 710 l 553 588 b 493 536 546 549 531 536 l 365 536 l 279 51 b 217 0 272 13 257 0 l 113 0 b 69 51 72 0 63 13 l 156 536 l 94 536 b 53 588 57 536 46 549 l 67 671 b 128 722 74 710 89 722 l 188 722 l 188 726 b 550 1028 224 925 344 1025 "},"g":{"ha":756,"x_min":0,"x_max":0,"o":"m 81 465 b 454 743 115 660 232 743 b 710 697 567 743 653 728 b 747 619 750 676 757 665 l 635 -21 b 271 -321 600 -221 478 -321 b -4 -186 129 -321 38 -276 b 32 -106 -21 -151 -8 -125 l 111 -68 b 188 -86 154 -47 169 -53 b 293 -139 207 -121 242 -139 b 424 -26 367 -139 410 -101 l 435 33 b 310 19 390 24 349 19 b 56 329 110 19 22 142 m 518 546 b 433 556 492 553 464 556 b 286 442 350 556 301 518 l 263 308 b 361 207 251 240 285 207 b 467 217 397 207 432 210 l 522 538 b 518 546 524 542 522 544 "},"h":{"ha":774,"x_min":0,"x_max":0,"o":"m 343 1028 b 383 976 381 1028 390 1015 l 342 733 l 350 733 b 472 743 368 738 419 743 b 719 446 671 743 753 631 l 651 51 b 590 0 644 13 629 0 l 482 0 b 440 51 444 0 433 13 l 510 449 b 411 553 524 518 490 553 b 314 543 372 553 328 547 l 307 542 l 221 51 b 161 0 214 13 199 0 l 53 0 b 11 51 14 0 4 13 l 174 976 b 235 1028 181 1015 196 1028 "},"i":{"ha":350,"x_min":0,"x_max":0,"o":"m 297 999 b 378 900 374 999 393 974 l 376 886 b 260 788 361 810 333 788 l 231 788 b 150 886 154 788 138 813 l 151 900 b 269 999 164 974 193 999 m 289 722 b 329 671 326 722 336 710 l 221 51 b 161 0 214 13 199 0 l 53 0 b 11 51 14 0 4 13 l 119 671 b 181 722 126 710 142 722 "},"j":{"ha":351,"x_min":0,"x_max":0,"o":"m 297 999 b 378 900 374 999 390 974 l 376 886 b 260 788 361 810 333 788 l 231 788 b 150 886 154 788 138 813 l 151 900 b 268 999 167 976 194 999 m 286 722 b 329 671 326 722 336 710 l 210 -11 b -181 -319 172 -217 43 -319 b -225 -267 -221 -319 -232 -307 l -210 -181 b -147 -129 -203 -142 -187 -129 b 1 -1 -62 -129 -14 -86 l 119 671 b 182 722 126 710 142 722 "},"k":{"ha":743,"x_min":0,"x_max":0,"o":"m 657 63 b 610 0 672 18 660 0 l 517 0 b 433 47 457 0 444 7 l 389 225 b 310 281 379 263 353 281 l 261 281 l 221 53 b 158 0 214 13 199 0 l 54 0 b 11 53 14 0 4 13 l 174 975 b 236 1028 181 1015 196 1028 l 340 1028 b 383 975 381 1028 390 1015 l 293 460 l 322 460 l 331 460 l 526 681 b 632 722 558 718 572 722 l 725 722 b 749 661 776 722 785 701 l 518 406 b 578 307 542 388 563 354 "},"l":{"ha":356,"x_min":0,"x_max":0,"o":"m 224 51 b 163 0 217 13 201 0 l 56 0 b 14 51 17 0 7 13 l 176 976 b 238 1028 183 1015 199 1028 l 344 1028 b 386 976 383 1028 393 1015 "},"m":{"ha":1146,"x_min":0,"x_max":0,"o":"m 618 701 b 858 743 697 729 778 743 b 1093 444 1051 743 1125 632 l 1024 51 b 963 0 1017 13 1001 0 l 856 0 b 814 51 817 0 807 13 l 883 450 b 797 553 896 518 868 553 b 699 539 765 553 733 549 b 692 454 700 515 697 486 l 621 51 b 561 0 614 13 599 0 l 453 0 b 411 51 414 0 404 13 l 481 450 b 394 553 493 524 467 553 b 310 542 369 553 342 549 b 303 533 307 542 304 539 l 218 51 b 158 0 211 13 196 0 l 50 0 b 8 51 11 0 1 13 l 107 613 b 176 693 117 658 128 675 b 456 743 264 726 357 743 b 618 701 526 743 581 729 "},"n":{"ha":771,"x_min":0,"x_max":0,"o":"m 176 693 b 469 743 264 726 363 743 b 717 443 668 743 750 631 l 649 51 b 588 0 642 13 626 0 l 479 0 b 438 51 442 0 431 13 l 507 449 b 408 553 519 518 488 553 b 308 540 372 553 339 549 b 303 535 307 540 304 539 l 218 51 b 158 0 211 13 196 0 l 50 0 b 8 51 11 0 1 13 l 107 613 b 176 693 117 658 128 675 "},"o":{"ha":760,"x_min":0,"x_max":0,"o":"m 79 457 b 460 743 113 640 244 743 b 740 440 675 743 774 628 l 710 261 b 329 -21 676 78 547 -21 b 49 278 117 -21 15 93 m 533 453 b 429 557 544 522 510 557 b 289 453 349 557 301 522 l 257 269 b 360 165 244 200 278 165 b 500 269 440 165 488 200 "},"p":{"ha":756,"x_min":0,"x_max":0,"o":"m 178 700 b 468 743 258 729 356 743 b 717 443 669 743 751 631 l 686 267 b 315 -21 651 75 528 -21 b 210 -8 283 -21 247 -17 l 165 -254 b 104 -306 158 -293 143 -306 l -3 -306 b -44 -254 -42 -306 -51 -293 l 110 619 b 178 700 119 665 132 682 m 510 454 b 411 556 522 519 485 556 b 313 546 379 556 347 553 b 304 536 308 544 306 542 l 242 175 b 332 167 275 169 306 167 b 479 281 415 167 464 204 "},"q":{"ha":757,"x_min":0,"x_max":0,"o":"m 456 743 b 713 697 568 743 653 728 b 749 619 753 676 758 665 l 596 -254 b 535 -306 589 -293 572 -306 l 426 -306 b 385 -254 389 -306 378 -293 l 429 -7 b 297 -21 385 -17 340 -21 b 50 279 97 -21 15 92 l 81 456 b 456 743 115 647 240 743 m 257 268 b 357 167 246 203 281 167 b 461 176 392 167 426 169 l 524 535 b 518 546 525 542 524 544 b 436 556 493 553 465 556 b 288 442 351 556 303 518 "},"r":{"ha":499,"x_min":0,"x_max":0,"o":"m 453 743 l 499 743 b 540 692 538 743 547 731 l 526 606 b 467 556 519 568 504 556 l 415 556 b 314 546 378 556 343 553 b 306 536 310 544 307 542 l 219 51 b 160 0 213 13 197 0 l 51 0 b 10 51 13 0 3 13 l 110 619 b 179 700 119 665 131 682 b 453 743 246 725 338 739 "},"s":{"ha":706,"x_min":0,"x_max":0,"o":"m 71 524 b 407 743 97 664 211 743 b 685 594 556 743 647 693 b 647 521 697 557 688 538 l 565 489 b 499 511 522 474 517 478 b 383 561 479 544 440 561 b 271 511 315 561 278 544 b 394 449 264 471 294 458 b 646 208 583 428 674 364 b 294 -21 619 64 494 -21 b 3 144 125 -21 28 35 b 49 214 -4 179 11 201 l 138 242 b 201 213 178 253 186 247 b 318 160 217 178 256 160 b 449 217 397 160 440 179 b 313 283 456 261 425 272 b 128 343 235 290 178 308 b 71 524 78 378 56 440 "},"t":{"ha":553,"x_min":0,"x_max":0,"o":"m 383 889 b 425 838 421 889 432 876 l 406 722 l 533 722 b 574 671 571 722 581 710 l 560 588 b 500 536 553 549 539 536 l 372 536 l 331 303 b 435 174 314 197 339 174 b 478 121 474 174 485 161 l 463 33 b 401 -19 456 -6 440 -18 b 154 44 281 -24 197 -1 b 119 294 110 90 99 174 l 163 536 l 88 536 b 46 588 50 536 39 549 l 60 671 b 121 722 67 710 82 722 l 196 722 l 215 838 b 275 889 222 876 238 889 "},"u":{"ha":771,"x_min":0,"x_max":0,"o":"m 731 722 b 772 671 769 722 779 710 l 674 110 b 604 29 664 64 653 47 b 313 -21 518 -4 421 -21 b 65 281 113 -21 32 93 l 133 671 b 194 722 140 710 156 722 l 301 722 b 343 671 340 722 350 710 l 274 274 b 374 169 261 201 292 169 b 465 179 406 169 436 172 b 479 194 474 182 478 188 l 563 671 b 624 722 569 710 585 722 "},"v":{"ha":732,"x_min":0,"x_max":0,"o":"m 733 722 b 764 663 783 722 790 708 l 415 46 b 339 0 394 11 378 0 l 256 0 b 193 46 217 0 200 11 l 65 663 b 119 722 58 708 69 722 l 200 722 b 279 671 260 722 275 711 l 328 400 b 333 261 335 357 335 294 l 332 236 l 342 236 b 404 400 358 296 379 351 l 544 669 b 642 722 567 714 582 722 "},"w":{"ha":1036,"x_min":0,"x_max":0,"o":"m 1026 722 b 1058 663 1075 722 1081 708 l 783 46 b 706 0 771 15 744 0 l 618 0 b 556 46 581 0 560 15 l 532 322 b 533 464 528 376 532 429 l 536 489 l 529 489 b 474 322 514 429 494 374 l 351 46 b 274 0 338 15 311 0 l 199 0 b 136 46 158 0 138 11 l 72 663 b 125 722 65 708 76 722 l 204 722 b 285 671 267 722 285 714 l 293 432 b 283 274 294 393 289 318 l 281 240 l 289 240 b 349 432 308 321 328 385 l 456 669 b 550 722 476 714 489 722 l 600 722 b 675 671 661 722 671 714 l 700 432 b 697 272 704 376 701 317 l 693 240 l 701 240 b 754 432 715 311 733 375 l 846 669 b 946 722 864 714 883 722 "},"x":{"ha":731,"x_min":0,"x_max":0,"o":"m 714 722 b 739 661 764 722 772 701 l 492 372 l 646 61 b 597 0 668 21 654 0 l 511 0 b 426 44 454 0 444 4 l 344 226 l 204 44 b 103 0 175 6 158 0 l -1 0 b -28 61 -62 0 -67 21 l 233 369 l 86 661 b 136 722 68 701 85 722 l 219 722 b 306 678 276 722 289 715 l 381 518 l 508 678 b 606 722 540 717 551 722 "},"y":{"ha":774,"x_min":0,"x_max":0,"o":"m 732 722 b 772 671 769 722 779 710 l 653 -14 b 282 -319 617 -218 493 -319 b 14 -186 143 -319 54 -275 b 49 -106 -4 -151 8 -125 l 128 -68 b 206 -86 172 -47 188 -53 b 310 -139 225 -121 260 -139 b 440 -26 383 -139 426 -101 l 450 31 b 319 21 415 24 371 21 b 74 325 119 21 40 136 l 133 671 b 194 722 140 710 156 722 l 301 722 b 343 671 340 722 350 710 l 281 315 b 382 211 268 246 303 211 b 483 221 414 211 447 214 l 563 671 b 624 722 569 710 585 722 "},"z":{"ha":668,"x_min":0,"x_max":0,"o":"m 543 186 b 585 135 582 186 592 172 l 571 51 b 510 0 564 13 549 0 l 21 0 b -19 51 -17 0 -26 13 l -7 133 b 21 185 -3 154 7 171 l 378 536 l 122 536 b 82 588 85 536 75 550 l 96 671 b 156 722 103 710 118 722 l 631 722 b 672 671 669 722 679 710 l 658 589 b 628 533 656 571 646 551 l 267 186 "},"{":{"ha":524,"x_min":0,"x_max":0,"o":"m 589 1189 b 632 1138 628 1189 639 1176 l 617 1053 b 556 1003 610 1015 594 1003 l 489 1003 b 456 974 471 1003 460 993 l 401 669 b 268 489 388 590 343 529 b 338 307 332 460 356 400 l 285 11 b 310 -18 283 -6 293 -18 l 376 -18 b 419 -68 415 -18 425 -31 l 404 -153 b 343 -204 397 -192 382 -204 l 254 -204 b 82 -14 103 -204 58 -149 l 133 272 b 69 383 146 346 124 383 l 61 383 b 28 435 32 383 21 400 l 46 542 b 96 593 53 576 69 593 l 106 593 b 208 704 161 593 196 631 l 261 997 b 497 1189 285 1132 351 1189 "},"|":{"ha":361,"x_min":0,"x_max":0,"o":"m 371 1189 b 414 1138 410 1189 421 1176 l 186 -153 b 125 -204 179 -192 164 -204 l 26 -204 b -15 -153 -12 -204 -22 -192 l 213 1138 b 272 1189 219 1176 233 1189 "},"}":{"ha":522,"x_min":0,"x_max":0,"o":"m 313 1189 b 481 997 461 1189 504 1132 l 429 704 b 493 593 417 631 438 593 l 503 593 b 535 542 529 593 540 576 l 515 435 b 465 383 510 400 493 383 l 457 383 b 353 272 401 383 367 346 l 303 -14 b 64 -204 279 -149 215 -204 l -26 -204 b -67 -153 -64 -204 -74 -192 l -51 -68 b 7 -18 -46 -31 -31 -18 l 75 -18 b 108 11 90 -18 107 -4 l 160 307 b 294 489 178 400 222 461 b 225 669 235 531 211 590 l 279 974 b 254 1003 281 989 269 1003 l 186 1003 b 146 1053 149 1003 139 1015 l 161 1138 b 219 1189 168 1176 182 1189 "},"~":{"ha":774,"x_min":0,"x_max":0,"o":"m 133 500 b 321 568 190 546 253 568 b 442 546 361 568 401 561 b 533 522 482 531 513 522 b 613 550 561 522 588 532 b 686 547 650 576 663 575 l 739 488 b 724 408 763 461 757 435 b 535 340 664 363 601 340 b 415 364 496 340 456 349 b 324 386 375 379 344 386 b 244 360 297 386 271 378 b 172 363 206 332 194 335 l 119 421 b 133 500 96 449 100 475 "},"¡":{"ha":356,"x_min":0,"x_max":0,"o":"m 183 500 b 97 604 104 500 85 525 l 101 629 b 225 733 114 708 146 733 l 253 733 b 340 629 332 733 356 708 l 335 604 b 213 500 322 525 292 500 m -3 -306 b -43 -254 -40 -306 -50 -293 l 88 363 b 147 413 97 401 108 413 l 217 413 b 258 363 256 413 264 401 l 172 -254 b 111 -306 167 -293 150 -306 "},"¢":{"ha":744,"x_min":0,"x_max":0,"o":"m 653 236 b 674 163 688 224 694 199 b 436 -10 621 72 542 14 l 426 -65 b 365 -117 419 -104 404 -117 l 265 -117 b 224 -65 226 -117 217 -104 l 232 -12 b 60 286 86 14 31 125 l 90 461 b 364 733 119 618 204 701 l 375 796 b 436 847 382 835 397 847 l 536 847 b 578 796 575 847 585 835 l 567 733 b 732 554 660 711 715 651 b 688 483 738 514 728 499 l 600 457 b 533 492 557 442 543 451 b 432 563 521 539 488 563 b 300 458 356 563 311 528 l 265 264 b 360 160 254 194 286 160 b 486 231 417 160 458 183 b 565 264 508 269 528 276 "},"£":{"ha":907,"x_min":0,"x_max":0,"o":"m 218 718 b 344 926 233 803 275 872 b 606 1007 413 981 500 1007 b 921 788 782 1007 888 933 b 876 715 928 747 919 728 l 774 679 b 708 715 731 667 724 672 b 581 800 686 775 651 800 b 447 690 513 800 458 753 l 424 556 l 690 556 b 736 500 733 556 743 540 l 725 428 b 657 372 715 385 700 372 l 389 372 l 381 324 b 290 189 371 267 340 221 l 290 181 b 518 204 363 196 439 204 l 764 204 b 811 147 807 204 821 190 l 794 57 b 729 0 788 14 772 0 l 42 0 b -3 57 1 0 -10 14 l 15 149 b 53 196 19 179 32 194 l 57 196 b 147 319 108 213 132 251 l 156 372 l 111 372 b 65 428 68 372 56 385 l 78 500 b 144 556 85 543 101 556 l 190 556 "},"¤":{"ha":869,"x_min":0,"x_max":0,"o":"m 353 756 b 501 789 399 778 449 789 b 636 756 550 789 596 778 l 714 824 b 786 824 746 850 764 850 l 849 750 b 836 678 869 726 865 701 l 758 611 b 769 468 774 567 778 519 b 713 325 761 419 742 371 l 768 258 b 757 186 789 235 785 210 l 671 113 b 599 113 639 86 621 86 l 542 181 b 397 147 496 158 447 147 b 260 181 344 147 299 158 l 179 113 b 107 113 147 86 129 86 l 46 186 b 57 258 22 213 25 232 l 138 328 b 128 468 122 371 119 418 b 183 608 136 521 154 568 l 125 678 b 138 750 104 701 108 726 l 222 824 b 294 824 254 850 272 850 m 528 372 b 472 604 629 449 590 613 b 311 468 396 604 326 544 b 528 372 283 350 433 285 "},"¥":{"ha":946,"x_min":0,"x_max":0,"o":"m 975 986 b 994 929 1015 986 1021 961 l 681 533 l 760 533 b 800 483 797 533 807 521 l 792 429 b 733 381 785 394 771 381 l 579 381 l 569 321 l 722 321 b 764 272 760 321 769 310 l 753 218 b 694 168 747 181 732 168 l 544 168 l 525 57 b 458 0 518 14 501 0 l 346 0 b 300 57 303 0 293 14 l 319 168 l 168 168 b 128 218 131 168 121 181 l 138 272 b 196 321 142 304 161 321 l 349 321 l 358 381 l 207 381 b 165 429 169 381 158 394 l 175 483 b 233 533 182 521 196 533 l 313 533 l 139 929 b 176 986 124 961 136 986 l 289 986 b 392 936 361 986 375 982 l 510 613 l 742 936 b 786 979 757 960 772 974 b 860 986 799 983 824 986 "},"¦":{"ha":371,"x_min":0,"x_max":0,"o":"m 376 1189 b 418 1138 414 1189 425 1176 l 331 642 b 271 592 324 604 308 592 l 171 592 b 129 642 133 592 124 604 l 217 1138 b 276 1189 224 1176 239 1189 m 236 394 b 278 344 274 394 285 382 l 190 -151 b 131 -203 183 -190 168 -203 l 31 -203 b -11 -151 -7 -203 -18 -190 l 76 344 b 136 394 83 382 97 394 "},"§":{"ha":854,"x_min":0,"x_max":0,"o":"m 144 729 b 550 1007 176 901 317 1007 b 839 806 715 1007 796 929 b 799 729 851 763 842 746 l 711 694 b 639 724 672 676 651 683 b 514 804 621 778 579 804 b 368 717 428 804 379 775 b 499 635 361 668 404 651 b 686 589 592 619 654 604 b 792 365 775 549 810 474 b 681 186 778 292 740 232 b 731 -28 732 143 749 71 b 321 -303 699 -200 558 -303 b -19 -93 133 -303 7 -226 b 32 -17 -26 -56 -8 -31 l 128 17 b 199 -21 174 32 189 24 b 342 -104 211 -76 258 -104 b 504 -14 440 -104 494 -74 b 378 61 514 32 468 50 b 189 94 281 74 218 85 b 51 325 76 131 31 207 b 192 521 67 410 114 475 b 144 729 143 564 126 633 m 419 436 b 360 447 404 440 372 446 b 288 351 318 424 294 392 b 439 257 276 283 328 268 b 497 251 451 256 471 253 b 563 346 533 275 556 306 b 419 436 572 401 524 419 "},"¨":{"ha":610,"x_min":0,"x_max":0,"o":"m 286 1004 b 360 915 354 1004 372 982 l 357 900 b 253 813 346 835 321 813 l 242 813 b 169 900 175 813 157 835 l 172 915 b 276 1004 183 982 208 1004 m 574 1004 b 646 915 640 1004 657 982 l 643 900 b 539 813 631 833 606 813 l 529 813 b 454 900 461 813 443 835 l 457 915 b 564 1004 469 982 496 1004 "},"©":{"ha":1096,"x_min":0,"x_max":0,"o":"m 97 488 b 303 842 121 626 190 744 b 682 986 415 938 542 986 b 1011 842 821 986 931 938 b 1094 488 1090 744 1118 626 b 892 133 1071 347 1004 229 b 514 -11 779 38 653 -11 b 183 135 374 -11 264 38 b 97 488 103 232 74 350 m 979 488 b 917 760 997 596 976 686 b 665 869 857 833 772 869 b 374 760 557 869 460 833 b 214 488 286 686 233 596 b 276 215 194 381 215 289 b 531 104 336 142 421 104 b 822 215 638 104 735 142 b 979 488 908 289 961 381 m 397 557 b 643 751 419 678 508 751 b 821 625 747 751 806 710 b 786 571 826 593 818 581 l 735 553 b 689 581 703 543 693 549 b 619 621 682 610 663 621 b 532 557 569 621 540 600 l 507 414 b 572 349 500 371 521 349 b 653 390 610 349 638 363 b 711 418 674 422 683 428 l 757 399 b 774 344 785 388 789 376 b 550 221 725 263 651 221 b 374 415 417 221 351 297 "},"ª":{"ha":490,"x_min":0,"x_max":0,"o":"m 158 858 b 346 932 204 907 267 932 b 499 758 468 932 519 874 l 468 579 b 411 513 461 540 450 528 b 265 492 376 499 328 492 b 104 631 128 492 88 547 b 315 757 122 719 172 757 b 346 756 328 757 339 757 l 349 774 b 319 808 354 800 346 808 b 265 785 304 808 286 800 b 210 776 247 771 228 768 l 171 797 b 158 858 138 817 133 831 m 328 653 b 289 654 318 654 304 654 b 251 629 267 654 254 646 b 281 603 247 608 254 603 l 317 606 b 319 608 318 606 319 607 "},"«":{"ha":844,"x_min":0,"x_max":0,"o":"m 758 201 b 747 138 775 181 771 160 l 676 76 b 613 76 650 56 629 56 l 400 332 b 413 396 379 356 383 372 l 715 657 b 779 657 742 678 763 678 l 831 593 b 819 531 847 572 843 551 l 624 364 m 415 201 b 404 138 433 181 429 160 l 333 76 b 269 76 310 56 288 56 l 57 332 b 68 396 42 354 44 375 l 372 657 b 436 657 397 679 418 679 l 488 593 b 476 531 506 572 501 551 l 282 364 "},"¬":{"ha":819,"x_min":0,"x_max":0,"o":"m 726 585 b 769 535 765 585 776 572 l 717 239 b 658 188 710 200 696 188 l 551 188 b 508 239 513 188 501 200 l 536 393 l 110 393 b 68 444 72 393 61 406 l 83 535 b 143 585 90 572 104 585 "},"®":{"ha":639,"x_min":0,"x_max":0,"o":"m 167 525 b 118 717 121 578 106 642 b 232 910 131 792 169 856 b 439 989 294 963 364 989 b 617 908 513 989 572 963 b 663 717 660 854 675 790 b 550 525 650 642 613 578 b 346 444 488 471 419 444 b 167 525 271 444 211 471 m 192 717 b 225 575 182 661 193 614 b 358 515 257 535 301 515 b 508 575 413 515 463 535 b 592 717 554 614 582 661 b 558 858 601 772 590 819 b 429 917 526 897 483 917 b 275 858 372 917 321 897 b 192 717 229 819 201 772 m 433 849 b 519 757 493 849 531 813 b 456 675 513 717 492 690 l 485 615 b 463 585 494 594 488 585 l 433 585 b 404 601 418 585 408 590 l 378 667 l 353 667 l 342 603 b 319 585 339 590 332 585 l 283 585 b 268 603 271 585 265 590 l 307 829 b 331 849 311 844 314 849 m 364 732 l 414 732 b 442 757 429 732 439 740 b 422 779 446 769 435 779 l 372 779 "},"¯":{"ha":489,"x_min":0,"x_max":0,"o":"m 522 981 b 563 933 561 981 569 971 l 554 888 b 497 839 549 849 536 839 l 172 839 b 133 888 135 839 128 849 l 140 933 b 197 981 147 971 163 981 "},"°":{"ha":563,"x_min":0,"x_max":0,"o":"m 601 771 b 504 600 592 704 558 647 b 322 528 450 551 389 528 b 160 599 254 528 200 551 b 115 771 119 646 106 703 b 210 943 125 839 156 897 b 393 1013 264 989 325 1013 b 556 943 461 1013 515 989 b 601 771 596 897 611 839 m 275 769 b 343 686 265 725 297 686 b 443 769 389 686 433 725 b 374 856 450 814 418 856 b 275 769 328 856 282 814 "},"±":{"ha":803,"x_min":0,"x_max":0,"o":"m 725 650 b 771 593 768 650 778 636 l 760 528 b 694 471 750 485 735 471 l 510 471 l 493 386 b 428 329 486 343 471 329 l 353 329 b 306 386 310 329 299 343 l 322 471 l 139 471 b 93 528 96 471 86 485 l 104 593 b 171 650 111 636 128 650 l 353 650 l 369 740 b 436 797 376 783 393 797 l 510 797 b 557 740 553 797 564 783 l 540 650 m 663 296 b 710 239 706 296 717 282 l 697 171 b 631 114 688 128 674 114 l 76 114 b 31 171 33 114 24 128 l 42 239 b 108 296 49 282 65 296 "},"²":{"ha":510,"x_min":0,"x_max":0,"o":"m 156 1003 b 393 1133 206 1090 285 1133 b 568 951 519 1133 583 1053 b 390 761 551 851 506 794 l 318 743 b 276 726 292 736 278 731 l 275 724 l 469 724 b 508 675 504 724 515 708 l 500 621 b 444 574 494 588 479 574 l 124 574 b 82 621 89 574 76 586 l 90 661 b 246 849 108 767 144 814 l 325 876 b 393 940 371 894 386 906 b 361 978 397 963 385 978 b 301 946 335 978 315 967 b 225 911 275 906 265 899 l 176 931 b 156 1003 142 946 135 963 "},"³":{"ha":517,"x_min":0,"x_max":0,"o":"m 153 1006 b 394 1135 201 1092 282 1135 b 571 971 521 1135 586 1071 b 496 863 564 919 544 890 b 543 719 539 833 556 785 b 300 564 525 615 443 564 b 99 694 179 564 113 607 b 136 763 92 729 104 753 l 189 779 b 254 747 229 794 244 786 b 322 710 261 722 283 710 b 381 743 357 710 376 721 b 344 779 386 767 374 779 l 304 779 b 267 825 265 779 260 786 l 276 875 b 333 924 283 918 290 924 l 361 924 b 411 958 390 924 407 935 b 372 993 415 982 401 993 b 289 957 332 993 304 981 b 206 925 263 914 250 908 l 172 940 b 153 1006 140 953 135 965 "},"´":{"ha":357,"x_min":0,"x_max":0,"o":"m 333 1018 b 425 1015 378 1040 408 1039 l 465 956 b 449 900 486 926 483 913 l 190 811 b 128 815 157 800 136 801 l 107 849 b 119 901 90 875 92 889 "},"µ":{"ha":785,"x_min":0,"x_max":0,"o":"m 722 722 b 763 671 760 722 769 710 l 665 110 b 600 31 658 69 643 51 b 369 -21 524 -4 447 -21 b 221 22 304 -21 256 -7 l 171 -254 b 111 -306 164 -293 149 -306 l 3 -306 b -39 -254 -36 -306 -46 -293 l 124 671 b 185 722 131 710 146 722 l 293 722 b 333 671 331 722 340 710 l 264 274 b 364 169 251 204 285 169 b 457 181 393 169 425 174 b 469 193 464 182 468 186 l 553 671 b 614 722 560 710 575 722 "},"¶":{"ha":904,"x_min":0,"x_max":0,"o":"m 893 986 b 935 935 932 986 942 974 l 758 -72 b 697 -124 751 -111 736 -124 l 608 -124 b 567 -72 569 -124 560 -111 l 717 781 l 639 781 l 489 -72 b 428 -124 482 -111 467 -124 l 339 -124 b 299 -72 301 -124 292 -111 l 367 317 b 151 419 271 319 200 354 b 106 664 103 485 88 565 b 239 900 124 763 168 842 b 494 986 310 957 394 986 "},"·":{"ha":379,"x_min":0,"x_max":0,"o":"m 229 528 b 315 422 308 528 328 504 l 310 396 b 188 292 294 317 267 292 l 164 292 b 76 396 85 292 64 317 l 82 422 b 206 528 94 501 126 528 "},"¸":{"ha":349,"x_min":0,"x_max":0,"o":"m 142 -79 l 150 -79 b 247 -215 235 -79 269 -139 b 28 -346 221 -308 132 -346 b -69 -325 -11 -346 -43 -339 b -92 -282 -87 -317 -96 -303 l -83 -231 b -50 -210 -79 -207 -68 -200 b 24 -231 -25 -224 0 -231 b 89 -194 61 -231 83 -218 b 36 -161 93 -172 76 -161 l 8 -161 b -7 -122 -17 -161 -22 -149 l 69 0 l 186 0 "},"¹":{"ha":397,"x_min":0,"x_max":0,"o":"m 415 1125 b 468 1065 460 1125 475 1108 l 392 632 b 325 576 385 592 368 576 l 269 576 b 224 632 226 576 217 589 l 274 917 l 225 893 b 150 913 189 875 164 881 l 131 954 b 168 1031 118 986 131 1011 l 318 1108 b 386 1125 338 1119 360 1125 "},"º":{"ha":496,"x_min":0,"x_max":0,"o":"m 129 767 b 351 932 147 874 225 932 b 515 750 478 932 536 860 l 499 657 b 275 493 481 547 406 493 b 113 674 151 493 92 564 m 361 764 b 328 794 365 782 354 794 b 285 764 301 794 288 785 l 267 661 b 299 631 263 643 275 631 b 343 661 324 631 339 640 "},"»":{"ha":849,"x_min":0,"x_max":0,"o":"m 118 536 b 129 597 97 560 100 574 l 201 661 b 265 661 226 682 247 682 l 482 396 b 469 332 503 372 499 356 l 169 78 b 107 78 144 57 124 57 l 51 143 b 63 206 33 164 38 185 l 256 368 m 461 536 b 472 597 440 560 443 575 l 549 657 b 611 657 578 679 590 679 l 825 396 b 814 332 842 375 838 354 l 517 81 b 453 81 493 60 472 60 l 394 143 b 406 206 375 164 379 185 l 597 368 "},"¼":{"ha":1224,"x_min":0,"x_max":0,"o":"m 415 993 b 469 933 461 993 476 978 l 392 500 b 326 444 385 460 369 444 l 271 444 b 224 500 228 444 217 457 l 275 786 l 226 761 b 150 781 189 742 164 749 l 132 824 b 169 899 119 854 132 879 l 319 978 b 386 993 338 988 360 993 m 1063 986 b 1090 932 1100 986 1111 961 l 442 50 b 399 8 425 28 411 14 b 331 0 386 3 364 0 l 258 0 b 229 57 218 0 207 25 l 881 939 b 983 986 910 979 922 986 m 1118 239 b 1158 196 1158 239 1164 231 l 1149 144 b 1094 101 1142 110 1133 101 l 1079 101 l 1071 47 b 1018 0 1064 10 1053 0 l 947 0 b 913 47 913 0 906 10 l 922 101 l 700 101 b 661 150 661 101 654 111 l 667 190 b 693 243 671 213 681 231 l 965 519 b 1040 549 992 543 1003 549 l 1110 549 b 1150 499 1150 549 1157 542 l 1104 239 m 967 349 l 858 239 l 947 239 "},"½":{"ha":1251,"x_min":0,"x_max":0,"o":"m 415 993 b 469 933 461 993 476 978 l 392 500 b 326 444 385 460 369 444 l 271 444 b 224 500 228 444 217 457 l 275 786 l 226 761 b 150 781 189 742 164 749 l 132 824 b 169 899 119 854 132 879 l 319 978 b 386 993 338 988 360 993 m 1047 986 b 1074 932 1085 986 1094 961 l 425 50 b 382 8 408 28 394 14 b 314 0 369 3 347 0 l 242 0 b 214 57 203 0 192 25 l 864 939 b 967 986 893 979 906 986 m 800 429 b 1038 560 850 517 929 560 b 1213 378 1164 560 1228 479 b 1036 188 1196 278 1149 221 l 963 169 b 921 151 936 163 922 157 l 921 150 l 1114 150 b 1153 101 1149 150 1160 135 l 1144 47 b 1089 0 1139 14 1124 0 l 768 0 b 726 47 733 0 721 13 l 735 88 b 890 275 753 192 789 238 l 969 303 b 1038 367 1015 319 1031 332 b 1006 404 1042 389 1029 404 b 946 372 979 404 960 393 b 869 338 919 332 910 325 l 821 357 b 800 429 786 372 779 389 "},"¾":{"ha":1261,"x_min":0,"x_max":0,"o":"m 138 876 b 379 1006 186 963 267 1006 b 556 842 506 1006 571 942 b 481 733 549 790 529 761 b 528 590 524 704 540 656 b 285 435 510 486 428 435 b 83 565 164 435 97 478 b 121 632 76 600 89 622 l 174 650 b 239 618 214 663 229 657 b 307 579 246 592 268 579 b 365 613 342 579 361 590 b 329 650 371 638 358 650 l 289 650 b 251 696 250 650 244 657 l 261 744 b 318 794 268 789 275 794 l 346 794 b 396 829 375 794 392 806 b 357 864 400 853 386 864 b 274 828 317 864 289 851 b 190 796 247 785 235 779 l 157 811 b 138 876 125 824 119 838 m 1101 986 b 1129 932 1139 986 1150 961 l 481 50 b 438 8 464 28 450 14 b 369 0 425 3 403 0 l 297 0 b 269 57 258 0 247 25 l 919 939 b 1022 986 949 979 961 986 m 1154 238 b 1193 194 1193 238 1199 229 l 1185 143 b 1129 100 1178 108 1169 100 l 1115 100 l 1106 46 b 1053 -1 1099 8 1088 -1 l 983 -1 b 949 46 949 -1 942 8 l 957 100 l 735 100 b 696 149 697 100 689 111 l 701 189 b 729 242 707 211 717 229 l 1001 518 b 1075 547 1025 542 1038 547 l 1144 547 b 1186 497 1188 547 1193 540 l 1139 238 m 1001 347 l 893 238 l 982 238 "},"¿":{"ha":799,"x_min":0,"x_max":0,"o":"m 457 499 b 371 603 378 499 358 524 l 375 626 b 499 732 390 706 419 732 l 526 732 b 613 626 606 732 628 706 l 608 603 b 486 499 596 524 565 499 m 694 -83 b 297 -306 610 -229 493 -306 b 49 -221 188 -306 106 -278 b -15 -11 -10 -164 -31 -94 b 140 224 -4 107 83 188 b 214 264 157 235 182 249 b 276 296 246 279 267 290 b 358 385 325 322 353 353 b 421 439 365 425 382 439 l 504 439 b 547 385 543 439 554 425 b 385 161 526 268 472 210 b 307 118 376 156 318 125 b 275 96 300 114 289 106 b 207 -10 235 68 219 42 b 321 -117 196 -75 233 -117 b 513 -7 411 -117 464 -85 b 590 28 539 36 556 44 l 672 -11 b 694 -83 710 -28 715 -43 "},"À":{"ha":931,"x_min":0,"x_max":0,"o":"m 532 1260 b 625 1263 557 1285 588 1286 l 800 1147 b 794 1094 822 1132 821 1122 l 761 1060 b 697 1057 749 1047 726 1046 l 468 1143 b 471 1199 440 1156 442 1169 m 888 56 b 840 0 894 18 878 0 l 743 0 b 649 51 672 0 654 11 l 629 182 l 285 182 l 218 51 b 108 0 197 11 176 0 l 6 0 b -22 56 -33 0 -43 18 l 467 939 b 543 986 485 976 503 986 l 650 986 b 713 942 690 986 706 976 m 568 581 b 565 753 561 640 561 715 l 568 779 l 557 779 b 489 582 544 714 522 647 l 378 365 l 603 365 "},"Á":{"ha":931,"x_min":0,"x_max":0,"o":"m 674 1263 b 765 1258 717 1285 747 1283 l 804 1199 b 788 1143 822 1169 822 1154 l 529 1057 b 465 1060 494 1046 474 1047 l 446 1094 b 457 1147 428 1121 431 1132 m 888 56 b 840 0 894 18 878 0 l 743 0 b 649 51 672 0 654 11 l 629 182 l 285 182 l 218 51 b 108 0 197 11 176 0 l 6 0 b -22 56 -33 0 -43 18 l 467 939 b 543 986 485 976 503 986 l 650 986 b 713 942 690 986 706 976 m 568 581 b 565 753 561 640 561 715 l 568 779 l 557 779 b 489 582 544 714 522 647 l 378 365 l 603 365 "},"Â":{"ha":931,"x_min":0,"x_max":0,"o":"m 667 1269 b 750 1228 710 1269 721 1267 l 860 1093 b 831 1051 878 1072 869 1051 l 749 1051 b 671 1079 703 1051 688 1056 l 629 1140 l 561 1079 b 476 1051 533 1053 522 1051 l 392 1051 b 376 1093 351 1051 349 1072 l 532 1228 b 585 1264 556 1247 572 1260 b 639 1269 596 1268 614 1269 m 888 56 b 840 0 894 18 878 0 l 743 0 b 649 51 672 0 654 11 l 629 182 l 285 182 l 218 51 b 108 0 197 11 176 0 l 6 0 b -22 56 -33 0 -43 18 l 467 939 b 543 986 485 976 503 986 l 650 986 b 713 942 690 986 706 976 m 568 581 b 565 753 561 640 561 715 l 568 779 l 557 779 b 489 582 544 714 522 647 l 378 365 l 603 365 "},"Ã":{"ha":931,"x_min":0,"x_max":0,"o":"m 828 1256 b 853 1224 849 1256 857 1244 b 700 1060 832 1103 788 1060 b 538 1129 621 1060 576 1129 b 508 1089 524 1129 514 1115 b 475 1060 504 1069 493 1060 l 413 1060 b 386 1090 392 1060 382 1069 b 538 1256 408 1211 456 1256 b 639 1221 574 1256 607 1244 b 704 1186 669 1197 692 1186 b 733 1225 719 1186 729 1199 b 767 1256 738 1246 749 1256 m 888 56 b 840 0 894 18 878 0 l 743 0 b 649 51 672 0 654 11 l 629 182 l 285 182 l 218 51 b 108 0 197 11 176 0 l 6 0 b -22 56 -33 0 -43 18 l 467 939 b 543 986 485 976 503 986 l 650 986 b 713 942 690 986 706 976 m 568 581 b 565 753 561 640 561 715 l 568 779 l 557 779 b 489 582 544 714 522 647 l 378 365 l 603 365 "},"Ä":{"ha":931,"x_min":0,"x_max":0,"o":"m 506 1253 b 581 1165 572 1253 592 1232 l 578 1150 b 471 1061 565 1083 538 1061 l 461 1061 b 389 1150 394 1061 378 1083 l 392 1165 b 494 1253 404 1232 428 1253 m 792 1253 b 865 1165 860 1253 878 1232 l 863 1150 b 758 1061 851 1083 825 1061 l 749 1061 b 675 1150 681 1061 663 1085 l 678 1165 b 782 1253 689 1232 714 1253 m 888 56 b 840 0 894 18 878 0 l 743 0 b 649 51 672 0 654 11 l 629 182 l 285 182 l 218 51 b 108 0 197 11 176 0 l 6 0 b -22 56 -33 0 -43 18 l 467 939 b 543 986 485 976 503 986 l 650 986 b 713 942 690 986 706 976 m 568 581 b 565 753 561 640 561 715 l 568 779 l 557 779 b 489 582 544 714 522 647 l 378 365 l 603 365 "},"Å":{"ha":932,"x_min":0,"x_max":0,"o":"m 410 1051 b 642 1239 428 1163 525 1239 b 803 1051 754 1239 821 1163 b 717 911 793 993 765 946 l 888 56 b 840 0 894 18 878 0 l 743 0 b 649 51 672 0 654 11 l 629 182 l 285 182 l 218 51 b 108 0 197 11 176 0 l 6 0 b -22 56 -33 0 -43 18 l 450 910 b 410 1051 414 946 400 993 m 650 1001 b 621 1122 699 1040 685 1128 b 536 1051 578 1122 543 1094 b 596 982 529 1011 553 982 b 650 1001 617 982 635 989 m 568 581 b 565 753 561 640 561 715 l 568 779 l 557 779 b 489 582 544 714 522 647 l 378 365 l 603 365 "},"Æ":{"ha":1222,"x_min":0,"x_max":0,"o":"m 1125 207 b 1171 150 1168 207 1178 190 l 1156 57 b 1089 0 1149 14 1132 0 l 621 0 b 574 57 578 0 567 14 l 596 179 l 324 179 l 222 50 b 110 0 193 11 176 0 l -1 0 b -28 56 -42 0 -51 18 l 681 939 b 757 986 713 978 722 986 l 1249 986 b 1296 929 1292 986 1303 972 l 1279 836 b 1213 781 1272 796 1256 781 l 910 781 l 879 601 l 1113 601 b 1158 546 1156 601 1165 586 l 1143 453 b 1075 396 1136 410 1118 396 l 842 396 l 808 207 m 682 651 l 465 358 l 628 358 "},"Ç":{"ha":889,"x_min":0,"x_max":0,"o":"m 600 1007 b 935 769 793 1007 906 928 b 890 697 942 729 933 710 l 789 664 b 722 699 746 651 732 658 b 567 800 708 767 657 800 b 353 635 443 800 372 744 l 303 351 b 458 186 283 242 335 186 b 651 288 549 186 613 219 b 729 322 674 328 692 338 l 833 282 b 857 210 871 267 878 249 b 508 -17 786 79 669 4 l 474 -81 l 482 -81 b 579 -217 567 -81 601 -140 b 360 -347 553 -310 464 -347 b 263 -326 321 -347 289 -340 b 240 -283 244 -318 236 -304 l 249 -232 b 282 -211 253 -208 264 -201 b 356 -231 308 -224 332 -231 b 421 -196 394 -231 417 -219 b 368 -162 425 -174 408 -162 l 340 -162 b 325 -124 314 -162 310 -150 l 389 -19 b 79 364 154 -7 40 142 l 129 647 b 600 1007 169 879 338 1007 "},"È":{"ha":811,"x_min":0,"x_max":0,"o":"m 464 1260 b 556 1263 488 1283 518 1285 l 731 1147 b 726 1094 753 1132 753 1122 l 692 1060 b 629 1057 679 1047 658 1046 l 400 1143 b 403 1199 372 1156 374 1169 m 807 986 b 854 929 850 986 861 972 l 838 836 b 771 781 831 796 814 781 l 381 781 l 350 601 l 671 601 b 717 546 711 601 724 589 l 700 453 b 633 396 693 410 676 396 l 313 396 l 279 207 l 683 207 b 729 150 726 207 736 190 l 713 57 b 647 0 706 14 690 0 l 75 0 b 28 57 32 0 21 14 l 182 929 b 249 986 192 972 206 986 "},"É":{"ha":811,"x_min":0,"x_max":0,"o":"m 606 1263 b 697 1258 649 1285 679 1283 l 736 1199 b 719 1143 754 1169 754 1154 l 460 1057 b 397 1060 426 1046 406 1047 l 378 1094 b 389 1147 360 1121 363 1132 m 807 986 b 854 929 850 986 861 972 l 838 836 b 771 781 831 796 814 781 l 381 781 l 350 601 l 671 601 b 717 546 711 601 724 589 l 700 453 b 633 396 693 410 676 396 l 313 396 l 279 207 l 683 207 b 729 150 726 207 736 190 l 713 57 b 647 0 706 14 690 0 l 75 0 b 28 57 32 0 21 14 l 182 929 b 249 986 192 972 206 986 "},"Ê":{"ha":811,"x_min":0,"x_max":0,"o":"m 599 1269 b 682 1228 642 1269 653 1267 l 792 1093 b 763 1051 810 1072 801 1051 l 681 1051 b 601 1079 635 1051 618 1056 l 561 1140 l 493 1079 b 407 1051 465 1053 453 1051 l 324 1051 b 308 1093 283 1051 281 1072 l 464 1228 b 515 1264 486 1247 503 1260 b 571 1269 526 1268 544 1269 m 807 986 b 854 929 850 986 861 972 l 838 836 b 771 781 831 796 814 781 l 381 781 l 350 601 l 671 601 b 717 546 711 601 724 589 l 700 453 b 633 396 693 410 676 396 l 313 396 l 279 207 l 683 207 b 729 150 726 207 736 190 l 713 57 b 647 0 706 14 690 0 l 75 0 b 28 57 32 0 21 14 l 182 929 b 249 986 192 972 206 986 "},"Ë":{"ha":811,"x_min":0,"x_max":0,"o":"m 436 1253 b 513 1165 504 1253 524 1232 l 508 1150 b 403 1061 497 1085 471 1061 l 393 1061 b 321 1150 326 1061 310 1083 l 324 1165 b 426 1253 335 1232 358 1253 m 724 1253 b 797 1165 792 1253 810 1232 l 794 1150 b 690 1061 783 1083 757 1061 l 681 1061 b 606 1150 614 1061 594 1083 l 610 1165 b 714 1253 621 1232 646 1253 m 807 986 b 854 929 850 986 861 972 l 838 836 b 771 781 831 796 814 781 l 381 781 l 350 601 l 671 601 b 717 546 711 601 724 589 l 700 453 b 633 396 693 410 676 396 l 313 396 l 279 207 l 683 207 b 729 150 726 207 736 190 l 713 57 b 647 0 706 14 690 0 l 75 0 b 28 57 32 0 21 14 l 182 929 b 249 986 192 972 206 986 "},"Ì":{"ha":399,"x_min":0,"x_max":0,"o":"m 242 1260 b 333 1263 265 1283 296 1285 l 508 1147 b 503 1094 531 1132 529 1122 l 469 1060 b 406 1057 457 1047 436 1046 l 176 1143 b 179 1199 149 1156 150 1169 m 182 931 b 247 986 192 974 207 986 l 361 986 b 407 931 404 986 414 971 l 253 56 b 188 0 246 15 231 0 l 74 0 b 28 56 33 0 21 13 "},"Í":{"ha":399,"x_min":0,"x_max":0,"o":"m 382 1263 b 474 1258 425 1285 456 1283 l 513 1199 b 496 1143 533 1169 529 1156 l 238 1057 b 175 1060 203 1046 182 1047 l 154 1094 b 165 1147 138 1121 139 1135 m 182 931 b 247 986 192 974 207 986 l 361 986 b 407 931 404 986 414 971 l 253 56 b 188 0 246 15 231 0 l 74 0 b 28 56 33 0 21 13 "},"Î":{"ha":399,"x_min":0,"x_max":0,"o":"m 375 1269 b 458 1228 418 1269 429 1267 l 569 1093 b 539 1051 588 1072 579 1051 l 458 1051 b 379 1079 410 1051 396 1056 l 338 1140 l 269 1079 b 185 1051 242 1053 231 1051 l 100 1051 b 85 1093 61 1051 58 1072 l 240 1228 b 293 1264 264 1247 281 1260 b 349 1269 304 1268 322 1269 m 182 931 b 247 986 192 974 207 986 l 361 986 b 407 931 404 986 414 971 l 253 56 b 188 0 246 15 231 0 l 74 0 b 28 56 33 0 21 13 "},"Ï":{"ha":399,"x_min":0,"x_max":0,"o":"m 214 1253 b 289 1165 282 1253 300 1232 l 286 1150 b 181 1061 275 1085 247 1061 l 169 1061 b 97 1150 103 1061 86 1083 l 100 1165 b 204 1253 113 1232 136 1253 m 500 1253 b 575 1165 568 1253 586 1232 l 571 1150 b 467 1061 560 1083 533 1061 l 457 1061 b 383 1150 390 1061 372 1083 l 386 1165 b 490 1253 397 1232 424 1253 m 182 931 b 247 986 192 974 207 986 l 361 986 b 407 931 404 986 414 971 l 253 56 b 188 0 246 15 231 0 l 74 0 b 28 56 33 0 21 13 "},"Ð":{"ha":964,"x_min":0,"x_max":0,"o":"m 597 986 b 881 879 726 986 821 950 b 939 594 940 807 960 713 l 897 356 b 424 0 854 124 694 0 l 97 0 b 51 57 57 0 44 14 l 118 436 l 47 436 b 21 472 21 436 17 443 l 35 546 b 74 581 39 569 51 581 l 144 581 l 206 929 b 271 986 215 972 231 986 m 715 613 b 558 781 738 725 690 781 l 404 781 l 369 581 l 518 581 b 543 546 542 581 549 572 l 531 472 b 492 436 526 444 518 436 l 344 436 l 303 207 l 457 207 b 675 374 581 207 654 263 "},"Ñ":{"ha":974,"x_min":0,"x_max":0,"o":"m 825 1256 b 850 1224 846 1256 854 1244 b 697 1060 829 1103 785 1060 b 535 1129 618 1060 574 1129 b 506 1089 521 1129 511 1115 b 472 1060 501 1069 490 1060 l 410 1060 b 383 1090 389 1060 379 1069 b 535 1256 406 1211 453 1256 b 636 1221 571 1256 604 1244 b 701 1186 667 1197 689 1186 b 731 1225 717 1186 726 1199 b 764 1256 735 1246 746 1256 m 935 986 b 982 929 978 986 989 972 l 828 57 b 761 0 821 14 804 0 l 650 0 b 601 26 626 0 610 8 l 403 440 b 333 700 368 514 344 600 l 322 700 b 307 389 329 596 325 492 l 249 57 b 182 0 242 14 225 0 l 75 0 b 28 57 32 0 21 14 l 182 929 b 249 986 192 972 206 986 l 356 986 b 410 960 382 986 400 978 l 613 539 b 671 361 640 481 661 403 b 683 290 676 332 683 292 l 693 290 b 703 597 681 388 683 490 l 763 929 b 828 986 769 972 785 986 "},"Ò":{"ha":938,"x_min":0,"x_max":0,"o":"m 538 1274 b 629 1276 561 1297 592 1299 l 804 1161 b 800 1108 826 1146 826 1136 l 765 1074 b 703 1071 753 1061 732 1060 l 474 1157 b 476 1213 446 1169 447 1183 m 129 646 b 597 1007 169 878 336 1007 b 883 901 726 1007 822 972 b 944 618 943 831 964 736 l 894 336 b 426 -21 854 104 689 -21 b 142 85 297 -21 201 14 b 79 364 81 154 60 247 m 724 638 b 567 800 742 744 685 800 b 354 638 443 800 372 746 l 303 349 b 458 186 285 242 340 186 b 672 349 582 186 653 240 "},"Ó":{"ha":938,"x_min":0,"x_max":0,"o":"m 678 1276 b 769 1272 722 1299 753 1297 l 810 1213 b 793 1157 828 1183 828 1168 l 533 1071 b 471 1074 500 1060 479 1061 l 450 1108 b 463 1161 435 1132 439 1149 m 129 646 b 597 1007 169 878 336 1007 b 883 901 726 1007 822 972 b 944 618 943 831 964 736 l 894 336 b 426 -21 854 104 689 -21 b 142 85 297 -21 201 14 b 79 364 81 154 60 247 m 724 638 b 567 800 742 744 685 800 b 354 638 443 800 372 746 l 303 349 b 458 186 285 242 340 186 b 672 349 582 186 653 240 "},"Ô":{"ha":938,"x_min":0,"x_max":0,"o":"m 672 1283 b 756 1242 715 1283 726 1281 l 865 1107 b 836 1065 883 1086 875 1065 l 754 1065 b 675 1093 708 1065 692 1069 l 635 1154 l 567 1093 b 481 1065 539 1067 526 1065 l 397 1065 b 382 1107 357 1065 354 1086 l 538 1242 b 589 1278 560 1261 576 1274 b 644 1283 600 1282 618 1283 m 129 646 b 597 1007 169 878 336 1007 b 883 901 726 1007 822 972 b 944 618 943 831 964 736 l 894 336 b 426 -21 854 104 689 -21 b 142 85 297 -21 201 14 b 79 364 81 154 60 247 m 724 638 b 567 800 742 744 685 800 b 354 638 443 800 372 746 l 303 349 b 458 186 285 242 340 186 b 672 349 582 186 653 240 "},"Õ":{"ha":938,"x_min":0,"x_max":0,"o":"m 833 1269 b 858 1238 854 1269 863 1258 b 706 1074 838 1117 793 1074 b 543 1143 626 1074 582 1143 b 514 1103 528 1143 518 1129 b 481 1074 510 1083 499 1074 l 418 1074 b 392 1104 397 1074 388 1083 b 543 1269 414 1225 461 1269 b 644 1235 579 1269 613 1258 b 710 1200 675 1211 697 1200 b 738 1239 725 1200 733 1213 b 772 1269 742 1260 753 1269 m 129 646 b 597 1007 169 878 336 1007 b 883 901 726 1007 822 972 b 944 618 943 831 964 736 l 894 336 b 426 -21 854 104 689 -21 b 142 85 297 -21 201 14 b 79 364 81 154 60 247 m 724 638 b 567 800 742 744 685 800 b 354 638 443 800 372 746 l 303 349 b 458 186 285 242 340 186 b 672 349 582 186 653 240 "},"Ö":{"ha":938,"x_min":0,"x_max":0,"o":"m 510 1267 b 586 1179 578 1267 597 1246 l 582 1164 b 476 1075 571 1099 544 1075 l 467 1075 b 394 1164 400 1075 383 1097 l 397 1179 b 500 1267 408 1246 432 1267 m 797 1267 b 871 1179 865 1267 883 1246 l 868 1164 b 764 1075 857 1097 831 1075 l 754 1075 b 679 1164 688 1075 668 1097 l 683 1179 b 788 1267 694 1246 719 1267 m 129 646 b 597 1007 169 878 336 1007 b 883 901 726 1007 822 972 b 944 618 943 831 964 736 l 894 336 b 426 -21 854 104 689 -21 b 142 85 297 -21 201 14 b 79 364 81 154 60 247 m 724 638 b 567 800 742 744 685 800 b 354 638 443 800 372 746 l 303 349 b 458 186 285 242 340 186 b 672 349 582 186 653 240 "},"×":{"ha":721,"x_min":0,"x_max":0,"o":"m 625 300 b 611 224 646 274 640 247 l 546 168 b 471 168 513 139 494 139 l 344 319 l 168 169 b 92 169 133 140 114 140 l 46 225 b 60 301 22 251 25 272 l 236 451 l 113 601 b 125 678 89 633 93 651 l 190 733 b 267 733 225 763 244 763 l 392 583 l 569 735 b 646 735 604 764 624 764 l 692 679 b 678 603 715 651 713 632 l 499 451 "},"Ø":{"ha":939,"x_min":0,"x_max":0,"o":"m 1018 1047 b 1024 1028 1031 1047 1033 1040 l 894 869 b 933 618 938 804 950 721 l 883 336 b 415 -21 843 104 678 -21 b 204 26 328 -21 258 -6 l 151 -37 b 110 -54 139 -53 136 -54 l -4 -54 b -10 -33 -19 -54 -22 -47 l 108 111 b 68 364 65 178 51 263 l 117 646 b 586 1007 160 878 325 1007 b 803 957 675 1007 747 990 l 861 1029 b 901 1047 872 1042 886 1047 m 660 778 b 556 800 636 793 601 800 b 343 638 432 800 361 746 l 294 367 b 290 326 292 353 290 339 m 708 617 b 713 653 710 626 713 651 l 346 207 b 447 186 371 193 404 186 b 660 349 571 186 642 240 "},"Ù":{"ha":960,"x_min":0,"x_max":0,"o":"m 546 1260 b 638 1263 569 1283 600 1285 l 813 1147 b 808 1094 835 1132 835 1122 l 774 1060 b 711 1057 761 1047 740 1046 l 482 1143 b 485 1199 454 1156 456 1169 m 321 342 b 469 185 303 242 354 185 b 672 342 588 185 654 238 l 776 929 b 843 986 786 972 800 986 l 956 986 b 1001 929 999 986 1008 972 l 894 326 b 438 -21 856 100 699 -21 b 157 88 308 -21 215 15 b 99 368 97 158 78 253 l 199 929 b 265 986 206 972 222 986 l 378 986 b 424 929 421 986 431 972 "},"Ú":{"ha":960,"x_min":0,"x_max":0,"o":"m 686 1263 b 778 1258 731 1285 761 1283 l 818 1199 b 800 1143 836 1169 835 1156 l 542 1057 b 479 1060 508 1046 488 1047 l 458 1094 b 471 1147 443 1118 447 1135 m 321 342 b 469 185 303 242 354 185 b 672 342 588 185 654 238 l 776 929 b 843 986 786 972 800 986 l 956 986 b 1001 929 999 986 1008 972 l 894 326 b 438 -21 856 100 699 -21 b 157 88 308 -21 215 15 b 99 368 97 158 78 253 l 199 929 b 265 986 206 972 222 986 l 378 986 b 424 929 421 986 431 972 "},"Û":{"ha":960,"x_min":0,"x_max":0,"o":"m 679 1269 b 764 1228 724 1269 735 1267 l 874 1093 b 843 1051 892 1072 883 1051 l 763 1051 b 683 1079 717 1051 700 1056 l 643 1140 l 575 1079 b 489 1051 547 1053 535 1051 l 406 1051 b 390 1093 365 1051 363 1072 l 546 1228 b 597 1264 568 1247 585 1260 b 653 1269 608 1268 626 1269 m 321 342 b 469 185 303 242 354 185 b 672 342 588 185 654 238 l 776 929 b 843 986 786 972 800 986 l 956 986 b 1001 929 999 986 1008 972 l 894 326 b 438 -21 856 100 699 -21 b 157 88 308 -21 215 15 b 99 368 97 158 78 253 l 199 929 b 265 986 206 972 222 986 l 378 986 b 424 929 421 986 431 972 "},"Ü":{"ha":960,"x_min":0,"x_max":0,"o":"m 518 1253 b 594 1165 586 1253 606 1232 l 590 1150 b 485 1061 579 1085 553 1061 l 475 1061 b 403 1150 408 1061 390 1083 l 406 1165 b 508 1253 417 1232 440 1253 m 806 1253 b 879 1165 874 1253 890 1232 l 876 1150 b 772 1061 865 1083 839 1061 l 763 1061 b 688 1150 696 1061 676 1083 l 692 1165 b 796 1253 703 1232 728 1253 m 321 342 b 469 185 303 242 354 185 b 672 342 588 185 654 238 l 776 929 b 843 986 786 972 800 986 l 956 986 b 1001 929 999 986 1008 972 l 894 326 b 438 -21 856 100 699 -21 b 157 88 308 -21 215 15 b 99 368 97 158 78 253 l 199 929 b 265 986 206 972 222 986 l 378 986 b 424 929 421 986 431 972 "},"Ý":{"ha":910,"x_min":0,"x_max":0,"o":"m 646 1263 b 738 1258 690 1286 721 1285 l 776 1199 b 760 1143 797 1169 793 1156 l 501 1057 b 439 1060 468 1046 447 1047 l 418 1094 b 429 1147 401 1121 403 1135 m 975 986 b 994 929 1015 986 1021 961 l 572 383 l 514 57 b 447 0 507 14 490 0 l 335 0 b 289 57 292 0 282 14 l 346 386 l 115 929 b 154 986 100 961 114 986 l 279 986 b 381 936 350 986 364 982 l 499 613 l 733 936 b 778 979 749 960 764 974 b 851 986 792 983 817 986 "},"Þ":{"ha":881,"x_min":0,"x_max":0,"o":"m 581 847 b 819 747 688 847 768 814 b 868 485 871 681 888 593 b 458 153 833 274 676 153 l 269 153 l 253 57 b 186 0 246 14 229 0 l 75 0 b 28 57 32 0 21 14 l 182 929 b 249 986 192 972 206 986 l 360 986 b 407 929 403 986 414 972 l 393 847 m 469 358 b 638 499 557 358 622 417 b 521 640 653 581 606 640 l 357 640 l 306 358 "},"ß":{"ha":783,"x_min":0,"x_max":0,"o":"m 133 742 b 497 1042 167 926 296 1042 b 767 740 704 1042 799 919 b 636 546 750 653 707 588 l 636 540 b 725 288 718 501 749 417 b 367 0 692 103 560 0 l 310 0 b 264 57 269 0 257 14 l 281 150 b 347 207 290 193 304 207 l 376 207 b 501 315 446 207 488 243 b 415 426 513 386 482 426 l 385 426 b 339 483 344 426 332 440 l 356 571 b 418 628 363 614 378 628 l 433 628 b 543 731 490 628 532 665 b 460 836 556 799 525 836 b 339 731 397 836 351 796 l 221 57 b 154 0 214 14 197 0 l 58 0 b 11 57 15 0 4 14 "},"à":{"ha":753,"x_min":0,"x_max":0,"o":"m 404 1015 b 496 1018 431 1040 461 1042 l 671 901 b 664 849 693 886 690 876 l 631 815 b 567 811 618 801 596 800 l 339 900 b 342 956 310 915 313 924 m 81 463 b 454 743 115 657 233 743 b 711 697 567 743 651 728 b 747 619 751 676 757 665 l 651 72 b 590 11 644 33 631 21 b 306 -21 504 -10 410 -21 b 50 288 106 -21 15 100 m 517 546 b 435 556 492 553 464 556 b 286 442 346 556 301 524 l 256 268 b 356 167 244 200 278 167 b 460 176 393 167 428 169 l 524 535 b 517 546 525 540 524 544 "},"á":{"ha":753,"x_min":0,"x_max":0,"o":"m 543 1018 b 635 1015 586 1040 617 1039 l 675 956 b 658 900 696 926 692 913 l 400 811 b 336 815 367 800 346 801 l 315 849 b 328 901 299 875 300 889 m 81 463 b 454 743 115 657 233 743 b 711 697 567 743 651 728 b 747 619 751 676 757 665 l 651 72 b 590 11 644 33 631 21 b 306 -21 504 -10 410 -21 b 50 288 106 -21 15 100 m 517 546 b 435 556 492 553 464 556 b 286 442 346 556 301 524 l 256 268 b 356 167 244 200 278 167 b 460 176 393 167 428 169 l 524 535 b 517 546 525 540 524 544 "},"â":{"ha":753,"x_min":0,"x_max":0,"o":"m 536 1026 b 621 983 579 1026 589 1022 l 731 850 b 700 807 749 828 740 807 l 624 807 b 546 835 578 807 563 811 l 503 896 l 438 836 b 351 807 408 810 397 807 l 264 807 b 249 850 224 807 222 828 l 406 983 b 457 1019 428 1003 444 1015 b 511 1026 468 1024 486 1026 m 81 463 b 454 743 115 657 233 743 b 711 697 567 743 651 728 b 747 619 751 676 757 665 l 651 72 b 590 11 644 33 631 21 b 306 -21 504 -10 410 -21 b 50 288 106 -21 15 100 m 517 546 b 435 556 492 553 464 556 b 286 442 346 556 301 524 l 256 268 b 356 167 244 200 278 167 b 460 176 393 167 428 169 l 524 535 b 517 546 525 540 524 544 "},"ã":{"ha":753,"x_min":0,"x_max":0,"o":"m 699 1015 b 725 985 719 1015 729 1006 b 571 819 703 863 658 819 b 475 854 536 819 504 831 b 408 889 444 878 422 889 b 379 850 393 889 383 876 b 346 819 375 829 364 819 l 283 819 b 258 851 263 819 254 831 b 408 1015 279 972 326 1015 b 510 981 446 1015 479 1004 b 575 946 540 957 563 946 b 604 986 589 946 599 960 b 638 1015 608 1006 619 1015 m 81 463 b 454 743 115 657 233 743 b 711 697 567 743 651 728 b 747 619 751 676 757 665 l 651 72 b 590 11 644 33 631 21 b 306 -21 504 -10 410 -21 b 50 288 106 -21 15 100 m 517 546 b 435 556 492 553 464 556 b 286 442 346 556 301 524 l 256 268 b 356 167 244 200 278 167 b 460 176 393 167 428 169 l 524 535 b 517 546 525 540 524 544 "},"ä":{"ha":753,"x_min":0,"x_max":0,"o":"m 375 1004 b 449 915 443 1004 461 982 l 446 900 b 342 813 435 835 410 813 l 332 813 b 258 900 264 813 246 835 l 261 915 b 365 1004 272 982 297 1004 m 663 1004 b 735 915 731 1004 747 982 l 732 900 b 629 813 719 833 696 813 l 619 813 b 543 900 551 813 532 835 l 546 915 b 653 1004 558 982 585 1004 m 81 463 b 454 743 115 657 233 743 b 711 697 567 743 651 728 b 747 619 751 676 757 665 l 651 72 b 590 11 644 33 631 21 b 306 -21 504 -10 410 -21 b 50 288 106 -21 15 100 m 517 546 b 435 556 492 553 464 556 b 286 442 346 556 301 524 l 256 268 b 356 167 244 200 278 167 b 460 176 393 167 428 169 l 524 535 b 517 546 525 540 524 544 "},"å":{"ha":753,"x_min":0,"x_max":0,"o":"m 340 943 b 532 1100 356 1036 436 1100 b 664 943 625 1100 681 1036 b 478 790 649 853 571 790 b 340 943 382 790 324 853 m 560 943 b 514 1001 567 978 547 1001 b 443 943 479 1001 450 978 b 494 888 439 910 460 888 b 560 943 528 888 556 910 m 81 463 b 454 743 115 657 233 743 b 711 697 567 743 651 728 b 747 619 751 676 757 665 l 651 72 b 590 11 644 33 631 21 b 306 -21 504 -10 410 -21 b 50 288 106 -21 15 100 m 517 546 b 435 556 492 553 464 556 b 286 442 346 556 301 524 l 256 268 b 356 167 244 200 278 167 b 460 176 393 167 428 169 l 524 535 b 517 546 525 540 524 544 "},"æ":{"ha":1079,"x_min":0,"x_max":0,"o":"m 600 668 b 815 743 656 718 728 743 b 1079 492 1008 743 1107 649 b 757 285 1056 358 940 285 b 619 297 722 285 676 289 l 613 261 b 707 151 600 188 632 151 b 838 207 761 151 806 169 b 914 225 865 242 879 247 l 975 186 b 979 106 1004 167 1006 140 b 675 -21 919 21 818 -21 b 506 19 604 -21 549 -7 b 282 -21 443 -7 368 -21 b 22 222 72 -21 -6 67 b 368 436 49 371 153 436 b 454 433 400 436 428 435 l 458 463 b 383 567 464 503 482 567 b 272 514 340 567 303 549 b 199 493 244 482 236 478 l 128 525 b 113 599 94 540 89 564 b 418 743 181 694 283 743 b 600 668 497 743 557 718 m 874 501 b 785 576 883 550 853 576 b 649 469 713 576 661 538 l 646 446 b 768 436 694 439 735 436 b 874 501 831 436 867 458 m 425 276 b 324 281 381 279 347 281 b 228 210 268 281 236 257 b 296 142 218 161 239 142 b 419 153 338 142 379 146 b 421 249 415 178 417 210 "},"ç":{"ha":713,"x_min":0,"x_max":0,"o":"m 79 461 b 450 743 113 649 236 743 b 719 558 610 743 701 669 b 675 486 726 518 715 499 l 593 458 b 526 493 550 443 536 453 b 419 563 515 539 479 563 b 288 457 344 563 300 528 l 253 264 b 347 160 242 194 274 160 b 474 231 404 160 446 183 b 553 264 497 269 515 276 l 640 236 b 661 163 675 222 682 197 b 388 -17 601 58 510 -1 l 353 -79 l 361 -79 b 460 -215 446 -79 482 -139 b 239 -346 433 -308 344 -346 b 142 -325 200 -346 168 -339 b 119 -282 124 -317 115 -303 l 128 -231 b 163 -210 132 -207 143 -200 b 235 -231 188 -224 211 -231 b 300 -194 272 -231 294 -218 b 249 -161 304 -172 288 -161 l 221 -161 b 206 -122 194 -161 189 -149 l 269 -19 b 49 285 90 -1 17 111 "},"è":{"ha":744,"x_min":0,"x_max":0,"o":"m 399 1015 b 490 1018 425 1040 456 1042 l 665 901 b 658 849 688 886 685 875 l 625 815 b 563 811 613 801 592 800 l 333 900 b 336 956 306 913 307 926 m 81 458 b 465 743 114 642 250 743 b 690 672 563 743 638 719 b 749 482 742 624 761 561 b 413 285 725 350 614 285 b 260 297 374 285 322 289 l 254 261 b 358 151 240 188 275 151 b 506 207 422 151 471 169 b 589 225 538 240 551 246 l 651 188 b 658 106 683 168 685 140 b 328 -21 593 21 482 -21 b 92 71 215 -21 136 10 b 51 304 47 132 33 210 m 544 501 b 438 576 551 550 515 576 b 290 465 360 576 306 533 l 286 447 b 421 436 346 440 390 436 b 544 501 494 436 536 458 "},"é":{"ha":744,"x_min":0,"x_max":0,"o":"m 538 1018 b 629 1015 582 1040 613 1039 l 669 956 b 653 900 690 926 686 913 l 394 811 b 332 815 361 800 340 801 l 310 849 b 322 901 294 872 299 889 m 81 458 b 465 743 114 642 250 743 b 690 672 563 743 638 719 b 749 482 742 624 761 561 b 413 285 725 350 614 285 b 260 297 374 285 322 289 l 254 261 b 358 151 240 188 275 151 b 506 207 422 151 471 169 b 589 225 538 240 551 246 l 651 188 b 658 106 683 168 685 140 b 328 -21 593 21 482 -21 b 92 71 215 -21 136 10 b 51 304 47 132 33 210 m 544 501 b 438 576 551 550 515 576 b 290 465 360 576 306 533 l 286 447 b 421 436 346 440 390 436 b 544 501 494 436 536 458 "},"ê":{"ha":744,"x_min":0,"x_max":0,"o":"m 258 807 b 243 850 217 807 221 828 l 400 983 b 451 1019 424 1003 440 1015 b 507 1026 463 1024 481 1026 l 532 1026 b 617 983 575 1026 585 1022 l 725 850 b 696 807 746 828 735 807 l 618 807 b 540 835 572 807 557 811 l 499 896 l 432 836 b 346 807 404 810 392 807 m 465 743 b 690 672 563 743 638 719 b 749 482 742 624 761 561 b 413 285 725 350 614 285 b 260 297 374 285 322 289 l 254 261 b 358 151 240 188 275 151 b 506 207 422 151 471 169 b 589 225 538 240 551 246 l 651 188 b 658 106 683 168 685 140 b 328 -21 593 21 482 -21 b 92 71 215 -21 136 10 b 51 304 47 132 33 210 l 81 458 b 465 743 114 642 250 743 m 544 501 b 438 576 551 550 515 576 b 290 465 360 576 306 533 l 286 447 b 421 436 346 440 390 436 b 544 501 494 436 536 458 "},"ë":{"ha":744,"x_min":0,"x_max":0,"o":"m 371 1004 b 444 915 438 1004 456 982 l 442 900 b 336 813 429 833 403 813 l 326 813 b 253 900 260 813 242 833 l 256 915 b 360 1004 268 982 293 1004 m 657 1004 b 729 915 725 1004 742 982 l 726 900 b 624 813 715 833 690 813 l 614 813 b 539 900 546 813 526 835 l 542 915 b 647 1004 553 982 579 1004 m 81 458 b 465 743 114 642 250 743 b 690 672 563 743 638 719 b 749 482 742 624 761 561 b 413 285 725 350 614 285 b 260 297 374 285 322 289 l 254 261 b 358 151 240 188 275 151 b 506 207 422 151 471 169 b 589 225 538 240 551 246 l 651 188 b 658 106 683 168 685 140 b 328 -21 593 21 482 -21 b 92 71 215 -21 136 10 b 51 304 47 132 33 210 m 544 501 b 438 576 551 550 515 576 b 290 465 360 576 306 533 l 286 447 b 421 436 346 440 390 436 b 544 501 494 436 536 458 "},"ì":{"ha":350,"x_min":0,"x_max":0,"o":"m 172 1015 b 260 1019 201 1044 231 1046 l 411 894 b 403 842 432 878 429 868 l 375 813 b 313 811 361 797 340 797 l 114 908 b 118 964 86 925 89 935 m 289 722 b 329 671 326 722 336 710 l 221 51 b 161 0 214 13 199 0 l 53 0 b 11 51 14 0 4 13 l 119 671 b 181 722 126 710 142 722 "},"í":{"ha":350,"x_min":0,"x_max":0,"o":"m 297 1018 b 389 1017 339 1043 369 1043 l 431 958 b 414 903 451 931 447 915 l 179 811 b 117 813 147 799 126 799 l 94 846 b 106 899 78 872 79 883 m 289 722 b 329 671 326 722 336 710 l 221 51 b 161 0 214 13 199 0 l 53 0 b 11 51 14 0 4 13 l 119 671 b 181 722 126 710 142 722 "},"î":{"ha":350,"x_min":0,"x_max":0,"o":"m 486 847 b 456 806 504 819 493 806 l 378 806 b 307 839 335 806 322 813 l 282 885 l 231 833 b 147 806 207 810 192 806 l 64 806 b 47 847 25 806 19 819 l 183 978 b 288 1019 222 1017 236 1019 l 311 1019 b 394 978 356 1019 368 1017 m 306 722 b 346 671 343 722 353 710 l 238 51 b 178 0 231 13 215 0 l 69 0 b 28 51 31 0 21 13 l 136 671 b 197 722 143 710 158 722 "},"ï":{"ha":350,"x_min":0,"x_max":0,"o":"m 158 1004 b 232 915 226 1004 244 982 l 229 900 b 124 813 217 833 190 813 l 114 813 b 40 900 47 813 29 833 l 43 915 b 149 1004 56 982 81 1004 m 419 1004 b 493 915 486 1004 504 982 l 490 900 b 386 813 478 833 453 813 l 376 813 b 301 900 308 813 289 835 l 304 915 b 410 1004 317 982 342 1004 m 289 722 b 329 671 326 722 336 710 l 221 51 b 161 0 214 13 199 0 l 53 0 b 11 51 14 0 4 13 l 119 671 b 181 722 126 710 142 722 "},"ð":{"ha":772,"x_min":0,"x_max":0,"o":"m 674 1043 b 708 1044 686 1054 699 1054 l 754 1007 b 751 969 767 997 767 985 l 707 928 b 757 543 772 853 789 725 l 708 268 b 328 -21 676 85 543 -21 b 49 286 113 -21 15 99 l 74 428 b 413 696 106 601 235 696 b 582 642 488 696 544 678 b 550 781 588 701 576 749 l 499 733 b 463 731 486 722 475 721 l 421 763 b 425 799 410 772 411 785 l 461 835 b 306 849 426 844 375 849 b 260 900 265 849 254 860 l 274 981 b 333 1033 281 1021 294 1033 b 619 990 456 1033 551 1019 m 524 411 b 422 515 535 481 501 515 b 282 411 340 515 293 481 l 257 269 b 360 165 244 200 278 165 b 499 269 439 165 486 200 "},"ñ":{"ha":771,"x_min":0,"x_max":0,"o":"m 669 1015 b 696 985 690 1015 700 1006 b 542 819 674 863 629 819 b 446 854 507 819 475 831 b 379 889 415 878 393 889 b 350 850 364 889 354 876 b 317 819 346 829 335 819 l 254 819 b 229 851 233 819 225 831 b 379 1015 250 972 297 1015 b 481 981 417 1015 450 1004 b 546 946 511 957 533 946 b 575 986 560 946 569 960 b 608 1015 579 1006 590 1015 m 176 693 b 469 743 264 726 363 743 b 717 443 668 743 750 631 l 649 51 b 588 0 642 13 626 0 l 479 0 b 438 51 442 0 431 13 l 507 449 b 408 553 519 518 488 553 b 308 540 372 553 339 549 b 303 535 307 540 304 539 l 218 51 b 158 0 211 13 196 0 l 50 0 b 8 51 11 0 1 13 l 107 613 b 176 693 117 658 128 675 "},"ò":{"ha":760,"x_min":0,"x_max":0,"o":"m 397 1015 b 489 1018 424 1040 454 1042 l 665 901 b 658 849 686 886 685 875 l 624 815 b 561 811 611 801 590 800 l 332 900 b 335 956 304 913 306 926 m 79 457 b 460 743 113 640 244 743 b 740 440 675 743 774 628 l 710 261 b 329 -21 676 78 547 -21 b 49 278 117 -21 15 93 m 533 453 b 429 557 544 522 510 557 b 289 453 349 557 301 522 l 257 269 b 360 165 244 200 278 165 b 500 269 440 165 488 200 "},"ó":{"ha":760,"x_min":0,"x_max":0,"o":"m 536 1018 b 628 1015 581 1040 611 1039 l 668 956 b 651 900 689 926 685 913 l 393 811 b 331 815 360 800 339 801 l 310 849 b 322 901 292 875 294 889 m 79 457 b 460 743 113 640 244 743 b 740 440 675 743 774 628 l 710 261 b 329 -21 676 78 547 -21 b 49 278 117 -21 15 93 m 533 453 b 429 557 544 522 510 557 b 289 453 349 557 301 522 l 257 269 b 360 165 244 200 278 165 b 500 269 440 165 488 200 "},"ô":{"ha":760,"x_min":0,"x_max":0,"o":"m 258 807 b 242 850 218 807 218 828 l 399 983 b 450 1019 422 1003 439 1015 b 506 1026 461 1024 479 1026 l 531 1026 b 615 983 574 1026 583 1022 l 724 850 b 694 807 744 828 733 807 l 617 807 b 539 835 571 807 556 811 l 497 896 l 431 836 b 344 807 403 810 390 807 m 201 669 b 460 743 267 718 353 743 b 693 663 567 743 644 717 b 740 440 742 608 757 533 l 710 261 b 329 -21 676 78 547 -21 b 49 278 117 -21 15 93 l 79 457 b 201 669 96 549 136 619 m 533 453 b 429 557 544 522 510 557 b 289 453 349 557 301 522 l 257 269 b 360 165 244 200 278 165 b 500 269 440 165 488 200 "},"õ":{"ha":760,"x_min":0,"x_max":0,"o":"m 693 1015 b 718 985 714 1015 722 1006 b 564 819 697 863 653 819 b 403 889 485 819 442 889 b 374 850 388 889 378 876 b 339 819 369 829 358 819 l 276 819 b 251 851 256 819 247 831 b 403 1015 274 972 321 1015 b 504 981 439 1015 472 1004 b 569 946 535 957 557 946 b 599 986 583 946 593 960 b 632 1015 601 1006 613 1015 m 79 457 b 460 743 113 640 244 743 b 740 440 675 743 774 628 l 710 261 b 329 -21 676 78 547 -21 b 49 278 117 -21 15 93 m 533 453 b 429 557 544 522 510 557 b 289 453 349 557 301 522 l 257 269 b 360 165 244 200 278 165 b 500 269 440 165 488 200 "},"ö":{"ha":760,"x_min":0,"x_max":0,"o":"m 369 1004 b 443 915 436 1004 454 982 l 440 900 b 335 813 428 833 401 813 l 325 813 b 251 900 258 813 240 833 l 254 915 b 358 1004 267 982 292 1004 m 656 1004 b 728 915 724 1004 740 982 l 725 900 b 622 813 714 833 689 813 l 613 813 b 538 900 544 813 525 835 l 540 915 b 646 1004 551 982 578 1004 m 79 457 b 460 743 113 640 244 743 b 740 440 675 743 774 628 l 710 261 b 329 -21 676 78 547 -21 b 49 278 117 -21 15 93 m 533 453 b 429 557 544 522 510 557 b 289 453 349 557 301 522 l 257 269 b 360 165 244 200 278 165 b 500 269 440 165 488 200 "},"÷":{"ha":756,"x_min":0,"x_max":0,"o":"m 469 821 b 554 718 547 821 567 796 l 551 703 b 429 600 539 625 508 600 l 401 600 b 315 703 322 600 303 625 l 318 718 b 440 821 333 796 361 821 m 685 551 b 731 494 728 551 738 538 l 717 410 b 650 353 710 367 693 353 l 94 353 b 49 410 54 353 42 367 l 64 494 b 131 551 71 538 88 551 m 379 304 b 464 201 457 304 476 279 l 461 188 b 339 83 446 108 418 83 l 311 83 b 225 188 232 83 213 108 l 228 201 b 350 304 243 279 271 304 "},"ø":{"ha":760,"x_min":0,"x_max":0,"o":"m 761 767 b 767 747 776 767 778 760 l 690 654 b 732 440 735 600 749 528 l 701 261 b 322 -21 668 78 539 -21 b 168 6 263 -21 211 -12 l 136 -32 b 96 -49 126 -43 114 -49 l 22 -49 b 17 -28 7 -49 6 -42 l 89 60 b 40 278 40 111 25 185 l 71 457 b 451 743 104 640 236 743 b 615 711 517 743 571 732 l 647 750 b 685 767 657 761 669 767 m 490 553 b 422 567 475 563 451 567 b 283 463 343 567 296 532 l 251 288 b 249 254 250 281 249 269 m 290 165 b 350 156 310 158 329 156 b 490 260 432 156 478 190 l 521 429 b 524 453 522 436 524 444 "},"ù":{"ha":771,"x_min":0,"x_max":0,"o":"m 403 1015 b 494 1018 428 1039 458 1040 l 669 901 b 663 849 692 886 689 876 l 628 815 b 565 811 615 801 594 800 l 338 900 b 340 956 308 913 311 926 m 731 722 b 772 671 769 722 779 710 l 674 110 b 604 29 664 64 653 47 b 313 -21 518 -4 421 -21 b 65 281 113 -21 32 93 l 133 671 b 194 722 140 710 156 722 l 301 722 b 343 671 340 722 350 710 l 274 274 b 374 169 261 201 292 169 b 465 179 406 169 436 172 b 479 194 474 182 478 188 l 563 671 b 624 722 569 710 585 722 "},"ú":{"ha":771,"x_min":0,"x_max":0,"o":"m 542 1018 b 633 1015 585 1040 615 1039 l 672 956 b 656 900 693 926 690 913 l 397 811 b 335 815 364 800 343 801 l 314 849 b 326 901 297 875 299 889 m 731 722 b 772 671 769 722 779 710 l 674 110 b 604 29 664 64 653 47 b 313 -21 518 -4 421 -21 b 65 281 113 -21 32 93 l 133 671 b 194 722 140 710 156 722 l 301 722 b 343 671 340 722 350 710 l 274 274 b 374 169 261 201 292 169 b 465 179 406 169 436 172 b 479 194 474 182 478 188 l 563 671 b 624 722 569 710 585 722 "},"û":{"ha":771,"x_min":0,"x_max":0,"o":"m 535 1026 b 619 983 578 1026 588 1022 l 729 850 b 699 807 747 828 739 807 l 622 807 b 544 835 574 807 561 811 l 501 896 l 436 836 b 350 807 407 810 396 807 l 263 807 b 247 850 222 807 221 828 l 404 983 b 456 1019 426 1003 443 1015 b 510 1026 467 1024 485 1026 m 731 722 b 772 671 769 722 779 710 l 674 110 b 604 29 664 64 653 47 b 313 -21 518 -4 421 -21 b 65 281 113 -21 32 93 l 133 671 b 194 722 140 710 156 722 l 301 722 b 343 671 340 722 350 710 l 274 274 b 374 169 261 201 292 169 b 465 179 406 169 436 172 b 479 194 474 182 478 188 l 563 671 b 624 722 569 710 585 722 "},"ü":{"ha":771,"x_min":0,"x_max":0,"o":"m 374 1004 b 447 915 442 1004 460 982 l 444 900 b 340 813 433 835 408 813 l 329 813 b 257 900 263 813 244 835 l 260 915 b 364 1004 271 982 296 1004 m 661 1004 b 733 915 728 1004 744 982 l 731 900 b 626 813 718 833 693 813 l 617 813 b 542 900 549 813 531 835 l 544 915 b 651 1004 557 982 583 1004 m 731 722 b 772 671 769 722 779 710 l 674 110 b 604 29 664 64 653 47 b 313 -21 518 -4 421 -21 b 65 281 113 -21 32 93 l 133 671 b 194 722 140 710 156 722 l 301 722 b 343 671 340 722 350 710 l 274 274 b 374 169 261 201 292 169 b 465 179 406 169 436 172 b 479 194 474 182 478 188 l 563 671 b 624 722 569 710 585 722 "},"ý":{"ha":774,"x_min":0,"x_max":0,"o":"m 542 1018 b 633 1015 585 1040 615 1039 l 672 956 b 656 900 694 926 690 913 l 397 811 b 335 815 364 800 343 801 l 314 849 b 326 901 297 875 299 889 m 732 722 b 772 671 769 722 779 710 l 653 -14 b 282 -319 617 -218 493 -319 b 14 -186 143 -319 54 -275 b 49 -106 -4 -151 8 -125 l 128 -68 b 206 -86 172 -47 188 -53 b 310 -139 225 -121 260 -139 b 440 -26 383 -139 426 -101 l 450 31 b 319 21 415 24 371 21 b 74 325 119 21 40 136 l 133 671 b 194 722 140 710 156 722 l 301 722 b 343 671 340 722 350 710 l 281 315 b 382 211 268 246 303 211 b 483 221 414 211 447 214 l 563 671 b 624 722 569 710 585 722 "},"þ":{"ha":760,"x_min":0,"x_max":0,"o":"m 175 975 b 235 1026 182 1014 196 1026 l 343 1026 b 385 975 381 1026 392 1014 l 342 736 b 471 743 383 740 426 743 b 721 446 672 743 756 633 l 690 271 b 318 -21 656 76 532 -21 b 213 -8 286 -21 250 -17 l 168 -254 b 107 -306 161 -293 146 -306 l 0 -306 b -42 -254 -39 -306 -49 -293 m 513 454 b 414 556 525 519 488 556 b 308 544 385 556 349 551 l 244 175 b 335 167 278 169 308 167 b 482 281 418 167 467 204 "},"ÿ":{"ha":774,"x_min":0,"x_max":0,"o":"m 374 1004 b 447 915 442 1004 460 982 l 444 900 b 340 813 433 835 408 813 l 331 813 b 257 900 263 813 244 835 l 260 915 b 364 1004 271 982 296 1004 m 661 1004 b 733 915 728 1004 744 982 l 731 900 b 626 813 718 833 693 813 l 617 813 b 542 900 550 813 531 835 l 544 915 b 651 1004 557 982 583 1004 m 732 722 b 772 671 769 722 779 710 l 653 -14 b 282 -319 617 -218 493 -319 b 14 -186 143 -319 54 -275 b 49 -106 -4 -151 8 -125 l 128 -68 b 206 -86 172 -47 188 -53 b 310 -139 225 -121 260 -139 b 440 -26 383 -139 426 -101 l 450 31 b 319 21 415 24 371 21 b 74 325 119 21 40 136 l 133 671 b 194 722 140 710 156 722 l 301 722 b 343 671 340 722 350 710 l 281 315 b 382 211 268 246 303 211 b 483 221 414 211 447 214 l 563 671 b 624 722 569 710 585 722 "},"Ā":{"ha":931,"x_min":0,"x_max":0,"o":"m 801 1226 b 842 1178 840 1226 849 1217 l 833 1132 b 776 1085 826 1094 815 1085 l 451 1085 b 413 1132 414 1085 406 1094 l 419 1178 b 476 1226 426 1215 442 1226 m 888 56 b 840 0 894 18 878 0 l 743 0 b 649 51 672 0 654 11 l 629 182 l 285 182 l 218 51 b 108 0 197 11 176 0 l 6 0 b -22 56 -33 0 -43 18 l 467 939 b 543 986 485 976 503 986 l 650 986 b 713 942 690 986 706 976 m 568 581 b 565 753 561 640 561 715 l 568 779 l 557 779 b 489 582 544 714 522 647 l 378 365 l 603 365 "},"ā":{"ha":753,"x_min":0,"x_max":0,"o":"m 672 981 b 711 933 710 981 718 971 l 703 888 b 647 839 697 849 685 839 l 322 839 b 282 888 283 839 276 849 l 290 933 b 346 981 297 971 311 981 m 81 463 b 454 743 115 657 233 743 b 711 697 567 743 651 728 b 747 619 751 676 757 665 l 651 72 b 590 11 644 33 631 21 b 306 -21 504 -10 410 -21 b 50 288 106 -21 15 100 m 517 546 b 435 556 492 553 464 556 b 286 442 346 556 301 524 l 256 268 b 356 167 244 200 278 167 b 460 176 393 167 428 169 l 524 535 b 517 546 525 540 524 544 "},"Ă":{"ha":931,"x_min":0,"x_max":0,"o":"m 861 1193 b 608 1053 811 1104 718 1053 b 410 1193 499 1053 426 1104 b 440 1240 406 1217 417 1232 l 518 1268 b 565 1251 550 1278 558 1274 b 635 1197 574 1215 597 1197 b 722 1251 672 1197 701 1215 b 771 1269 738 1274 747 1276 l 844 1240 b 861 1193 871 1229 874 1219 m 888 56 b 840 0 894 18 878 0 l 743 0 b 649 51 672 0 654 11 l 629 182 l 285 182 l 218 51 b 108 0 197 11 176 0 l 6 0 b -22 56 -33 0 -43 18 l 467 939 b 543 986 485 976 503 986 l 650 986 b 713 942 690 986 706 976 m 568 581 b 565 753 561 640 561 715 l 568 779 l 557 779 b 489 582 544 714 522 647 l 378 365 l 603 365 "},"ă":{"ha":753,"x_min":0,"x_max":0,"o":"m 731 949 b 485 807 679 854 597 807 b 281 949 375 807 297 860 b 311 994 275 972 283 985 l 383 1021 b 432 1004 415 1031 422 1026 b 504 951 439 969 464 951 b 593 1006 542 951 571 969 b 640 1024 604 1025 619 1031 l 717 994 b 731 949 739 983 743 975 m 81 463 b 454 743 115 657 233 743 b 711 697 567 743 651 728 b 747 619 751 676 757 665 l 651 72 b 590 11 644 33 631 21 b 306 -21 504 -10 410 -21 b 50 288 106 -21 15 100 m 517 546 b 435 556 492 553 464 556 b 286 442 346 556 301 524 l 256 268 b 356 167 244 200 278 167 b 460 176 393 167 428 169 l 524 535 b 517 546 525 540 524 544 "},"Ą":{"ha":931,"x_min":0,"x_max":0,"o":"m 650 986 b 713 942 690 986 706 976 l 888 56 b 876 10 892 35 888 19 b 761 -169 797 -68 761 -135 b 785 -197 763 -187 771 -197 b 810 -190 794 -197 803 -194 b 839 -199 826 -181 836 -183 l 856 -264 b 846 -300 860 -281 856 -293 b 694 -340 813 -326 763 -340 b 575 -236 626 -340 575 -303 b 728 0 574 -157 624 -79 b 649 51 671 1 654 14 l 629 182 l 285 182 l 218 51 b 108 0 197 11 176 0 l 6 0 b -22 56 -33 0 -43 18 l 467 939 b 543 986 485 976 503 986 m 568 581 b 565 753 561 640 561 715 l 568 779 l 557 779 b 489 582 544 714 522 647 l 378 365 l 603 365 "},"ą":{"ha":754,"x_min":0,"x_max":0,"o":"m 81 463 b 454 743 115 657 233 743 b 711 697 567 743 651 728 b 747 619 751 676 757 665 l 651 72 b 632 31 647 54 642 40 b 513 -169 550 -54 513 -132 b 536 -197 514 -187 522 -197 b 561 -190 546 -197 554 -194 b 592 -199 576 -182 588 -185 l 607 -264 b 597 -300 611 -281 607 -293 b 446 -340 564 -326 514 -340 b 326 -236 378 -340 326 -303 b 465 -12 326 -160 372 -86 b 306 -21 415 -18 363 -21 b 50 288 106 -21 15 100 m 517 546 b 435 556 492 553 464 556 b 286 442 346 556 301 524 l 256 268 b 356 167 244 200 278 167 b 460 176 393 167 428 169 l 524 535 b 517 546 525 540 524 544 "},"Ć":{"ha":889,"x_min":0,"x_max":0,"o":"m 682 1263 b 774 1258 726 1286 757 1285 l 813 1199 b 796 1143 833 1169 829 1156 l 538 1057 b 475 1060 504 1046 483 1047 l 454 1094 b 465 1147 438 1121 439 1135 m 129 647 b 600 1007 169 879 338 1007 b 935 769 793 1007 906 928 b 890 697 942 729 933 710 l 789 664 b 722 699 746 651 732 658 b 567 800 708 767 657 800 b 353 635 443 800 372 744 l 303 351 b 458 186 283 242 335 186 b 651 288 549 186 613 219 b 729 322 674 328 692 338 l 833 282 b 857 210 871 267 878 249 b 425 -21 772 56 629 -21 b 79 364 165 -21 40 129 "},"ć":{"ha":713,"x_min":0,"x_max":0,"o":"m 511 1018 b 603 1015 554 1040 585 1039 l 643 956 b 626 900 664 926 660 913 l 368 811 b 306 815 335 800 314 801 l 283 849 b 296 901 267 875 268 889 m 79 461 b 451 743 113 649 236 743 b 721 558 611 743 700 669 b 676 486 726 518 715 499 l 593 458 b 526 493 550 443 536 453 b 419 563 514 539 479 563 b 289 457 344 563 301 528 l 254 264 b 347 160 242 194 272 160 b 475 231 403 160 446 183 b 553 264 497 269 515 276 l 640 236 b 661 163 676 222 683 197 b 317 -21 590 40 475 -21 b 49 285 104 -21 15 96 "},"Ĉ":{"ha":889,"x_min":0,"x_max":0,"o":"m 675 1269 b 760 1228 719 1269 731 1267 l 869 1093 b 839 1051 888 1072 879 1051 l 758 1051 b 679 1079 713 1051 696 1056 l 638 1140 l 569 1079 b 485 1051 543 1053 531 1051 l 401 1051 b 385 1093 361 1051 358 1072 l 542 1228 b 593 1264 564 1247 581 1260 b 649 1269 604 1268 622 1269 m 129 647 b 600 1007 169 879 338 1007 b 935 769 793 1007 906 928 b 890 697 942 729 933 710 l 789 664 b 722 699 746 651 732 658 b 567 800 708 767 657 800 b 353 635 443 800 372 744 l 303 351 b 458 186 283 242 335 186 b 651 288 549 186 613 219 b 729 322 674 328 692 338 l 833 282 b 857 210 871 267 878 249 b 425 -21 772 56 629 -21 b 79 364 165 -21 40 129 "},"ĉ":{"ha":713,"x_min":0,"x_max":0,"o":"m 232 807 b 217 850 193 807 190 828 l 374 983 b 425 1019 397 1003 414 1015 b 481 1026 436 1024 454 1026 l 506 1026 b 590 983 549 1026 558 1022 l 699 850 b 668 807 719 828 708 807 l 592 807 b 514 835 546 807 531 811 l 472 896 l 406 836 b 319 807 378 810 365 807 m 721 558 b 676 486 726 518 715 499 l 593 458 b 526 493 550 443 536 453 b 419 563 514 539 479 563 b 289 457 344 563 301 528 l 254 264 b 347 160 242 194 272 160 b 475 231 403 160 446 183 b 553 264 497 269 515 276 l 640 236 b 661 163 676 222 683 197 b 317 -21 590 40 475 -21 b 49 285 104 -21 15 96 l 79 461 b 451 743 113 649 236 743 b 721 558 611 743 700 669 "},"Ċ":{"ha":889,"x_min":0,"x_max":0,"o":"m 657 1254 b 733 1163 728 1254 746 1233 l 731 1151 b 624 1060 718 1081 694 1060 l 615 1060 b 539 1151 544 1060 528 1081 l 542 1163 b 649 1254 554 1233 578 1254 m 129 647 b 600 1007 169 879 338 1007 b 935 769 793 1007 906 928 b 890 697 942 729 933 710 l 789 664 b 722 699 746 651 732 658 b 567 800 708 767 657 800 b 353 635 443 800 372 744 l 303 351 b 458 186 283 242 335 186 b 651 288 549 186 613 219 b 729 322 674 328 692 338 l 833 282 b 857 210 871 267 878 249 b 425 -21 772 56 629 -21 b 79 364 165 -21 40 129 "},"ċ":{"ha":713,"x_min":0,"x_max":0,"o":"m 486 1008 b 563 917 557 1008 575 988 l 560 906 b 453 814 549 835 524 814 l 444 814 b 368 906 374 814 357 835 l 371 917 b 478 1008 383 988 407 1008 m 79 461 b 451 743 113 649 236 743 b 721 558 611 743 700 669 b 676 486 726 518 715 499 l 593 458 b 526 493 550 443 536 453 b 419 563 514 539 479 563 b 289 457 344 563 301 528 l 254 264 b 347 160 242 194 272 160 b 475 231 403 160 446 183 b 553 264 497 269 515 276 l 640 236 b 661 163 676 222 683 197 b 317 -21 590 40 475 -21 b 49 285 104 -21 15 96 "},"Č":{"ha":889,"x_min":0,"x_max":0,"o":"m 872 1268 b 886 1225 913 1268 913 1247 l 731 1092 b 629 1049 686 1053 674 1049 l 604 1049 b 515 1092 554 1049 544 1053 l 406 1225 b 435 1268 388 1247 394 1268 l 517 1268 b 592 1240 563 1268 574 1264 l 639 1179 l 701 1239 b 790 1268 728 1265 742 1268 m 129 647 b 600 1007 169 879 338 1007 b 935 769 793 1007 906 928 b 890 697 942 729 933 710 l 789 664 b 722 699 746 651 732 658 b 567 800 708 767 657 800 b 353 635 443 800 372 744 l 303 351 b 458 186 283 242 335 186 b 651 288 549 186 613 219 b 729 322 674 328 692 338 l 833 282 b 857 210 871 267 878 249 b 425 -21 772 56 629 -21 b 79 364 165 -21 40 129 "},"č":{"ha":713,"x_min":0,"x_max":0,"o":"m 236 981 b 264 1024 215 1003 225 1024 l 343 1024 b 418 996 389 1024 401 1019 l 465 935 l 528 994 b 617 1024 554 1021 571 1024 l 701 1024 b 717 981 740 1024 746 1010 l 560 847 b 460 804 515 808 504 804 l 435 804 b 344 847 385 804 374 808 m 451 743 b 721 558 611 743 700 669 b 676 486 726 518 715 499 l 593 458 b 526 493 550 443 536 453 b 419 563 514 539 479 563 b 289 457 344 563 301 528 l 254 264 b 347 160 242 194 272 160 b 475 231 403 160 446 183 b 553 264 497 269 515 276 l 640 236 b 661 163 676 222 683 197 b 317 -21 590 40 475 -21 b 49 285 104 -21 15 96 l 79 461 b 451 743 113 649 236 743 "},"Ď":{"ha":935,"x_min":0,"x_max":0,"o":"m 813 1268 b 825 1225 851 1268 853 1247 l 671 1092 b 569 1049 625 1053 614 1049 l 544 1049 b 454 1092 494 1049 486 1053 l 344 1225 b 375 1268 326 1247 335 1268 l 457 1268 b 532 1240 503 1268 514 1264 l 578 1179 l 642 1239 b 729 1268 668 1265 683 1268 m 574 986 b 857 879 703 986 797 950 b 915 596 917 808 936 714 l 874 357 b 408 0 831 125 669 0 l 75 0 b 28 57 32 0 21 14 l 182 929 b 249 986 192 972 206 986 m 693 613 b 536 781 713 725 660 781 l 381 781 l 279 207 l 435 207 b 651 374 558 207 631 263 "},"ď":{"ha":888,"x_min":0,"x_max":0,"o":"m 82 463 b 432 743 117 656 231 743 b 558 735 472 743 514 740 l 601 976 b 663 1028 608 1015 624 1028 l 771 1028 b 811 976 808 1028 818 1015 l 657 103 b 589 26 647 57 638 44 b 307 -21 507 -6 414 -21 b 51 286 101 -21 17 99 m 990 750 b 935 706 976 719 969 706 l 882 706 b 850 742 854 706 843 718 l 903 974 b 963 1028 913 1018 922 1028 l 1042 1028 b 1086 974 1088 1028 1101 1010 m 525 547 b 435 556 492 553 461 556 b 288 442 347 556 303 524 l 257 268 b 356 167 246 203 282 167 b 457 176 396 167 431 169 b 463 183 458 178 461 179 "},"Đ":{"ha":964,"x_min":0,"x_max":0,"o":"m 597 986 b 881 879 726 986 821 950 b 939 594 940 807 960 713 l 897 356 b 424 0 854 124 694 0 l 97 0 b 51 57 57 0 44 14 l 118 436 l 47 436 b 21 472 21 436 17 443 l 35 546 b 74 581 39 569 51 581 l 144 581 l 206 929 b 271 986 215 972 231 986 m 715 613 b 558 781 738 725 690 781 l 404 781 l 369 581 l 518 581 b 543 546 542 581 549 572 l 531 472 b 492 436 526 444 518 436 l 344 436 l 303 207 l 457 207 b 675 374 581 207 654 263 "},"đ":{"ha":757,"x_min":0,"x_max":0,"o":"m 871 939 b 897 903 894 939 901 931 l 888 850 b 849 815 883 822 875 815 l 785 815 l 658 103 b 590 26 649 57 639 44 b 308 -21 508 -6 415 -21 b 51 283 103 -21 17 94 l 82 458 b 433 743 117 649 233 743 b 560 735 471 743 514 740 l 575 815 l 433 815 b 407 850 407 815 403 822 l 417 903 b 456 939 421 926 433 939 l 596 939 l 603 976 b 664 1028 610 1015 625 1028 l 771 1028 b 813 976 810 1028 819 1015 l 806 939 m 526 547 b 436 556 493 553 463 556 b 289 442 347 556 304 525 l 258 268 b 357 167 246 200 278 167 b 458 176 397 167 432 169 b 464 183 460 178 463 179 "},"Ē":{"ha":811,"x_min":0,"x_max":0,"o":"m 733 1226 b 774 1178 772 1226 781 1217 l 765 1132 b 708 1085 758 1094 747 1085 l 383 1085 b 344 1132 344 1085 338 1094 l 351 1178 b 408 1226 358 1215 374 1226 m 807 986 b 854 929 850 986 861 972 l 838 836 b 771 781 831 796 814 781 l 381 781 l 350 601 l 671 601 b 717 546 711 601 724 589 l 700 453 b 633 396 693 410 676 396 l 313 396 l 279 207 l 683 207 b 729 150 726 207 736 190 l 713 57 b 647 0 706 14 690 0 l 75 0 b 28 57 32 0 21 14 l 182 929 b 249 986 192 972 206 986 "},"ē":{"ha":744,"x_min":0,"x_max":0,"o":"m 317 839 b 276 888 279 839 271 849 l 285 933 b 342 981 292 971 307 981 l 667 981 b 707 933 706 981 714 971 l 699 888 b 642 839 693 849 681 839 m 465 743 b 690 672 563 743 638 719 b 749 482 742 624 761 561 b 413 285 725 350 614 285 b 260 297 374 285 322 289 l 254 261 b 358 151 240 188 275 151 b 506 207 422 151 471 169 b 589 225 538 240 551 246 l 651 188 b 658 106 683 168 685 140 b 328 -21 593 21 482 -21 b 92 71 215 -21 136 10 b 51 304 47 132 33 210 l 81 458 b 465 743 114 642 250 743 m 544 501 b 438 576 551 550 515 576 b 290 465 360 576 306 533 l 286 447 b 421 436 346 440 390 436 b 544 501 494 436 536 458 "},"Ĕ":{"ha":811,"x_min":0,"x_max":0,"o":"m 792 1193 b 540 1053 743 1104 650 1053 b 342 1193 431 1053 358 1104 b 372 1240 338 1217 349 1232 l 450 1268 b 497 1251 479 1278 490 1274 b 565 1197 506 1215 528 1197 b 654 1251 603 1197 633 1215 b 701 1269 669 1274 679 1276 l 776 1240 b 792 1193 803 1229 804 1219 m 807 986 b 854 929 850 986 861 972 l 838 836 b 771 781 831 796 814 781 l 381 781 l 350 601 l 671 601 b 717 546 711 601 724 589 l 700 453 b 633 396 693 410 676 396 l 313 396 l 279 207 l 683 207 b 729 150 726 207 736 190 l 713 57 b 647 0 706 14 690 0 l 75 0 b 28 57 32 0 21 14 l 182 929 b 249 986 192 972 206 986 "},"ĕ":{"ha":744,"x_min":0,"x_max":0,"o":"m 726 949 b 479 807 674 854 592 807 b 275 949 369 807 292 860 b 307 994 271 975 278 985 l 379 1021 b 426 1004 408 1031 419 1026 b 499 951 435 969 458 951 b 589 1006 535 951 565 969 b 635 1024 600 1025 615 1031 l 711 994 b 726 949 735 983 739 975 m 81 458 b 465 743 114 642 250 743 b 690 672 563 743 638 719 b 749 482 742 624 761 561 b 413 285 725 350 614 285 b 260 297 374 285 322 289 l 254 261 b 358 151 240 188 275 151 b 506 207 422 151 471 169 b 589 225 538 240 551 246 l 651 188 b 658 106 683 168 685 140 b 328 -21 593 21 482 -21 b 92 71 215 -21 136 10 b 51 304 47 132 33 210 m 544 501 b 438 576 551 550 515 576 b 290 465 360 576 306 533 l 286 447 b 421 436 346 440 390 436 b 544 501 494 436 536 458 "},"Ė":{"ha":811,"x_min":0,"x_max":0,"o":"m 579 1254 b 656 1163 650 1254 668 1233 l 653 1151 b 546 1060 642 1081 617 1060 l 538 1060 b 463 1151 467 1060 450 1081 l 465 1163 b 571 1254 476 1233 500 1254 m 807 986 b 854 929 850 986 861 972 l 838 836 b 771 781 831 796 814 781 l 381 781 l 350 601 l 671 601 b 717 546 711 601 724 589 l 700 453 b 633 396 693 410 676 396 l 313 396 l 279 207 l 683 207 b 729 150 726 207 736 190 l 713 57 b 647 0 706 14 690 0 l 75 0 b 28 57 32 0 21 14 l 182 929 b 249 986 192 972 206 986 "},"ė":{"ha":744,"x_min":0,"x_max":0,"o":"m 514 1008 b 589 917 585 1008 601 988 l 586 906 b 479 814 575 835 550 814 l 471 814 b 396 906 400 814 383 835 l 399 917 b 506 1008 410 988 433 1008 m 81 458 b 465 743 114 642 250 743 b 690 672 563 743 638 719 b 749 482 742 624 761 561 b 413 285 725 350 614 285 b 260 297 374 285 322 289 l 254 261 b 358 151 240 188 275 151 b 506 207 422 151 471 169 b 589 225 538 240 551 246 l 651 188 b 658 106 683 168 685 140 b 328 -21 593 21 482 -21 b 92 71 215 -21 136 10 b 51 304 47 132 33 210 m 544 501 b 438 576 551 550 515 576 b 290 465 360 576 306 533 l 286 447 b 421 436 346 440 390 436 b 544 501 494 436 536 458 "},"Ę":{"ha":811,"x_min":0,"x_max":0,"o":"m 807 986 b 854 929 850 986 861 972 l 838 836 b 771 781 831 796 814 781 l 381 781 l 350 601 l 671 601 b 717 546 711 601 724 589 l 700 453 b 633 396 693 410 676 396 l 313 396 l 279 207 l 683 207 b 729 150 726 207 736 190 l 713 57 b 690 10 708 39 701 22 b 571 -169 611 -67 571 -126 b 594 -197 572 -187 581 -197 b 619 -190 604 -197 613 -194 b 650 -199 638 -181 647 -183 l 665 -264 b 656 -300 669 -281 665 -293 b 506 -340 622 -326 572 -340 b 385 -236 435 -340 385 -303 b 544 0 385 -160 438 -81 l 75 0 b 28 57 32 0 21 14 l 182 929 b 249 986 192 972 206 986 "},"ę":{"ha":746,"x_min":0,"x_max":0,"o":"m 81 458 b 465 743 114 642 250 743 b 690 672 563 743 638 719 b 749 482 742 624 761 561 b 413 285 725 350 614 285 b 260 297 374 285 322 289 l 254 261 b 358 151 240 188 275 151 b 506 207 422 151 471 169 b 589 225 538 240 551 246 l 651 188 b 658 106 683 168 685 140 b 626 72 643 88 632 76 b 468 -169 519 -47 467 -128 b 490 -197 468 -187 475 -197 b 515 -190 500 -197 508 -194 b 546 -199 533 -181 543 -183 l 563 -264 b 551 -300 567 -279 563 -292 b 401 -340 518 -326 468 -340 b 283 -236 333 -340 283 -303 b 414 -15 283 -161 326 -87 b 328 -21 381 -19 351 -21 b 92 71 215 -21 136 10 b 51 304 47 132 33 210 m 421 436 b 544 501 494 436 536 458 b 438 576 551 550 515 576 b 290 465 360 576 306 533 l 286 447 b 421 436 346 440 390 436 "},"Ě":{"ha":811,"x_min":0,"x_max":0,"o":"m 794 1268 b 808 1225 835 1268 836 1247 l 653 1092 b 551 1049 608 1053 596 1049 l 526 1049 b 438 1092 476 1049 469 1053 l 328 1225 b 357 1268 310 1247 318 1268 l 439 1268 b 515 1240 485 1268 494 1264 l 561 1179 l 624 1239 b 713 1268 650 1265 667 1268 m 807 986 b 854 929 850 986 861 972 l 838 836 b 771 781 831 796 814 781 l 381 781 l 350 601 l 671 601 b 717 546 711 601 724 589 l 700 453 b 633 396 693 410 676 396 l 313 396 l 279 207 l 683 207 b 729 150 726 207 736 190 l 713 57 b 647 0 706 14 690 0 l 75 0 b 28 57 32 0 21 14 l 182 929 b 249 986 192 972 206 986 "},"ě":{"ha":744,"x_min":0,"x_max":0,"o":"m 263 981 b 292 1024 244 1003 251 1024 l 369 1024 b 444 996 415 1024 428 1019 l 492 935 l 554 994 b 643 1024 581 1021 597 1024 l 728 1024 b 743 981 768 1024 769 1003 l 586 847 b 486 804 542 808 531 804 l 461 804 b 371 847 411 804 403 808 m 465 743 b 690 672 563 743 638 719 b 749 482 742 624 761 561 b 413 285 725 350 614 285 b 260 297 374 285 322 289 l 254 261 b 358 151 240 188 275 151 b 506 207 422 151 471 169 b 589 225 538 240 551 246 l 651 188 b 658 106 683 168 685 140 b 328 -21 593 21 482 -21 b 92 71 215 -21 136 10 b 51 304 47 132 33 210 l 81 458 b 465 743 114 642 250 743 m 544 501 b 438 576 551 550 515 576 b 290 465 360 576 306 533 l 286 447 b 421 436 346 440 390 436 b 544 501 494 436 536 458 "},"Ĝ":{"ha":925,"x_min":0,"x_max":0,"o":"m 671 1283 b 754 1242 714 1283 725 1281 l 864 1107 b 835 1065 882 1086 874 1065 l 753 1065 b 675 1093 707 1065 692 1069 l 633 1154 l 565 1093 b 481 1065 538 1067 526 1065 l 396 1065 b 381 1107 356 1065 353 1086 l 536 1242 b 589 1278 560 1261 576 1274 b 643 1283 600 1282 618 1283 m 875 557 b 922 500 918 557 929 543 l 886 294 b 422 -21 853 100 682 -21 b 140 86 293 -21 200 15 b 79 369 81 157 60 251 l 129 650 b 601 1007 169 883 336 1007 b 936 771 793 1007 904 928 b 893 699 946 731 936 711 l 789 665 b 722 700 746 653 732 660 b 565 800 708 767 656 800 b 353 635 442 800 371 744 l 301 351 b 457 186 282 242 333 186 b 665 307 572 186 653 236 l 674 357 l 504 357 b 457 414 461 357 450 371 l 472 500 b 539 557 479 543 496 557 "},"ĝ":{"ha":756,"x_min":0,"x_max":0,"o":"m 264 807 b 249 850 222 807 226 828 l 406 983 b 457 1019 429 1003 446 1015 b 513 1026 468 1024 486 1026 l 538 1026 b 622 983 581 1026 590 1022 l 731 850 b 700 807 751 828 740 807 l 624 807 b 546 835 578 807 563 811 l 504 896 l 438 836 b 351 807 410 810 397 807 m 710 697 b 747 619 750 676 757 665 l 635 -21 b 271 -321 600 -221 478 -321 b -4 -186 129 -321 38 -276 b 32 -106 -21 -151 -8 -125 l 111 -68 b 188 -86 154 -47 169 -53 b 293 -139 207 -121 242 -139 b 424 -26 367 -139 410 -101 l 435 33 b 310 19 390 24 349 19 b 56 329 110 19 22 142 l 81 465 b 454 743 115 660 232 743 b 710 697 567 743 653 728 m 522 538 b 518 546 524 542 522 544 b 433 556 492 553 464 556 b 286 442 350 556 301 518 l 263 308 b 361 207 251 240 285 207 b 467 217 397 207 432 210 "},"Ğ":{"ha":925,"x_min":0,"x_max":0,"o":"m 865 1207 b 613 1067 815 1118 722 1067 b 414 1207 503 1067 431 1118 b 444 1254 410 1231 421 1246 l 522 1282 b 569 1265 554 1292 563 1288 b 639 1211 578 1229 601 1211 b 726 1265 676 1211 706 1229 b 775 1283 742 1288 751 1290 l 849 1254 b 865 1207 875 1243 878 1233 m 875 557 b 922 500 918 557 929 543 l 886 294 b 422 -21 853 100 682 -21 b 140 86 293 -21 200 15 b 79 369 81 157 60 251 l 129 650 b 601 1007 169 883 336 1007 b 936 771 793 1007 904 928 b 893 699 946 731 936 711 l 789 665 b 722 700 746 653 732 660 b 565 800 708 767 656 800 b 353 635 442 800 371 744 l 301 351 b 457 186 282 242 333 186 b 665 307 572 186 653 236 l 674 357 l 504 357 b 457 414 461 357 450 371 l 472 500 b 539 557 479 543 496 557 "},"ğ":{"ha":756,"x_min":0,"x_max":0,"o":"m 731 949 b 485 807 679 854 597 807 b 281 949 375 807 297 860 b 311 994 276 971 288 986 l 383 1021 b 432 1004 415 1031 422 1026 b 504 951 439 969 464 951 b 594 1006 540 951 571 969 b 640 1024 606 1025 621 1031 l 717 994 b 731 949 740 983 743 975 m 81 465 b 454 743 115 660 232 743 b 710 697 567 743 653 728 b 747 619 750 676 757 665 l 635 -21 b 271 -321 600 -221 478 -321 b -4 -186 129 -321 38 -276 b 32 -106 -21 -151 -8 -125 l 111 -68 b 188 -86 154 -47 169 -53 b 293 -139 207 -121 242 -139 b 424 -26 367 -139 410 -101 l 435 33 b 310 19 390 24 349 19 b 56 329 110 19 22 142 m 518 546 b 433 556 492 553 464 556 b 286 442 350 556 301 518 l 263 308 b 361 207 251 240 285 207 b 467 217 397 207 432 210 l 522 538 b 518 546 524 542 522 544 "},"Ġ":{"ha":925,"x_min":0,"x_max":0,"o":"m 653 1268 b 728 1176 724 1268 740 1247 l 725 1165 b 618 1074 714 1094 689 1074 l 610 1074 b 535 1165 539 1074 522 1094 l 538 1176 b 644 1268 549 1247 572 1268 m 875 557 b 922 500 918 557 929 543 l 886 294 b 422 -21 853 100 682 -21 b 140 86 293 -21 200 15 b 79 369 81 157 60 251 l 129 650 b 601 1007 169 883 336 1007 b 936 771 793 1007 904 928 b 893 699 946 731 936 711 l 789 665 b 722 700 746 653 732 660 b 565 800 708 767 656 800 b 353 635 442 800 371 744 l 301 351 b 457 186 282 242 333 186 b 665 307 572 186 653 236 l 674 357 l 504 357 b 457 414 461 357 450 371 l 472 500 b 539 557 479 543 496 557 "},"ġ":{"ha":756,"x_min":0,"x_max":0,"o":"m 518 1008 b 594 917 590 1008 607 988 l 592 906 b 485 814 581 835 556 814 l 476 814 b 401 906 406 814 389 835 l 404 917 b 510 1008 415 988 439 1008 m 81 465 b 454 743 115 660 232 743 b 710 697 567 743 653 728 b 747 619 750 676 757 665 l 635 -21 b 271 -321 600 -221 478 -321 b -4 -186 129 -321 38 -276 b 32 -106 -21 -151 -8 -125 l 111 -68 b 188 -86 154 -47 169 -53 b 293 -139 207 -121 242 -139 b 424 -26 367 -139 410 -101 l 435 33 b 310 19 390 24 349 19 b 56 329 110 19 22 142 m 518 546 b 433 556 492 553 464 556 b 286 442 350 556 301 518 l 263 308 b 361 207 251 240 285 207 b 467 217 397 207 432 210 l 522 538 b 518 546 524 542 522 544 "},"Ģ":{"ha":925,"x_min":0,"x_max":0,"o":"m 875 557 b 922 500 918 557 929 543 l 886 294 b 422 -21 853 100 682 -21 b 140 86 293 -21 200 15 b 79 369 81 157 60 251 l 129 650 b 601 1007 169 883 336 1007 b 936 771 793 1007 904 928 b 893 699 946 731 936 711 l 789 665 b 722 700 746 653 732 660 b 565 800 708 767 656 800 b 353 635 442 800 371 744 l 301 351 b 457 186 282 242 333 186 b 665 307 572 186 653 236 l 674 357 l 504 357 b 457 414 461 357 450 371 l 472 500 b 539 557 479 543 496 557 m 426 -315 b 358 -361 411 -346 389 -361 l 289 -361 b 264 -325 260 -361 254 -351 l 319 -129 b 389 -75 331 -89 346 -75 l 486 -74 b 525 -129 532 -74 544 -92 "},"ģ":{"ha":756,"x_min":0,"x_max":0,"o":"m 467 1008 b 533 1050 488 1043 494 1050 l 590 1050 b 626 1011 624 1050 633 1040 l 581 863 b 514 804 565 817 557 804 l 429 804 b 386 863 383 804 369 824 m 81 465 b 454 743 115 660 232 743 b 710 697 567 743 653 728 b 747 619 750 676 757 665 l 635 -21 b 271 -321 600 -221 478 -321 b -4 -186 129 -321 38 -276 b 32 -106 -21 -151 -8 -125 l 111 -68 b 188 -86 154 -47 169 -53 b 293 -139 207 -121 242 -139 b 424 -26 367 -139 410 -101 l 435 33 b 310 19 390 24 349 19 b 56 329 110 19 22 142 m 518 546 b 433 556 492 553 464 556 b 286 442 350 556 301 518 l 263 308 b 361 207 251 240 285 207 b 467 217 397 207 432 210 l 522 538 b 518 546 524 542 522 544 "},"Ĥ":{"ha":960,"x_min":0,"x_max":0,"o":"m 654 1269 b 739 1228 699 1269 710 1267 l 849 1093 b 818 1051 867 1072 858 1051 l 738 1051 b 658 1079 692 1051 675 1056 l 618 1140 l 550 1079 b 464 1051 522 1053 510 1051 l 381 1051 b 365 1093 340 1051 338 1072 l 521 1228 b 572 1264 543 1247 560 1260 b 628 1269 583 1268 601 1269 m 922 986 b 968 929 965 986 975 972 l 814 57 b 749 0 807 14 792 0 l 636 0 b 589 57 593 0 582 14 l 649 396 l 314 396 l 254 57 b 188 0 247 14 231 0 l 75 0 b 28 57 32 0 21 14 l 182 929 b 249 986 189 972 206 986 l 361 986 b 407 929 404 986 414 972 l 350 603 l 686 603 l 743 929 b 810 986 753 972 767 986 "},"ĥ":{"ha":774,"x_min":0,"x_max":0,"o":"m 85 1094 b 69 1136 44 1094 43 1115 l 226 1271 b 276 1307 247 1290 264 1303 b 332 1313 288 1311 306 1313 l 357 1313 b 442 1271 401 1313 413 1310 l 551 1136 b 521 1094 569 1115 561 1094 l 444 1094 b 367 1122 396 1094 382 1099 l 324 1183 l 258 1122 b 172 1094 229 1096 218 1094 m 472 743 b 719 446 671 743 753 631 l 651 51 b 590 0 644 13 629 0 l 482 0 b 440 51 444 0 433 13 l 510 449 b 411 553 524 518 490 553 b 314 543 372 553 328 547 l 307 542 l 221 51 b 161 0 214 13 199 0 l 53 0 b 11 51 14 0 4 13 l 174 976 b 235 1028 181 1015 196 1028 l 343 1028 b 383 976 381 1028 390 1015 l 342 733 l 350 733 b 472 743 368 738 419 743 "},"Ħ":{"ha":982,"x_min":0,"x_max":0,"o":"m 1022 860 b 1049 825 1049 860 1054 851 l 1038 769 b 1000 735 1033 742 1026 735 l 944 735 l 825 57 b 758 0 818 14 801 0 l 646 0 b 599 57 603 0 592 14 l 658 396 l 324 396 l 264 57 b 197 0 257 14 240 0 l 85 0 b 39 57 42 0 32 14 l 158 735 l 104 735 b 78 769 78 735 74 742 l 88 825 b 126 860 92 849 106 860 l 181 860 l 192 929 b 258 986 199 972 215 986 l 371 986 b 418 929 414 986 425 972 l 407 860 l 742 860 l 753 929 b 819 986 760 972 776 986 l 932 986 b 979 929 975 986 986 972 l 967 860 m 383 735 l 361 603 l 696 603 l 719 735 "},"ħ":{"ha":774,"x_min":0,"x_max":0,"o":"m 342 733 l 350 733 b 472 743 368 738 419 743 b 719 446 671 743 753 631 l 651 51 b 590 0 644 13 629 0 l 482 0 b 440 51 444 0 433 13 l 510 449 b 411 553 524 518 490 553 b 314 543 372 553 328 547 l 307 542 l 221 51 b 161 0 214 13 199 0 l 53 0 b 11 51 14 0 4 13 l 146 817 l 93 817 b 67 851 67 817 61 824 l 75 900 b 114 936 79 924 92 936 l 167 936 l 174 976 b 235 1028 181 1015 196 1028 l 343 1028 b 383 976 381 1028 390 1015 l 376 936 l 536 936 b 564 900 563 936 568 928 l 556 851 b 517 817 550 824 543 817 l 356 817 "},"Ĩ":{"ha":399,"x_min":0,"x_max":0,"o":"m 536 1256 b 563 1224 558 1256 567 1244 b 408 1060 540 1103 496 1060 b 313 1094 374 1060 342 1071 b 246 1129 282 1118 260 1129 b 217 1089 232 1129 222 1115 b 183 1060 213 1069 201 1060 l 121 1060 b 96 1090 100 1060 92 1069 b 246 1256 117 1211 164 1256 b 347 1221 283 1256 317 1244 b 413 1186 378 1197 400 1186 b 442 1225 428 1186 438 1199 b 475 1256 446 1246 457 1256 m 182 931 b 247 986 192 974 207 986 l 361 986 b 407 931 404 986 414 971 l 253 56 b 188 0 246 15 231 0 l 74 0 b 28 56 33 0 21 13 "},"ĩ":{"ha":350,"x_min":0,"x_max":0,"o":"m 449 1025 b 468 993 465 1025 472 1014 b 324 829 447 871 400 829 b 254 860 299 829 275 839 b 206 890 233 881 217 890 b 171 857 185 890 174 879 b 142 826 167 836 157 826 l 72 826 b 51 858 54 826 47 838 b 196 1025 72 969 119 1025 b 326 957 275 1025 286 957 b 357 996 342 957 353 969 b 385 1025 360 1015 369 1025 m 289 722 b 329 671 326 722 336 710 l 221 51 b 161 0 214 13 199 0 l 53 0 b 11 51 14 0 4 13 l 119 671 b 181 722 126 710 142 722 "},"Ī":{"ha":399,"x_min":0,"x_max":0,"o":"m 510 1226 b 550 1178 549 1226 557 1217 l 542 1132 b 486 1085 535 1094 524 1085 l 160 1085 b 121 1132 122 1085 114 1094 l 129 1178 b 185 1226 136 1215 150 1226 m 182 931 b 247 986 192 974 207 986 l 361 986 b 407 931 404 986 414 971 l 253 56 b 188 0 246 15 231 0 l 74 0 b 28 56 33 0 21 13 "},"ī":{"ha":350,"x_min":0,"x_max":0,"o":"m 397 972 b 421 926 424 972 428 964 l 413 882 b 374 835 407 844 400 835 l 119 835 b 96 882 96 835 90 844 l 104 926 b 143 972 111 964 121 972 m 289 722 b 329 671 326 722 336 710 l 221 51 b 161 0 214 13 199 0 l 53 0 b 11 51 14 0 4 13 l 119 671 b 181 722 126 710 142 722 "},"Ĭ":{"ha":399,"x_min":0,"x_max":0,"o":"m 569 1193 b 318 1053 521 1104 428 1053 b 118 1193 208 1053 135 1104 b 149 1240 114 1215 125 1231 l 226 1268 b 274 1251 258 1278 267 1274 b 343 1197 282 1215 306 1197 b 431 1251 381 1197 410 1215 b 479 1269 443 1269 460 1276 l 554 1240 b 569 1193 578 1229 582 1219 m 182 931 b 247 986 192 974 207 986 l 361 986 b 407 931 404 986 414 971 l 253 56 b 188 0 246 15 231 0 l 74 0 b 28 56 33 0 21 13 "},"ĭ":{"ha":350,"x_min":0,"x_max":0,"o":"m 475 994 b 490 949 499 983 503 975 b 254 807 438 854 358 807 b 63 949 147 807 78 860 b 93 994 57 972 65 985 l 169 1022 b 218 1006 199 1032 211 1029 b 275 954 225 971 244 954 b 353 1006 306 954 332 971 b 399 1024 365 1026 381 1032 m 289 722 b 329 671 326 722 336 710 l 221 51 b 161 0 214 13 199 0 l 53 0 b 11 51 14 0 4 13 l 119 671 b 181 722 126 710 142 722 "},"Į":{"ha":399,"x_min":0,"x_max":0,"o":"m 211 -256 b 201 -292 215 -271 211 -282 b 51 -340 158 -324 108 -340 b -68 -249 -28 -340 -68 -310 b 75 0 -69 -172 -19 -79 b 25 58 24 0 15 14 l 178 931 b 243 986 188 974 203 986 l 357 986 b 403 931 400 986 410 971 l 249 56 b 226 7 244 32 238 17 b 118 -172 150 -64 118 -135 b 140 -197 119 -189 128 -197 b 167 -190 150 -197 158 -194 b 196 -199 183 -181 193 -183 "},"į":{"ha":350,"x_min":0,"x_max":0,"o":"m 235 788 b 154 886 158 788 142 813 l 156 900 b 274 999 168 974 197 999 l 301 999 b 382 900 378 999 397 974 l 381 886 b 264 788 365 810 338 788 m 204 -256 b 193 -292 207 -271 203 -283 b 50 -340 150 -324 103 -340 b -71 -250 -26 -340 -67 -310 b 58 0 -78 -182 -35 -99 b 15 53 19 0 8 14 l 124 671 b 185 722 131 710 146 722 l 293 722 b 333 671 331 722 340 710 l 225 51 b 206 11 221 31 214 18 b 117 -172 143 -62 114 -124 b 139 -197 117 -189 124 -197 b 163 -192 149 -197 156 -196 b 193 -200 178 -183 189 -186 "},"İ":{"ha":399,"x_min":0,"x_max":0,"o":"m 357 1254 b 433 1163 428 1254 444 1233 l 431 1151 b 322 1060 418 1081 393 1060 l 314 1060 b 239 1151 243 1060 226 1081 l 242 1163 b 349 1254 253 1233 278 1254 m 182 931 b 247 986 192 974 207 986 l 361 986 b 407 931 404 986 414 971 l 253 56 b 188 0 246 15 231 0 l 74 0 b 28 56 33 0 21 13 "},"ı":{"ha":350,"x_min":0,"x_max":0,"o":"m 289 722 b 329 671 326 722 336 710 l 221 51 b 161 0 214 13 199 0 l 53 0 b 11 51 14 0 4 13 l 119 671 b 181 722 126 710 142 722 "},"Ĳ":{"ha":1208,"x_min":0,"x_max":0,"o":"m 182 931 b 247 986 192 974 207 986 l 361 986 b 407 931 404 986 414 971 l 253 56 b 188 0 246 15 231 0 l 74 0 b 28 56 33 0 21 13 m 1179 986 b 1225 931 1219 986 1232 974 l 1115 311 b 703 -21 1076 90 939 -21 b 388 204 521 -21 417 54 b 433 276 381 244 390 264 l 536 311 b 601 276 579 324 592 317 b 728 185 618 215 660 185 b 894 333 821 185 876 235 l 999 931 b 1064 986 1008 974 1024 986 "},"ĳ":{"ha":696,"x_min":0,"x_max":0,"o":"m 297 999 b 378 900 374 999 393 974 l 376 886 b 260 788 361 810 333 788 l 231 788 b 150 886 154 788 138 813 l 151 900 b 269 999 164 974 193 999 m 643 999 b 724 900 719 999 736 974 l 722 886 b 606 788 707 810 679 788 l 576 788 b 496 886 500 788 483 813 l 497 900 b 614 999 513 976 540 999 m 289 722 b 329 671 326 722 336 710 l 221 51 b 161 0 214 13 199 0 l 53 0 b 11 51 14 0 4 13 l 119 671 b 181 722 126 710 142 722 m 632 722 b 675 671 672 722 682 710 l 556 -11 b 165 -319 518 -217 389 -319 b 121 -267 125 -319 114 -307 l 136 -181 b 199 -129 143 -142 158 -129 b 347 -1 283 -129 332 -86 l 465 671 b 528 722 472 710 488 722 "},"Ĵ":{"ha":804,"x_min":0,"x_max":0,"o":"m 788 1269 b 871 1228 831 1269 842 1267 l 981 1093 b 951 1051 999 1072 992 1051 l 871 1051 b 792 1079 822 1051 808 1056 l 750 1140 l 682 1079 b 597 1051 654 1053 643 1051 l 513 1051 b 497 1093 474 1051 469 1072 l 653 1228 b 706 1264 676 1247 693 1260 b 760 1269 717 1268 735 1269 m 775 986 b 819 931 815 986 826 971 l 711 311 b 299 -21 671 89 538 -21 b -17 204 117 -21 13 54 b 28 276 -24 244 -15 264 l 131 311 b 197 276 174 324 188 317 b 324 185 214 215 256 185 b 489 333 417 185 472 235 l 594 931 b 660 986 604 974 617 986 "},"ĵ":{"ha":350,"x_min":0,"x_max":0,"o":"m 299 1019 b 382 978 342 1019 350 1015 l 489 847 b 458 806 507 825 499 806 l 385 806 b 308 832 339 806 324 810 l 267 892 l 201 833 b 118 806 174 807 163 806 l 33 806 b 17 847 -6 806 -11 819 l 171 978 b 221 1013 193 996 210 1008 b 275 1019 232 1017 250 1019 m 288 722 b 329 671 326 722 336 710 l 210 -11 b -181 -319 172 -217 43 -319 b -224 -267 -219 -319 -231 -306 l -210 -181 b -147 -129 -203 -142 -186 -129 b 1 -1 -62 -129 -14 -86 l 119 671 b 182 722 126 710 142 722 "},"Ķ":{"ha":890,"x_min":0,"x_max":0,"o":"m 811 60 b 771 0 826 26 811 0 l 660 0 b 556 51 588 0 568 8 l 472 315 b 350 399 450 381 428 399 l 314 399 l 253 57 b 188 0 246 14 231 0 l 75 0 b 28 57 32 0 21 14 l 182 929 b 249 986 192 972 206 986 l 361 986 b 407 929 404 986 414 972 l 349 601 l 371 601 l 386 601 l 690 939 b 739 978 708 960 725 972 b 808 986 751 983 775 986 l 931 986 b 950 931 969 986 976 960 l 588 539 b 693 399 635 513 669 465 m 374 -315 b 307 -361 357 -349 340 -361 l 238 -361 b 211 -325 208 -361 201 -351 l 268 -129 b 336 -75 279 -89 296 -75 l 435 -74 b 472 -129 481 -74 493 -92 "},"ķ":{"ha":743,"x_min":0,"x_max":0,"o":"m 657 63 b 610 0 672 18 660 0 l 517 0 b 433 47 457 0 444 7 l 389 225 b 310 281 379 263 353 281 l 261 281 l 221 53 b 158 0 214 13 199 0 l 54 0 b 11 53 14 0 4 13 l 174 975 b 236 1028 181 1015 196 1028 l 340 1028 b 383 975 381 1028 390 1015 l 293 460 l 322 460 l 331 460 l 526 681 b 632 722 558 718 572 722 l 725 722 b 749 661 776 722 785 701 l 518 406 b 578 307 542 388 563 354 m 325 -275 b 253 -321 304 -312 290 -321 l 194 -321 b 165 -283 161 -321 156 -312 l 208 -125 b 286 -65 221 -79 240 -65 l 371 -65 b 403 -125 414 -65 425 -85 "},"ĸ":{"ha":764,"x_min":0,"x_max":0,"o":"m 615 63 b 560 0 628 21 610 0 l 467 0 b 379 43 406 0 392 6 l 314 243 l 229 169 l 192 54 b 121 0 179 14 161 0 l 18 0 b -18 54 -22 0 -31 11 l 179 669 b 250 722 192 710 210 722 l 353 722 b 389 669 393 722 401 710 l 319 468 l 571 682 b 682 722 610 717 625 722 l 786 722 b 799 663 839 722 843 703 l 496 401 "},"Ĺ":{"ha":740,"x_min":0,"x_max":0,"o":"m 382 1263 b 474 1258 425 1285 456 1283 l 513 1199 b 496 1143 533 1169 529 1156 l 238 1057 b 175 1060 203 1046 182 1047 l 154 1094 b 165 1147 138 1121 139 1135 m 361 986 b 407 929 404 986 414 972 l 281 207 l 639 207 b 685 150 682 207 692 190 l 669 57 b 603 0 663 14 646 0 l 75 0 b 28 57 32 0 21 14 l 182 929 b 249 986 192 972 206 986 "},"ĺ":{"ha":356,"x_min":0,"x_max":0,"o":"m 356 1293 b 440 1286 396 1314 424 1311 l 481 1218 b 464 1163 499 1189 499 1174 l 221 1085 b 158 1088 188 1072 167 1074 l 135 1129 b 147 1182 118 1156 121 1169 m 224 51 b 163 0 217 13 201 0 l 56 0 b 14 51 17 0 7 13 l 176 976 b 238 1028 183 1015 199 1028 l 344 1028 b 386 976 383 1028 393 1015 "},"Ļ":{"ha":740,"x_min":0,"x_max":0,"o":"m 361 986 b 407 929 404 986 414 972 l 281 207 l 639 207 b 685 150 682 207 692 190 l 669 57 b 603 0 663 14 646 0 l 75 0 b 28 57 32 0 21 14 l 182 929 b 249 986 192 972 206 986 m 314 -315 b 246 -361 299 -346 276 -361 l 176 -361 b 150 -325 147 -361 140 -351 l 207 -129 b 276 -75 218 -89 233 -75 l 374 -74 b 411 -129 419 -74 432 -92 "},"ļ":{"ha":356,"x_min":0,"x_max":0,"o":"m 222 51 b 161 0 215 13 200 0 l 54 0 b 13 51 15 0 6 13 l 175 976 b 236 1028 182 1015 197 1028 l 343 1028 b 385 976 382 1028 392 1015 m 99 -282 b 24 -329 81 -319 63 -329 l -36 -329 b -64 -290 -68 -329 -74 -319 l -14 -118 b 63 -60 -1 -72 17 -60 l 149 -60 b 182 -118 192 -60 203 -79 "},"Ľ":{"ha":746,"x_min":0,"x_max":0,"o":"m 361 986 b 407 929 404 986 414 972 l 281 207 l 639 207 b 685 150 682 207 692 190 l 669 57 b 603 0 663 14 646 0 l 75 0 b 28 57 32 0 21 14 l 182 929 b 249 986 192 972 206 986 m 640 711 b 575 665 624 676 610 665 l 519 665 b 494 700 492 665 488 672 l 561 933 b 629 986 574 974 589 986 l 721 986 b 758 933 764 986 776 968 "},"ľ":{"ha":393,"x_min":0,"x_max":0,"o":"m 224 51 b 163 0 217 13 201 0 l 56 0 b 14 51 17 0 7 13 l 176 976 b 238 1028 183 1015 199 1028 l 344 1028 b 386 976 383 1028 393 1015 m 568 783 b 510 739 551 749 543 739 l 456 739 b 428 782 429 739 419 753 l 486 975 b 546 1028 499 1015 507 1028 l 622 1028 b 667 975 671 1028 685 1010 "},"Ŀ":{"ha":743,"x_min":0,"x_max":0,"o":"m 361 986 b 407 929 404 986 414 972 l 281 207 l 639 207 b 685 150 682 207 692 190 l 669 57 b 603 0 663 14 646 0 l 75 0 b 28 57 32 0 21 14 l 182 929 b 249 986 192 972 206 986 m 579 665 b 664 563 657 665 676 640 l 660 536 b 539 433 644 458 617 433 l 515 433 b 431 536 438 433 418 458 l 435 563 b 557 665 450 640 478 665 "},"ŀ":{"ha":597,"x_min":0,"x_max":0,"o":"m 224 51 b 163 0 217 13 201 0 l 56 0 b 14 51 17 0 7 13 l 176 976 b 238 1028 183 1015 199 1028 l 344 1028 b 386 976 383 1028 393 1015 m 532 642 b 618 538 611 642 631 617 l 614 511 b 490 406 599 432 569 406 l 467 406 b 381 511 388 406 365 432 l 385 538 b 508 642 397 617 429 642 "},"Ł":{"ha":783,"x_min":0,"x_max":0,"o":"m 689 207 b 735 150 732 207 742 190 l 718 57 b 653 0 711 14 696 0 l 125 0 b 78 57 82 0 71 14 l 129 346 l 65 319 b 14 336 39 307 21 313 l -7 397 b 18 446 -14 421 -6 436 l 157 504 l 232 929 b 299 986 242 972 256 986 l 411 986 b 457 929 454 986 464 972 l 400 604 l 588 683 b 640 665 615 693 633 688 l 660 603 b 633 556 667 579 658 564 l 372 447 l 329 207 "},"ł":{"ha":499,"x_min":0,"x_max":0,"o":"m 535 610 b 514 561 544 588 538 571 l 378 493 l 299 51 b 239 0 292 13 276 0 l 131 0 b 89 51 92 0 82 13 l 147 381 l 99 357 b 44 371 71 343 53 347 l 22 428 b 44 476 14 449 21 465 l 175 540 l 251 976 b 313 1028 258 1015 274 1028 l 421 1028 b 461 976 458 1028 468 1015 l 406 653 l 460 679 b 513 665 492 694 503 689 "},"Ń":{"ha":974,"x_min":0,"x_max":0,"o":"m 671 1263 b 763 1258 714 1285 744 1283 l 801 1199 b 785 1143 819 1169 819 1154 l 525 1057 b 463 1060 492 1046 471 1047 l 443 1094 b 454 1147 425 1121 428 1132 m 935 986 b 982 929 978 986 989 972 l 828 57 b 761 0 821 14 804 0 l 650 0 b 601 26 626 0 610 8 l 403 440 b 333 700 368 514 344 600 l 322 700 b 307 389 329 596 325 492 l 249 57 b 182 0 242 14 225 0 l 75 0 b 28 57 32 0 21 14 l 182 929 b 249 986 192 972 206 986 l 356 986 b 410 960 382 986 400 978 l 613 539 b 671 361 640 481 661 403 b 683 290 676 332 683 292 l 693 290 b 703 597 681 388 683 490 l 763 929 b 828 986 769 972 785 986 "},"ń":{"ha":771,"x_min":0,"x_max":0,"o":"m 514 1018 b 606 1015 557 1040 588 1039 l 646 956 b 629 900 667 926 663 913 l 371 811 b 307 815 338 800 317 801 l 286 849 b 299 901 269 875 271 889 m 176 693 b 469 743 264 726 363 743 b 717 443 668 743 750 631 l 649 51 b 588 0 642 13 626 0 l 479 0 b 438 51 442 0 431 13 l 507 449 b 408 553 519 518 488 553 b 308 540 372 553 339 549 b 303 535 307 540 304 539 l 218 51 b 158 0 211 13 196 0 l 50 0 b 8 51 11 0 1 13 l 107 613 b 176 693 117 658 128 675 "},"Ņ":{"ha":974,"x_min":0,"x_max":0,"o":"m 935 986 b 982 929 978 986 989 972 l 828 57 b 761 0 821 14 804 0 l 650 0 b 601 26 626 0 610 8 l 403 440 b 333 700 368 514 344 600 l 322 700 b 307 389 329 596 325 492 l 249 57 b 182 0 242 14 225 0 l 75 0 b 28 57 32 0 21 14 l 182 929 b 249 986 192 972 206 986 l 356 986 b 410 960 382 986 400 978 l 613 539 b 671 361 640 481 661 403 b 683 290 676 332 683 292 l 693 290 b 703 597 681 388 683 490 l 763 929 b 828 986 769 972 785 986 m 417 -315 b 350 -361 401 -346 379 -361 l 281 -361 b 254 -325 251 -361 244 -351 l 310 -129 b 379 -75 321 -89 336 -75 l 476 -74 b 515 -129 522 -74 535 -92 "},"ņ":{"ha":771,"x_min":0,"x_max":0,"o":"m 176 693 b 469 743 264 726 363 743 b 717 443 668 743 750 631 l 649 51 b 588 0 642 13 626 0 l 479 0 b 438 51 442 0 431 13 l 507 449 b 408 553 519 518 488 553 b 308 540 372 553 339 549 b 303 535 307 540 304 539 l 218 51 b 158 0 211 13 196 0 l 50 0 b 8 51 11 0 1 13 l 107 613 b 176 693 117 658 128 675 m 326 -262 b 253 -308 308 -300 293 -308 l 194 -308 b 167 -271 163 -308 157 -300 l 213 -111 b 288 -51 225 -65 243 -51 l 374 -51 b 407 -111 419 -51 429 -71 "},"Ň":{"ha":974,"x_min":0,"x_max":0,"o":"m 860 1268 b 874 1225 900 1268 901 1247 l 718 1092 b 617 1049 674 1053 661 1049 l 592 1049 b 503 1092 542 1049 535 1053 l 393 1225 b 424 1268 375 1247 383 1268 l 504 1268 b 581 1240 550 1268 560 1264 l 626 1179 l 689 1239 b 778 1268 715 1265 732 1268 m 935 986 b 982 929 978 986 989 972 l 828 57 b 761 0 821 14 804 0 l 650 0 b 601 26 626 0 610 8 l 403 440 b 333 700 368 514 344 600 l 322 700 b 307 389 329 596 325 492 l 249 57 b 182 0 242 14 225 0 l 75 0 b 28 57 32 0 21 14 l 182 929 b 249 986 192 972 206 986 l 356 986 b 410 960 382 986 400 978 l 613 539 b 671 361 640 481 661 403 b 683 290 676 332 683 292 l 693 290 b 703 597 681 388 683 490 l 763 929 b 828 986 769 972 785 986 "},"ň":{"ha":771,"x_min":0,"x_max":0,"o":"m 239 981 b 267 1024 218 1003 228 1024 l 346 1024 b 421 996 392 1024 404 1019 l 467 935 l 531 994 b 619 1024 557 1021 574 1024 l 704 1024 b 718 981 744 1024 744 1003 l 563 847 b 463 804 518 808 507 804 l 438 804 b 346 847 386 804 378 808 m 469 743 b 717 443 668 743 750 631 l 649 51 b 588 0 642 13 626 0 l 479 0 b 438 51 442 0 431 13 l 507 449 b 408 553 519 518 488 553 b 308 540 372 553 339 549 b 303 535 307 540 304 539 l 218 51 b 158 0 211 13 196 0 l 50 0 b 8 51 11 0 1 13 l 107 613 b 176 693 117 658 128 675 b 469 743 264 726 363 743 "},"ŉ":{"ha":771,"x_min":0,"x_max":0,"o":"m 188 781 b 126 747 167 753 160 747 l 58 747 b 33 781 32 747 24 758 l 128 981 b 150 1015 139 1003 139 1004 b 189 1026 160 1026 168 1026 l 297 1026 b 329 974 342 1026 351 1006 m 176 693 b 469 743 264 726 363 743 b 717 443 668 743 750 631 l 649 51 b 588 0 642 13 626 0 l 479 0 b 438 51 442 0 431 13 l 507 449 b 408 553 519 518 488 553 b 308 540 372 553 339 549 b 303 535 307 540 304 539 l 218 51 b 158 0 211 13 196 0 l 50 0 b 8 51 11 0 1 13 l 107 613 b 176 693 117 658 128 675 "},"Ŋ":{"ha":974,"x_min":0,"x_max":0,"o":"m 935 986 b 982 929 978 986 989 972 l 817 -11 b 426 -319 779 -217 650 -319 b 382 -267 386 -319 375 -307 l 397 -181 b 460 -129 404 -142 419 -129 b 601 -3 547 -129 586 -86 l 604 17 l 403 440 b 333 700 368 515 344 601 l 322 700 b 307 389 329 592 325 488 l 249 57 b 182 0 242 14 225 0 l 75 0 b 28 57 32 0 21 14 l 182 929 b 249 986 192 972 206 986 l 357 986 b 408 960 382 986 399 978 l 611 539 b 664 388 635 489 657 424 b 682 290 671 351 681 296 l 693 290 b 703 597 681 388 683 490 l 761 929 b 828 986 771 972 785 986 "},"ŋ":{"ha":771,"x_min":0,"x_max":0,"o":"m 176 693 b 469 743 264 726 363 743 b 717 443 668 743 750 631 l 635 -22 b 257 -319 600 -221 475 -319 b 217 -269 219 -319 210 -308 l 231 -186 b 290 -136 238 -147 251 -136 b 426 -14 374 -136 411 -96 l 507 449 b 408 553 519 518 488 553 b 308 540 372 553 339 549 b 303 535 307 540 304 539 l 218 51 b 158 0 211 13 196 0 l 50 0 b 8 51 11 0 1 13 l 107 613 b 176 693 117 658 128 675 "},"Ō":{"ha":938,"x_min":0,"x_max":0,"o":"m 807 1240 b 847 1192 846 1240 854 1231 l 839 1146 b 782 1099 832 1108 821 1099 l 457 1099 b 418 1146 418 1099 411 1108 l 425 1192 b 482 1240 432 1229 447 1240 m 129 646 b 597 1007 169 878 336 1007 b 883 901 726 1007 822 972 b 944 618 943 831 964 736 l 894 336 b 426 -21 854 104 689 -21 b 142 85 297 -21 201 14 b 79 364 81 154 60 247 m 724 638 b 567 800 742 744 685 800 b 354 638 443 800 372 746 l 303 349 b 458 186 285 242 340 186 b 672 349 582 186 653 240 "},"ō":{"ha":760,"x_min":0,"x_max":0,"o":"m 315 839 b 275 888 278 839 269 849 l 283 933 b 340 981 290 971 306 981 l 665 981 b 706 933 704 981 713 971 l 697 888 b 640 839 692 849 679 839 m 201 669 b 460 743 267 718 353 743 b 693 663 567 743 644 717 b 740 440 742 608 757 533 l 710 261 b 329 -21 676 78 547 -21 b 49 278 117 -21 15 93 l 79 457 b 201 669 96 549 136 619 m 533 453 b 429 557 544 522 510 557 b 289 453 349 557 301 522 l 257 269 b 360 165 244 200 278 165 b 500 269 440 165 488 200 "},"Ŏ":{"ha":938,"x_min":0,"x_max":0,"o":"m 865 1207 b 614 1067 817 1118 724 1067 b 415 1207 504 1067 432 1118 b 446 1254 411 1231 422 1246 l 524 1282 b 571 1265 553 1292 564 1288 b 639 1211 579 1229 601 1211 b 728 1265 676 1211 707 1229 b 775 1283 743 1288 753 1290 l 850 1254 b 865 1207 876 1243 878 1233 m 129 646 b 597 1007 169 878 336 1007 b 883 901 726 1007 822 972 b 944 618 943 831 964 736 l 894 336 b 426 -21 854 104 689 -21 b 142 85 297 -21 201 14 b 79 364 81 154 60 247 m 724 638 b 567 800 742 744 685 800 b 354 638 443 800 372 746 l 303 349 b 458 186 285 242 340 186 b 672 349 582 186 653 240 "},"ŏ":{"ha":760,"x_min":0,"x_max":0,"o":"m 725 949 b 478 807 672 854 590 807 b 274 949 368 807 290 860 b 306 994 269 975 276 985 l 378 1021 b 425 1004 407 1031 418 1026 b 497 951 433 969 457 951 b 588 1006 533 951 564 969 b 633 1024 599 1025 614 1031 l 710 994 b 725 949 733 983 738 975 m 79 457 b 460 743 113 640 244 743 b 740 440 675 743 774 628 l 710 261 b 329 -21 676 78 547 -21 b 49 278 117 -21 15 93 m 533 453 b 429 557 544 522 510 557 b 289 453 349 557 301 522 l 257 269 b 360 165 244 200 278 165 b 500 269 440 165 488 200 "},"Ő":{"ha":938,"x_min":0,"x_max":0,"o":"m 465 1079 b 457 1131 439 1088 436 1104 l 568 1256 b 661 1289 594 1288 626 1299 l 718 1269 b 797 1290 740 1292 767 1299 l 864 1271 b 868 1214 899 1260 897 1235 l 690 1085 b 628 1064 657 1061 654 1058 l 593 1074 b 568 1094 576 1078 568 1085 l 563 1090 b 500 1069 536 1069 515 1063 m 597 1007 b 883 901 726 1007 822 972 b 944 618 943 831 964 736 l 894 336 b 426 -21 854 104 689 -21 b 142 85 297 -21 201 14 b 79 364 81 154 60 247 l 129 646 b 597 1007 169 878 336 1007 m 724 638 b 567 800 742 744 685 800 b 354 638 443 800 372 746 l 303 349 b 458 186 285 242 340 186 b 672 349 582 186 653 240 "},"ő":{"ha":760,"x_min":0,"x_max":0,"o":"m 321 813 b 315 863 294 819 292 836 l 425 989 b 518 1022 454 1021 485 1032 l 575 1001 b 654 1022 599 1024 625 1031 l 721 1003 b 726 946 754 992 757 968 l 547 818 b 485 797 521 797 500 790 l 450 806 b 425 826 435 810 426 817 l 419 822 b 357 801 388 800 378 794 m 201 669 b 460 743 267 718 353 743 b 693 663 567 743 644 717 b 740 440 742 608 757 533 l 710 261 b 329 -21 676 78 547 -21 b 49 278 117 -21 15 93 l 79 457 b 201 669 96 549 136 619 m 533 453 b 429 557 544 522 510 557 b 289 453 349 557 301 522 l 257 269 b 360 165 244 200 278 165 b 500 269 440 165 488 200 "},"Œ":{"ha":1208,"x_min":0,"x_max":0,"o":"m 1106 207 b 1151 150 1149 207 1158 190 l 1136 57 b 1069 0 1129 14 1113 0 l 588 0 b 422 -21 542 -14 486 -21 b 140 88 293 -21 200 15 b 82 372 81 160 61 254 l 131 653 b 603 1007 171 882 340 1007 b 757 986 663 1007 714 1000 l 1229 986 b 1276 929 1272 986 1283 972 l 1260 836 b 1193 781 1253 796 1236 781 l 885 781 l 854 601 l 1093 601 b 1139 546 1136 601 1146 586 l 1124 453 b 1056 396 1117 410 1099 396 l 817 396 l 783 207 m 303 349 b 458 186 285 242 340 186 b 557 201 496 186 528 192 l 660 785 b 567 800 633 794 603 800 b 354 638 449 800 372 744 "},"œ":{"ha":1117,"x_min":0,"x_max":0,"o":"m 646 664 b 865 743 706 717 779 743 b 1121 494 1056 743 1149 654 b 803 285 1094 360 985 285 b 665 297 768 285 722 289 l 660 261 b 753 151 646 188 676 151 b 883 207 807 151 851 169 b 961 225 911 242 926 247 l 1021 186 b 1025 106 1050 167 1051 140 b 721 -21 965 21 864 -21 b 533 42 636 -21 574 0 b 313 -21 475 0 401 -21 b 50 283 108 -21 17 99 l 81 464 b 444 743 115 650 236 743 b 646 664 538 743 606 717 m 917 501 b 832 576 926 550 900 576 b 697 469 760 576 710 538 l 693 449 b 815 436 743 440 783 436 b 917 501 875 436 910 458 m 501 442 b 414 557 515 518 486 557 b 290 454 343 557 301 522 l 257 268 b 344 165 244 200 274 165 b 472 278 417 165 460 203 "},"Ŕ":{"ha":911,"x_min":0,"x_max":0,"o":"m 635 1263 b 726 1258 678 1285 708 1283 l 765 1199 b 749 1143 786 1169 782 1156 l 490 1057 b 428 1060 457 1046 436 1047 l 407 1094 b 418 1147 390 1121 392 1135 m 633 986 b 903 654 835 986 940 856 b 693 382 881 522 811 432 b 714 333 701 367 708 351 l 810 60 b 768 0 822 19 808 0 l 657 0 b 550 54 586 0 563 11 l 486 268 b 372 350 465 335 450 350 l 306 350 l 253 57 b 188 0 246 14 231 0 l 75 0 b 28 57 32 0 21 14 l 182 929 b 249 986 192 972 206 986 m 625 583 b 669 667 649 603 663 631 b 656 751 676 703 671 731 b 575 781 639 771 613 781 l 381 781 l 342 553 l 535 553 b 625 583 572 553 601 563 "},"ŕ":{"ha":497,"x_min":0,"x_max":0,"o":"m 425 1018 b 517 1015 468 1040 499 1039 l 556 956 b 539 900 578 926 574 913 l 281 811 b 218 815 247 800 226 801 l 197 849 b 210 901 181 875 182 889 m 451 743 l 497 743 b 539 692 536 743 546 731 l 525 606 b 465 556 518 568 503 556 l 414 556 b 313 546 376 556 342 553 b 304 536 308 544 306 542 l 218 51 b 158 0 211 13 196 0 l 50 0 b 8 51 11 0 1 13 l 108 619 b 178 700 118 665 129 682 b 451 743 244 725 336 739 "},"Ŗ":{"ha":911,"x_min":0,"x_max":0,"o":"m 633 986 b 903 654 835 986 940 856 b 693 382 881 522 811 432 b 714 333 701 367 708 351 l 810 60 b 768 0 822 19 808 0 l 657 0 b 550 54 586 0 563 11 l 486 268 b 372 350 465 335 450 350 l 306 350 l 253 57 b 188 0 246 14 231 0 l 75 0 b 28 57 32 0 21 14 l 182 929 b 249 986 192 972 206 986 m 625 583 b 669 667 649 603 663 631 b 656 751 676 703 671 731 b 575 781 639 771 613 781 l 381 781 l 342 553 l 535 553 b 625 583 572 553 601 563 m 390 -315 b 324 -361 375 -346 353 -361 l 254 -361 b 228 -325 225 -361 218 -351 l 283 -129 b 353 -75 294 -89 313 -75 l 450 -74 b 489 -129 496 -74 508 -92 "},"ŗ":{"ha":497,"x_min":0,"x_max":0,"o":"m 451 743 l 496 743 b 539 692 535 743 546 731 l 524 606 b 464 556 517 568 503 556 l 413 556 b 313 546 375 556 342 553 b 303 536 308 544 304 542 l 218 51 b 157 0 211 13 196 0 l 49 0 b 7 51 11 0 0 13 l 107 619 b 176 700 117 665 128 682 b 451 743 244 725 336 739 m 106 -269 b 32 -317 88 -307 71 -317 l -26 -317 b -54 -278 -58 -317 -64 -307 l -8 -114 b 67 -54 4 -68 22 -54 l 153 -54 b 186 -114 199 -54 207 -74 "},"Ř":{"ha":911,"x_min":0,"x_max":0,"o":"m 825 1268 b 839 1225 864 1268 865 1247 l 683 1092 b 582 1049 638 1053 626 1049 l 557 1049 b 467 1092 507 1049 499 1053 l 358 1225 b 388 1268 340 1247 347 1268 l 469 1268 b 544 1240 515 1268 526 1264 l 590 1179 l 654 1239 b 743 1268 681 1265 694 1268 m 633 986 b 903 654 835 986 940 856 b 693 382 881 522 811 432 b 714 333 701 367 708 351 l 810 60 b 768 0 822 19 808 0 l 657 0 b 550 54 586 0 563 11 l 486 268 b 372 350 465 335 450 350 l 306 350 l 253 57 b 188 0 246 14 231 0 l 75 0 b 28 57 32 0 21 14 l 182 929 b 249 986 192 972 206 986 m 625 583 b 669 667 649 603 663 631 b 656 751 676 703 671 731 b 575 781 639 771 613 781 l 381 781 l 342 553 l 535 553 b 625 583 572 553 601 563 "},"ř":{"ha":497,"x_min":0,"x_max":0,"o":"m 615 1024 b 629 981 656 1024 656 1003 l 474 847 b 374 804 429 808 418 804 l 349 804 b 257 847 297 804 289 808 l 149 981 b 178 1024 131 1003 138 1024 l 257 1024 b 332 996 303 1024 315 1019 l 378 935 l 442 994 b 531 1024 468 1021 485 1024 m 497 743 b 539 692 536 743 546 731 l 525 606 b 465 556 518 568 503 556 l 414 556 b 313 546 376 556 342 553 b 304 536 308 544 306 542 l 218 51 b 158 0 211 13 196 0 l 50 0 b 8 51 11 0 1 13 l 108 619 b 178 700 118 665 129 682 b 451 743 244 725 336 739 "},"Ś":{"ha":881,"x_min":0,"x_max":0,"o":"m 628 1276 b 719 1272 671 1299 701 1297 l 758 1213 b 742 1157 776 1183 776 1168 l 483 1071 b 419 1074 449 1060 428 1061 l 400 1108 b 411 1161 382 1135 385 1146 m 108 721 b 547 1007 142 904 292 1007 b 878 794 738 1007 833 929 b 838 725 889 757 881 742 l 731 682 b 664 710 692 665 679 672 b 517 801 643 771 594 801 b 335 706 406 801 344 769 b 385 631 329 671 344 646 b 526 603 425 615 460 610 b 828 269 686 583 871 511 b 375 -21 793 76 642 -21 b 13 204 163 -21 42 54 b 61 276 6 243 18 261 l 169 313 b 236 279 210 328 225 319 b 399 183 254 215 308 183 b 601 293 521 183 589 219 b 432 393 613 356 550 381 b 236 443 356 403 303 411 b 156 500 201 458 175 478 b 108 721 115 544 92 622 "},"ś":{"ha":706,"x_min":0,"x_max":0,"o":"m 493 1018 b 585 1015 538 1040 568 1039 l 625 956 b 608 900 646 926 642 913 l 350 811 b 288 815 317 800 296 801 l 267 849 b 279 901 250 875 251 889 m 71 524 b 407 743 97 664 211 743 b 685 594 556 743 647 693 b 647 521 697 557 688 538 l 565 489 b 499 511 522 474 517 478 b 383 561 479 544 440 561 b 271 511 315 561 278 544 b 394 449 264 471 294 458 b 646 208 583 428 674 364 b 294 -21 619 64 494 -21 b 3 144 125 -21 28 35 b 49 214 -4 179 11 201 l 138 242 b 201 213 178 253 186 247 b 318 160 217 178 256 160 b 449 217 397 160 440 179 b 313 283 456 261 425 272 b 128 343 235 290 178 308 b 71 524 78 378 56 440 "},"Ŝ":{"ha":881,"x_min":0,"x_max":0,"o":"m 621 1283 b 704 1242 664 1283 675 1281 l 814 1107 b 785 1065 832 1086 824 1065 l 703 1065 b 625 1093 657 1065 642 1069 l 583 1154 l 515 1093 b 431 1065 488 1067 476 1065 l 346 1065 b 331 1107 306 1065 303 1086 l 486 1242 b 539 1278 510 1261 526 1274 b 593 1283 550 1282 568 1283 m 108 721 b 547 1007 142 904 292 1007 b 878 794 738 1007 833 929 b 838 725 889 757 881 742 l 731 682 b 664 710 692 665 679 672 b 517 801 643 771 594 801 b 335 706 406 801 344 769 b 385 631 329 671 344 646 b 526 603 425 615 460 610 b 828 269 686 583 871 511 b 375 -21 793 76 642 -21 b 13 204 163 -21 42 54 b 61 276 6 243 18 261 l 169 313 b 236 279 210 328 225 319 b 399 183 254 215 308 183 b 601 293 521 183 589 219 b 432 393 613 356 550 381 b 236 443 356 403 303 411 b 156 500 201 458 175 478 b 108 721 115 544 92 622 "},"ŝ":{"ha":706,"x_min":0,"x_max":0,"o":"m 215 807 b 200 850 175 807 174 828 l 357 983 b 407 1019 379 1003 396 1015 b 463 1026 418 1024 436 1026 l 488 1026 b 572 983 531 1026 540 1022 l 682 850 b 651 807 700 828 690 807 l 574 807 b 497 835 528 807 513 811 l 454 896 l 388 836 b 301 807 360 810 347 807 m 407 743 b 685 594 556 743 647 693 b 647 521 697 557 688 538 l 565 489 b 499 511 522 474 517 478 b 383 561 479 544 440 561 b 271 511 315 561 278 544 b 394 449 264 471 294 458 b 646 208 583 428 674 364 b 294 -21 619 64 494 -21 b 3 144 125 -21 28 35 b 49 214 -4 179 11 201 l 138 242 b 201 213 178 253 186 247 b 318 160 217 178 256 160 b 449 217 397 160 440 179 b 313 283 456 261 425 272 b 128 343 235 290 178 308 b 71 524 78 378 56 440 b 407 743 97 664 211 743 "},"Ş":{"ha":881,"x_min":0,"x_max":0,"o":"m 108 721 b 547 1007 142 904 292 1007 b 878 794 738 1007 833 929 b 838 725 889 757 881 742 l 731 682 b 664 710 692 665 679 672 b 517 801 643 771 594 801 b 335 706 406 801 344 769 b 385 631 329 671 344 646 b 526 603 425 615 460 610 b 828 269 686 583 871 511 b 467 -17 797 101 676 6 l 431 -79 l 440 -79 b 538 -217 525 -81 560 -139 b 318 -347 511 -310 422 -347 b 221 -326 283 -347 250 -340 b 199 -283 203 -317 194 -303 l 207 -232 b 240 -211 211 -207 222 -200 b 314 -231 267 -224 290 -231 b 378 -194 354 -231 375 -218 b 326 -161 382 -172 365 -161 l 299 -161 b 283 -124 274 -161 268 -149 l 347 -21 b 13 204 151 -14 40 61 b 61 276 6 243 18 261 l 169 313 b 236 279 210 328 225 319 b 399 183 254 215 308 183 b 601 293 521 183 589 219 b 432 393 613 356 550 381 b 236 443 356 403 303 411 b 156 500 201 458 175 478 b 108 721 115 544 92 622 "},"ş":{"ha":706,"x_min":0,"x_max":0,"o":"m 71 524 b 407 743 97 664 211 743 b 685 594 556 743 647 693 b 647 521 697 557 688 538 l 565 489 b 499 511 522 474 517 478 b 383 561 479 544 440 561 b 271 511 315 561 278 544 b 394 449 264 471 294 458 b 646 208 583 428 674 364 b 381 -15 625 86 531 7 l 343 -79 l 353 -79 b 450 -215 438 -79 472 -139 b 231 -346 424 -308 335 -346 b 133 -325 192 -346 160 -339 b 111 -282 115 -317 107 -303 l 119 -231 b 153 -210 124 -207 135 -200 b 226 -231 178 -224 203 -231 b 292 -194 264 -231 286 -218 b 239 -161 296 -172 279 -161 l 211 -161 b 196 -124 185 -161 181 -149 l 260 -19 b 3 144 111 -12 26 42 b 49 214 -4 179 11 201 l 138 242 b 201 213 178 253 186 247 b 318 160 217 178 256 160 b 449 217 397 160 440 179 b 313 283 456 261 425 272 b 128 343 235 290 178 308 b 71 524 78 378 56 440 "},"Š":{"ha":881,"x_min":0,"x_max":0,"o":"m 817 1282 b 831 1239 857 1282 858 1261 l 675 1106 b 574 1063 631 1067 618 1063 l 549 1063 b 460 1106 499 1063 492 1067 l 350 1239 b 381 1282 332 1261 340 1282 l 461 1282 b 538 1254 507 1282 519 1278 l 583 1193 l 647 1253 b 735 1282 674 1279 689 1282 m 108 721 b 547 1007 142 904 292 1007 b 878 794 738 1007 833 929 b 838 725 889 757 881 742 l 731 682 b 664 710 692 665 679 672 b 517 801 643 771 594 801 b 335 706 406 801 344 769 b 385 631 329 671 344 646 b 526 603 425 615 460 610 b 828 269 686 583 871 511 b 375 -21 793 76 642 -21 b 13 204 163 -21 42 54 b 61 276 6 243 18 261 l 169 313 b 236 279 210 328 225 319 b 399 183 254 215 308 183 b 601 293 521 183 589 219 b 432 393 613 356 550 381 b 236 443 356 403 303 411 b 156 500 201 458 175 478 b 108 721 115 544 92 622 "},"š":{"ha":706,"x_min":0,"x_max":0,"o":"m 685 1024 b 699 981 724 1024 725 1003 l 543 847 b 442 804 497 808 486 804 l 417 804 b 326 847 367 804 358 808 l 218 981 b 247 1024 200 1003 207 1024 l 325 1024 b 401 996 371 1024 383 1019 l 447 935 l 511 994 b 599 1024 538 1021 553 1024 m 407 743 b 685 594 556 743 647 693 b 647 521 697 557 688 538 l 565 489 b 499 511 522 474 517 478 b 383 561 479 544 440 561 b 271 511 315 561 278 544 b 394 449 264 471 294 458 b 646 208 583 428 674 364 b 294 -21 619 64 494 -21 b 3 144 125 -21 28 35 b 49 214 -4 179 11 201 l 138 242 b 201 213 178 253 186 247 b 318 160 217 178 256 160 b 449 217 397 160 440 179 b 313 283 456 261 425 272 b 128 343 235 290 178 308 b 71 524 78 378 56 440 b 407 743 97 664 211 743 "},"Ť":{"ha":807,"x_min":0,"x_max":0,"o":"m 775 1268 b 789 1225 815 1268 817 1247 l 633 1092 b 532 1049 589 1053 576 1049 l 507 1049 b 418 1092 457 1049 450 1053 l 308 1225 b 338 1268 290 1247 299 1268 l 419 1268 b 496 1240 465 1268 475 1264 l 542 1179 l 604 1239 b 693 1268 631 1265 647 1268 m 839 986 b 885 929 882 986 892 972 l 869 836 b 803 781 860 796 843 781 l 585 781 l 457 57 b 390 0 450 14 433 0 l 278 0 b 232 57 238 0 225 14 l 360 781 l 142 781 b 96 836 99 781 89 796 l 111 929 b 178 986 118 972 135 986 "},"ť":{"ha":553,"x_min":0,"x_max":0,"o":"m 621 817 b 553 771 600 782 586 771 l 497 771 b 472 806 469 771 465 778 l 514 974 b 583 1028 524 1017 540 1028 l 675 1028 b 710 974 718 1028 729 1010 m 383 889 b 425 838 421 889 432 876 l 406 722 l 533 722 b 574 671 571 722 581 710 l 560 588 b 500 536 553 549 539 536 l 372 536 l 331 303 b 435 174 314 197 339 174 b 478 121 474 174 485 161 l 463 33 b 401 -19 456 -6 440 -18 b 154 44 281 -24 197 -1 b 119 294 110 90 99 174 l 163 536 l 88 536 b 46 588 50 536 39 549 l 60 671 b 121 722 67 710 82 722 l 196 722 l 215 838 b 275 889 222 876 238 889 "},"Ŧ":{"ha":829,"x_min":0,"x_max":0,"o":"m 849 986 b 896 929 892 986 903 972 l 879 836 b 813 781 872 796 856 781 l 596 781 l 550 522 l 697 522 b 722 488 721 522 728 514 l 710 407 b 669 372 704 379 696 372 l 522 372 l 468 57 b 401 0 461 14 444 0 l 289 0 b 242 57 246 0 235 14 l 297 372 l 151 372 b 125 407 125 372 119 379 l 139 488 b 178 522 143 511 157 522 l 325 522 l 369 781 l 153 781 b 106 836 110 781 99 793 l 122 929 b 189 986 132 972 146 986 "},"ŧ":{"ha":554,"x_min":0,"x_max":0,"o":"m 383 890 b 425 839 421 890 432 878 l 404 724 l 533 724 b 575 672 571 724 581 711 l 560 589 b 500 538 553 550 539 538 l 372 538 l 354 438 l 460 438 b 485 403 483 438 490 429 l 475 340 b 435 306 469 313 461 306 l 331 306 l 329 297 b 435 175 313 196 339 175 b 478 122 474 175 485 163 l 461 35 b 401 -18 454 -6 440 -17 b 154 46 281 -22 197 0 b 119 294 111 92 99 175 l 121 306 l 53 306 b 26 340 26 306 21 313 l 36 403 b 76 438 40 426 54 438 l 144 438 l 163 538 l 88 538 b 46 589 50 538 39 550 l 61 672 b 121 724 67 711 82 724 l 194 724 l 215 839 b 275 890 222 878 238 890 "},"Ũ":{"ha":960,"x_min":0,"x_max":0,"o":"m 842 1256 b 867 1224 863 1256 871 1244 b 713 1060 846 1103 801 1060 b 551 1129 633 1060 590 1129 b 522 1089 536 1129 526 1115 b 488 1060 518 1069 507 1060 l 425 1060 b 400 1090 404 1060 396 1069 b 551 1256 421 1211 468 1256 b 717 1186 638 1256 679 1186 b 746 1225 732 1186 742 1199 b 781 1256 750 1246 761 1256 m 321 342 b 469 185 303 242 354 185 b 672 342 588 185 654 238 l 776 929 b 843 986 786 972 800 986 l 956 986 b 1001 929 999 986 1008 972 l 894 326 b 438 -21 856 100 699 -21 b 157 88 308 -21 215 15 b 99 368 97 158 78 253 l 199 929 b 265 986 206 972 222 986 l 378 986 b 424 929 421 986 431 972 "},"ũ":{"ha":771,"x_min":0,"x_max":0,"o":"m 697 1015 b 722 985 718 1015 726 1006 b 569 819 701 863 657 819 b 407 889 490 819 446 889 b 378 850 392 889 382 876 b 344 819 374 829 363 819 l 282 819 b 256 851 261 819 253 831 b 407 1015 278 972 325 1015 b 508 981 444 1015 478 1004 b 574 946 539 957 561 946 b 603 986 588 946 597 960 b 636 1015 607 1006 618 1015 m 731 722 b 772 671 769 722 779 710 l 674 110 b 604 29 664 64 653 47 b 313 -21 518 -4 421 -21 b 65 281 113 -21 32 93 l 133 671 b 194 722 140 710 156 722 l 301 722 b 343 671 340 722 350 710 l 274 274 b 374 169 261 201 292 169 b 465 179 406 169 436 172 b 479 194 474 182 478 188 l 563 671 b 624 722 569 710 585 722 "},"Ū":{"ha":960,"x_min":0,"x_max":0,"o":"m 815 1226 b 856 1178 854 1226 863 1217 l 847 1132 b 790 1085 840 1094 829 1085 l 465 1085 b 425 1132 426 1085 418 1094 l 433 1178 b 490 1226 440 1215 456 1226 m 321 342 b 469 185 303 242 354 185 b 672 342 588 185 654 238 l 776 929 b 843 986 786 972 800 986 l 956 986 b 1001 929 999 986 1008 972 l 894 326 b 438 -21 856 100 699 -21 b 157 88 308 -21 215 15 b 99 368 97 158 78 253 l 199 929 b 265 986 206 972 222 986 l 378 986 b 424 929 421 986 431 972 "},"ū":{"ha":771,"x_min":0,"x_max":0,"o":"m 669 981 b 710 933 708 981 717 971 l 701 888 b 644 839 696 849 683 839 l 319 839 b 281 888 282 839 275 849 l 288 933 b 344 981 294 971 310 981 m 731 722 b 772 671 769 722 779 710 l 674 110 b 604 29 664 64 653 47 b 313 -21 518 -4 421 -21 b 65 281 113 -21 32 93 l 133 671 b 194 722 140 710 156 722 l 301 722 b 343 671 340 722 350 710 l 274 274 b 374 169 261 201 292 169 b 465 179 406 169 436 172 b 479 194 474 182 478 188 l 563 671 b 624 722 569 710 585 722 "},"Ŭ":{"ha":960,"x_min":0,"x_max":0,"o":"m 874 1193 b 622 1053 825 1104 732 1053 b 424 1193 513 1053 440 1104 b 453 1240 419 1217 429 1232 l 532 1268 b 578 1251 558 1276 574 1271 b 647 1197 588 1215 611 1197 b 736 1251 685 1197 715 1215 b 783 1269 751 1274 761 1276 l 858 1240 b 874 1193 882 1229 886 1219 m 321 342 b 469 185 303 242 354 185 b 672 342 588 185 654 238 l 776 929 b 843 986 786 972 800 986 l 956 986 b 1001 929 999 986 1008 972 l 894 326 b 438 -21 856 100 699 -21 b 157 88 308 -21 215 15 b 99 368 97 158 78 253 l 199 929 b 265 986 206 972 222 986 l 378 986 b 424 929 421 986 431 972 "},"ŭ":{"ha":771,"x_min":0,"x_max":0,"o":"m 729 949 b 483 807 678 854 596 807 b 279 949 372 807 294 860 b 310 994 274 972 282 985 l 382 1021 b 431 1004 414 1031 421 1026 b 503 951 438 969 463 951 b 592 1006 540 951 569 969 b 639 1024 603 1025 618 1031 l 715 994 b 729 949 738 983 742 975 m 731 722 b 772 671 769 722 779 710 l 674 110 b 604 29 664 64 653 47 b 313 -21 518 -4 421 -21 b 65 281 113 -21 32 93 l 133 671 b 194 722 140 710 156 722 l 301 722 b 343 671 340 722 350 710 l 274 274 b 374 169 261 201 292 169 b 465 179 406 169 436 172 b 479 194 474 182 478 188 l 563 671 b 624 722 569 710 585 722 "},"Ů":{"ha":960,"x_min":0,"x_max":0,"o":"m 490 1183 b 681 1339 506 1276 585 1339 b 814 1183 775 1339 831 1276 b 628 1031 799 1093 721 1031 b 490 1183 532 1031 474 1093 m 710 1183 b 664 1242 717 1218 697 1242 b 593 1183 629 1242 600 1218 b 644 1128 588 1151 610 1128 b 710 1183 678 1128 706 1150 m 321 342 b 469 185 303 242 354 185 b 672 342 588 185 654 238 l 776 929 b 843 986 786 972 800 986 l 956 986 b 1001 929 999 986 1008 972 l 894 326 b 438 -21 856 100 699 -21 b 157 88 308 -21 215 15 b 99 368 97 158 78 253 l 199 929 b 265 986 206 972 222 986 l 378 986 b 424 929 421 986 431 972 "},"ů":{"ha":771,"x_min":0,"x_max":0,"o":"m 333 903 b 525 1058 349 996 429 1058 b 657 903 618 1058 674 993 b 471 749 642 813 565 749 b 333 903 375 749 317 810 m 531 863 b 508 960 574 897 556 960 b 436 903 474 960 443 936 b 488 846 432 869 453 846 b 531 863 503 846 518 851 m 731 722 b 772 671 769 722 779 710 l 674 110 b 604 29 664 64 653 47 b 313 -21 518 -4 421 -21 b 65 281 113 -21 32 93 l 133 671 b 194 722 140 710 156 722 l 301 722 b 343 671 340 722 350 710 l 274 274 b 374 169 261 201 292 169 b 465 179 406 169 436 172 b 479 194 474 182 478 188 l 563 671 b 624 722 569 710 585 722 "},"Ű":{"ha":960,"x_min":0,"x_max":0,"o":"m 474 1065 b 465 1117 447 1074 444 1090 l 576 1242 b 669 1275 603 1274 635 1285 l 726 1256 b 806 1276 750 1276 776 1283 l 871 1257 b 876 1200 906 1244 908 1222 l 699 1071 b 636 1050 665 1047 663 1044 l 600 1060 b 576 1081 585 1064 576 1071 l 571 1076 b 508 1056 544 1056 524 1049 m 956 986 b 1001 929 999 986 1008 972 l 894 326 b 438 -21 856 100 699 -21 b 157 88 308 -21 215 15 b 99 368 97 158 78 253 l 199 929 b 265 986 206 972 222 986 l 378 986 b 424 929 421 986 431 972 l 321 342 b 469 185 303 242 354 185 b 672 342 588 185 654 238 l 776 929 b 843 986 786 972 800 986 "},"ű":{"ha":771,"x_min":0,"x_max":0,"o":"m 326 813 b 319 863 299 819 296 836 l 431 989 b 522 1022 458 1021 489 1032 l 581 1003 b 660 1022 604 1024 631 1031 l 725 1003 b 731 946 763 990 764 972 l 553 818 b 490 797 526 797 506 790 l 454 806 b 431 826 439 810 431 817 l 425 822 b 361 801 393 800 382 794 m 731 722 b 772 671 769 722 779 710 l 674 110 b 604 29 664 64 653 47 b 313 -21 518 -4 421 -21 b 65 281 113 -21 32 93 l 133 671 b 194 722 140 710 156 722 l 301 722 b 343 671 340 722 350 710 l 274 274 b 374 169 261 201 292 169 b 465 179 406 169 436 172 b 479 194 474 182 478 188 l 563 671 b 624 722 569 710 585 722 "},"Ų":{"ha":960,"x_min":0,"x_max":0,"o":"m 956 986 b 1001 929 999 986 1008 972 l 894 326 b 726 53 872 206 822 126 b 572 -124 639 -12 585 -86 b 564 -169 565 -142 563 -157 b 586 -197 564 -187 571 -197 b 613 -190 596 -197 604 -194 b 642 -199 629 -181 639 -183 l 658 -264 b 647 -300 663 -279 658 -292 b 497 -340 614 -326 564 -340 b 376 -236 429 -340 378 -303 b 513 -17 376 -164 422 -90 b 438 -21 488 -19 463 -21 b 157 88 308 -21 215 15 b 99 368 97 158 78 253 l 199 929 b 265 986 206 972 222 986 l 378 986 b 424 929 421 986 431 972 l 321 342 b 469 185 303 242 354 185 b 672 342 588 185 654 238 l 776 929 b 843 986 786 972 800 986 "},"ų":{"ha":771,"x_min":0,"x_max":0,"o":"m 732 722 b 774 671 771 722 781 710 l 675 110 b 653 56 671 86 664 68 b 517 -172 563 -46 515 -137 b 539 -197 517 -189 524 -197 b 565 -189 547 -197 556 -194 b 594 -197 582 -179 592 -182 l 610 -256 b 599 -292 614 -271 610 -282 b 450 -340 556 -324 507 -340 b 329 -250 371 -340 331 -310 b 469 -7 329 -182 382 -89 b 314 -21 421 -17 369 -21 b 67 283 114 -21 32 94 l 135 671 b 196 722 142 710 157 722 l 303 722 b 344 671 342 722 351 710 l 275 274 b 375 169 263 201 293 169 b 467 179 407 169 438 172 b 481 194 475 182 479 188 l 564 671 b 625 722 571 710 586 722 "},"Ŵ":{"ha":1271,"x_min":0,"x_max":0,"o":"m 815 1269 b 899 1228 860 1269 869 1267 l 1010 1093 b 979 1051 1028 1072 1019 1051 l 899 1051 b 819 1079 853 1051 836 1056 l 778 1140 l 710 1079 b 625 1051 682 1053 671 1051 l 542 1051 b 525 1093 501 1051 499 1072 l 681 1228 b 733 1264 704 1247 721 1260 b 789 1269 744 1268 763 1269 m 1311 986 b 1339 931 1351 986 1356 969 l 971 47 b 893 0 954 8 933 0 l 772 0 b 713 44 732 0 714 10 l 678 493 b 690 683 676 564 681 626 l 678 683 b 621 493 667 624 647 560 l 428 47 b 350 0 411 8 393 0 l 236 0 b 175 44 196 0 176 10 l 114 931 b 161 986 110 971 121 986 l 289 986 b 356 936 338 986 354 976 l 364 508 b 358 393 365 482 363 444 b 347 294 354 342 350 310 l 357 294 b 383 396 361 315 369 349 b 422 508 397 443 410 481 l 608 936 b 692 986 625 975 647 986 l 793 986 b 860 936 839 986 858 975 l 892 508 b 893 392 894 478 894 439 b 883 294 890 344 888 313 l 893 294 b 954 508 908 365 929 436 l 1108 936 b 1192 986 1124 976 1142 986 "},"ŵ":{"ha":1036,"x_min":0,"x_max":0,"o":"m 379 807 b 364 850 338 807 342 828 l 521 983 b 572 1019 544 1003 561 1015 b 628 1026 583 1024 601 1026 l 653 1026 b 738 983 696 1026 706 1022 l 846 850 b 817 807 867 828 856 807 l 739 807 b 661 835 693 807 678 811 l 619 896 l 553 836 b 467 807 525 810 513 807 m 1026 722 b 1058 663 1075 722 1081 708 l 783 46 b 706 0 771 15 744 0 l 618 0 b 556 46 581 0 560 15 l 532 322 b 533 464 528 376 532 429 l 536 489 l 529 489 b 474 322 514 429 494 374 l 351 46 b 274 0 338 15 311 0 l 199 0 b 136 46 158 0 138 11 l 72 663 b 125 722 65 708 76 722 l 204 722 b 285 671 267 722 285 714 l 293 432 b 283 274 294 393 289 318 l 281 240 l 289 240 b 349 432 308 321 328 385 l 456 669 b 550 722 476 714 489 722 l 600 722 b 675 671 661 722 671 714 l 700 432 b 697 272 704 376 701 317 l 693 240 l 701 240 b 754 432 715 311 733 375 l 846 669 b 946 722 864 714 883 722 "},"Ŷ":{"ha":910,"x_min":0,"x_max":0,"o":"m 639 1269 b 724 1228 683 1269 694 1267 l 833 1093 b 803 1051 851 1072 843 1051 l 722 1051 b 643 1079 676 1051 660 1056 l 601 1140 l 533 1079 b 449 1051 507 1053 494 1051 l 365 1051 b 349 1093 325 1051 322 1072 l 506 1228 b 557 1264 528 1247 544 1260 b 613 1269 568 1268 586 1269 m 975 986 b 994 929 1015 986 1021 961 l 572 383 l 514 57 b 447 0 507 14 490 0 l 335 0 b 289 57 292 0 282 14 l 346 386 l 115 929 b 154 986 100 961 114 986 l 279 986 b 381 936 350 986 364 982 l 499 613 l 733 936 b 778 979 749 960 764 974 b 851 986 792 983 817 986 "},"ŷ":{"ha":774,"x_min":0,"x_max":0,"o":"m 263 807 b 247 850 222 807 221 828 l 404 983 b 456 1019 426 1003 443 1015 b 510 1026 467 1024 485 1026 l 535 1026 b 619 983 578 1026 588 1022 l 729 850 b 699 807 747 828 739 807 l 622 807 b 544 835 576 807 561 811 l 501 896 l 436 836 b 350 807 407 810 396 807 m 732 722 b 772 671 769 722 779 710 l 653 -14 b 282 -319 617 -218 493 -319 b 14 -186 143 -319 54 -275 b 49 -106 -4 -151 8 -125 l 128 -68 b 206 -86 172 -47 188 -53 b 310 -139 225 -121 260 -139 b 440 -26 383 -139 426 -101 l 450 31 b 319 21 415 24 371 21 b 74 325 119 21 40 136 l 133 671 b 194 722 140 710 156 722 l 301 722 b 343 671 340 722 350 710 l 281 315 b 382 211 268 246 303 211 b 483 221 414 211 447 214 l 563 671 b 624 722 569 710 585 722 "},"Ÿ":{"ha":910,"x_min":0,"x_max":0,"o":"m 478 1253 b 553 1165 546 1253 565 1232 l 550 1150 b 444 1061 539 1085 513 1061 l 435 1061 b 363 1150 368 1061 350 1083 l 365 1165 b 468 1253 376 1232 400 1253 m 765 1253 b 839 1165 833 1253 850 1232 l 836 1150 b 731 1061 824 1083 797 1061 l 721 1061 b 647 1150 654 1061 636 1085 l 650 1165 b 756 1253 663 1232 688 1253 m 975 986 b 994 929 1015 986 1021 961 l 572 383 l 514 57 b 447 0 507 14 490 0 l 335 0 b 289 57 292 0 282 14 l 346 386 l 115 929 b 154 986 100 961 114 986 l 279 986 b 381 936 350 986 364 982 l 499 613 l 733 936 b 778 979 749 960 764 974 b 851 986 792 983 817 986 "},"Ź":{"ha":832,"x_min":0,"x_max":0,"o":"m 607 1263 b 699 1258 650 1285 681 1283 l 738 1199 b 721 1143 758 1169 754 1156 l 463 1057 b 400 1060 429 1046 408 1047 l 379 1094 b 390 1147 363 1121 364 1135 m 831 986 b 878 929 874 986 885 972 l 863 849 b 835 792 858 826 850 807 l 297 207 l 700 207 b 747 150 743 207 757 193 l 731 57 b 664 0 724 14 707 0 l 32 0 b -15 57 -11 0 -22 14 l 0 138 b 28 194 4 158 13 176 l 565 781 l 176 781 b 131 836 133 781 124 796 l 146 929 b 213 986 156 972 169 986 "},"ź":{"ha":668,"x_min":0,"x_max":0,"o":"m 472 1018 b 564 1015 515 1040 546 1039 l 604 956 b 588 900 625 926 621 913 l 329 811 b 265 815 296 800 275 801 l 244 849 b 257 901 228 875 229 889 m 543 186 b 585 135 582 186 592 172 l 571 51 b 510 0 564 13 549 0 l 21 0 b -19 51 -17 0 -26 13 l -7 133 b 21 185 -3 154 7 171 l 378 536 l 122 536 b 82 588 85 536 75 550 l 96 671 b 156 722 103 710 118 722 l 631 722 b 672 671 669 722 679 710 l 658 589 b 628 533 656 571 646 551 l 267 186 "},"Ż":{"ha":832,"x_min":0,"x_max":0,"o":"m 582 1254 b 658 1163 653 1254 669 1233 l 656 1151 b 547 1060 643 1081 619 1060 l 539 1060 b 464 1151 468 1060 451 1081 l 467 1163 b 574 1254 479 1233 503 1254 m 831 986 b 878 929 874 986 885 972 l 863 849 b 835 792 858 826 850 807 l 297 207 l 700 207 b 747 150 743 207 757 193 l 731 57 b 664 0 724 14 707 0 l 32 0 b -15 57 -11 0 -22 14 l 0 138 b 28 194 4 158 13 176 l 565 781 l 176 781 b 131 836 133 781 124 796 l 146 929 b 213 986 156 972 169 986 "},"ż":{"ha":668,"x_min":0,"x_max":0,"o":"m 447 1008 b 524 917 518 1008 536 988 l 521 906 b 414 814 510 835 485 814 l 406 814 b 329 906 335 814 318 835 l 332 917 b 439 1008 344 988 368 1008 m 543 186 b 585 135 582 186 592 172 l 571 51 b 510 0 564 13 549 0 l 21 0 b -19 51 -17 0 -26 13 l -7 133 b 21 185 -3 154 7 171 l 378 536 l 122 536 b 82 588 85 536 75 550 l 96 671 b 156 722 103 710 118 722 l 631 722 b 672 671 669 722 679 710 l 658 589 b 628 533 656 571 646 551 l 267 186 "},"Ž":{"ha":832,"x_min":0,"x_max":0,"o":"m 797 1268 b 811 1225 838 1268 838 1247 l 656 1092 b 554 1049 610 1053 599 1049 l 529 1049 b 439 1092 479 1049 471 1053 l 331 1225 b 360 1268 313 1247 319 1268 l 442 1268 b 517 1240 488 1268 499 1264 l 563 1179 l 626 1239 b 715 1268 653 1265 667 1268 m 831 986 b 878 929 874 986 885 972 l 863 849 b 835 792 858 826 850 807 l 297 207 l 700 207 b 747 150 743 207 757 193 l 731 57 b 664 0 724 14 707 0 l 32 0 b -15 57 -11 0 -22 14 l 0 138 b 28 194 4 158 13 176 l 565 781 l 176 781 b 131 836 133 781 124 796 l 146 929 b 213 986 156 972 169 986 "},"ž":{"ha":668,"x_min":0,"x_max":0,"o":"m 663 1024 b 678 981 701 1024 707 1010 l 521 847 b 421 804 476 808 465 804 l 396 804 b 306 847 346 804 335 808 l 197 981 b 225 1024 176 1003 186 1024 l 304 1024 b 379 996 350 1024 363 1019 l 425 935 l 489 994 b 578 1024 515 1021 532 1024 m 631 722 b 672 671 669 722 679 710 l 658 589 b 628 533 656 571 646 551 l 267 186 l 543 186 b 585 135 582 186 592 172 l 571 51 b 510 0 564 13 549 0 l 21 0 b -19 51 -17 0 -26 13 l -7 133 b 21 185 -3 154 7 171 l 378 536 l 122 536 b 82 588 85 536 75 550 l 96 671 b 156 722 103 710 118 722 "},"ſ":{"ha":436,"x_min":0,"x_max":0,"o":"m 188 728 b 578 1028 224 928 354 1028 b 619 975 617 1028 626 1015 l 606 894 b 544 842 599 854 583 842 b 396 715 460 842 411 800 l 279 51 b 217 0 272 13 257 0 l 111 0 b 69 51 72 0 63 13 l 154 536 l 94 536 b 51 588 56 536 44 549 l 67 671 b 126 722 74 710 89 722 l 188 722 "},"ƒ":{"ha":622,"x_min":0,"x_max":0,"o":"m 257 715 b 628 1028 296 921 407 1028 b 676 975 668 1028 681 1015 l 668 889 b 611 838 667 850 651 838 b 465 707 518 838 483 796 l 442 585 l 561 585 b 607 533 599 585 611 572 l 600 444 b 544 394 599 407 582 394 l 406 394 l 333 10 b -39 -306 293 -196 182 -306 b -86 -253 -78 -306 -90 -293 l -79 -167 b -22 -115 -78 -128 -61 -115 b 124 15 71 -115 107 -74 l 196 394 l 86 394 b 39 444 47 394 35 407 l 47 533 b 103 585 49 572 64 585 l 232 585 "},"Ǻ":{"ha":931,"x_min":0,"x_max":0,"o":"m 697 1349 b 783 1347 739 1364 768 1364 l 822 1301 b 808 1261 842 1281 838 1268 l 568 1196 b 510 1199 538 1188 518 1189 l 489 1226 b 511 1271 472 1244 479 1258 m 426 1019 b 633 1175 444 1118 528 1175 b 782 1008 738 1175 800 1113 b 713 906 775 969 753 935 l 888 56 b 840 0 894 18 878 0 l 742 0 b 649 51 674 0 653 11 l 629 182 l 286 182 l 218 51 b 107 0 197 11 175 0 l 4 0 b -22 56 -33 0 -43 18 l 457 906 b 426 1019 428 935 417 974 m 664 1015 b 615 1075 669 1050 649 1075 b 542 1015 578 1075 549 1050 b 594 956 536 981 557 956 b 664 1015 628 956 657 981 m 568 581 b 564 753 558 640 560 715 l 568 779 l 556 779 b 488 582 543 714 521 647 l 376 365 l 601 365 "},"ǻ":{"ha":753,"x_min":0,"x_max":0,"o":"m 544 1263 b 631 1260 585 1279 614 1278 l 668 1217 b 651 1175 686 1194 685 1182 l 410 1110 b 351 1111 379 1101 360 1101 l 332 1138 b 343 1176 315 1158 317 1165 m 343 933 b 532 1088 358 1024 438 1088 b 664 933 626 1088 681 1024 b 479 781 649 844 572 781 b 343 933 383 781 326 843 m 561 933 b 515 990 568 967 549 990 b 496 878 439 996 417 869 b 561 933 528 878 556 900 m 81 463 b 454 743 115 657 233 743 b 711 697 567 743 651 728 b 747 619 751 676 757 665 l 651 72 b 590 11 644 33 631 21 b 306 -21 504 -10 410 -21 b 50 288 106 -21 15 100 m 517 546 b 435 556 492 553 464 556 b 286 442 346 556 301 524 l 256 268 b 356 167 244 200 278 167 b 460 176 393 167 428 169 l 524 535 b 517 546 525 540 524 544 "},"Ǽ":{"ha":1222,"x_min":0,"x_max":0,"o":"m 1085 1263 b 1176 1258 1129 1286 1160 1285 l 1215 1199 b 1199 1143 1236 1169 1232 1156 l 940 1057 b 878 1060 907 1046 886 1047 l 857 1094 b 868 1147 840 1121 842 1135 m 1125 207 b 1171 150 1168 207 1178 190 l 1156 57 b 1089 0 1149 14 1132 0 l 621 0 b 574 57 578 0 567 14 l 596 179 l 324 179 l 222 50 b 110 0 193 11 176 0 l -1 0 b -28 56 -42 0 -51 18 l 681 939 b 757 986 713 978 722 986 l 1249 986 b 1296 929 1292 986 1303 972 l 1279 836 b 1213 781 1272 796 1256 781 l 910 781 l 879 601 l 1113 601 b 1158 546 1156 601 1165 586 l 1143 453 b 1075 396 1136 410 1118 396 l 842 396 l 808 207 m 682 651 l 465 358 l 628 358 "},"ǽ":{"ha":1079,"x_min":0,"x_max":0,"o":"m 694 1018 b 786 1015 739 1040 769 1039 l 826 956 b 810 900 847 926 843 913 l 551 811 b 489 815 518 800 497 801 l 468 849 b 481 901 450 875 453 889 m 600 668 b 815 743 656 718 728 743 b 1079 492 1008 743 1107 649 b 757 285 1056 358 940 285 b 619 297 722 285 676 289 l 613 261 b 707 151 600 188 632 151 b 838 207 761 151 806 169 b 914 225 865 242 879 247 l 975 186 b 979 106 1004 167 1006 140 b 675 -21 919 21 818 -21 b 506 19 604 -21 549 -7 b 282 -21 443 -7 368 -21 b 22 222 72 -21 -6 67 b 368 436 49 371 153 436 b 454 433 400 436 428 435 l 458 463 b 383 567 464 503 482 567 b 272 514 340 567 303 549 b 199 493 244 482 236 478 l 128 525 b 113 599 94 540 89 564 b 418 743 181 694 283 743 b 600 668 497 743 557 718 m 874 501 b 785 576 883 550 853 576 b 649 469 713 576 661 538 l 646 446 b 768 436 694 439 735 436 b 874 501 831 436 867 458 m 425 276 b 324 281 381 279 347 281 b 228 210 268 281 236 257 b 296 142 218 161 239 142 b 419 153 338 142 379 146 b 421 249 415 178 417 210 "},"Ǿ":{"ha":939,"x_min":0,"x_max":0,"o":"m 667 1276 b 758 1272 711 1300 742 1299 l 799 1213 b 781 1157 817 1183 815 1169 l 522 1071 b 460 1074 489 1060 468 1061 l 439 1108 b 450 1161 422 1135 424 1149 m 1018 1047 b 1024 1028 1031 1047 1033 1040 l 894 869 b 933 618 938 804 950 721 l 883 336 b 415 -21 843 104 678 -21 b 204 26 328 -21 258 -6 l 151 -37 b 110 -54 139 -53 136 -54 l -4 -54 b -10 -33 -19 -54 -22 -47 l 108 111 b 68 364 65 178 51 263 l 117 646 b 586 1007 160 878 325 1007 b 803 957 675 1007 747 990 l 861 1029 b 901 1047 872 1042 886 1047 m 660 778 b 556 800 636 793 601 800 b 343 638 432 800 361 746 l 294 367 b 290 326 292 353 290 339 m 708 617 b 713 653 710 626 713 651 l 346 207 b 447 186 371 193 404 186 b 660 349 571 186 642 240 "},"ǿ":{"ha":760,"x_min":0,"x_max":0,"o":"m 533 1018 b 625 1015 576 1040 607 1039 l 664 956 b 647 900 686 926 682 913 l 389 811 b 326 815 356 800 335 801 l 306 849 b 318 901 289 875 290 889 m 761 767 b 767 747 776 767 778 760 l 690 654 b 732 440 735 600 749 528 l 701 261 b 322 -21 668 78 539 -21 b 168 6 263 -21 211 -12 l 136 -32 b 96 -49 126 -43 114 -49 l 22 -49 b 17 -28 7 -49 6 -42 l 89 60 b 40 278 40 111 25 185 l 71 457 b 451 743 104 640 236 743 b 615 711 517 743 571 732 l 647 750 b 685 767 657 761 669 767 m 490 553 b 422 567 475 563 451 567 b 283 463 343 567 296 532 l 251 288 b 249 254 250 281 249 269 m 290 165 b 350 156 310 158 329 156 b 490 260 432 156 478 190 l 521 429 b 524 453 522 436 524 444 "},"Ș":{"ha":881,"x_min":0,"x_max":0,"o":"m 108 721 b 547 1007 142 904 292 1007 b 878 794 738 1007 833 929 b 838 725 889 757 881 742 l 731 682 b 664 710 692 665 679 672 b 517 801 643 771 594 801 b 335 706 406 801 344 769 b 385 631 329 671 344 646 b 526 603 425 615 460 610 b 828 269 686 583 871 511 b 375 -21 793 76 642 -21 b 13 204 163 -21 42 54 b 61 276 6 243 18 261 l 169 313 b 236 279 210 328 225 319 b 399 183 254 215 308 183 b 601 293 521 183 589 219 b 432 393 613 356 550 381 b 236 443 356 403 303 411 b 156 500 201 458 175 478 b 108 721 115 544 92 622 m 367 -315 b 300 -361 351 -346 329 -361 l 231 -361 b 204 -325 201 -361 194 -351 l 260 -129 b 329 -75 271 -89 286 -75 l 426 -74 b 465 -129 472 -74 485 -92 "},"ș":{"ha":706,"x_min":0,"x_max":0,"o":"m 71 524 b 407 743 97 664 211 743 b 685 594 556 743 647 693 b 647 521 697 557 688 538 l 565 489 b 499 511 522 474 517 478 b 383 561 479 544 440 561 b 271 511 315 561 278 544 b 394 449 264 471 294 458 b 646 208 583 428 674 364 b 294 -21 619 64 494 -21 b 3 144 125 -21 28 35 b 49 214 -4 179 11 201 l 138 242 b 201 213 178 253 186 247 b 318 160 217 178 256 160 b 449 217 397 160 440 179 b 313 283 456 261 425 272 b 128 343 235 290 178 308 b 71 524 78 378 56 440 m 318 -276 b 244 -322 297 -314 283 -322 l 186 -322 b 158 -285 154 -322 149 -314 l 200 -131 b 276 -71 213 -85 232 -71 l 361 -71 b 394 -131 404 -71 415 -90 "},"Ț":{"ha":807,"x_min":0,"x_max":0,"o":"m 839 986 b 885 929 882 986 892 972 l 869 836 b 803 781 860 796 843 781 l 585 781 l 457 57 b 390 0 450 14 433 0 l 278 0 b 232 57 238 0 225 14 l 360 781 l 142 781 b 96 836 99 781 89 796 l 111 929 b 178 986 118 972 135 986 m 322 -315 b 256 -361 307 -346 285 -361 l 186 -361 b 160 -325 157 -361 150 -351 l 215 -129 b 285 -75 226 -89 244 -75 l 382 -74 b 421 -129 428 -74 440 -92 "},"ț":{"ha":553,"x_min":0,"x_max":0,"o":"m 383 889 b 425 838 421 889 432 876 l 406 722 l 533 722 b 574 671 571 722 581 710 l 560 588 b 500 536 553 549 539 536 l 372 536 l 331 303 b 435 174 314 197 339 174 b 478 121 474 174 485 161 l 463 33 b 401 -19 456 -6 440 -18 b 154 44 281 -24 197 -1 b 119 294 110 90 99 174 l 163 536 l 88 536 b 46 588 50 536 39 549 l 60 671 b 121 722 67 710 82 722 l 196 722 l 215 838 b 275 889 222 876 238 889 m 242 -315 b 175 -361 226 -346 204 -361 l 106 -361 b 79 -325 76 -361 69 -351 l 136 -129 b 204 -75 147 -89 164 -75 l 303 -74 b 340 -129 347 -74 360 -92 "},"ȷ":{"ha":351,"x_min":0,"x_max":0,"o":"m 288 722 b 331 671 328 722 338 710 l 211 -11 b -179 -319 174 -217 44 -319 b -224 -267 -219 -319 -231 -307 l -208 -181 b -146 -129 -201 -142 -186 -129 b 3 -1 -61 -129 -12 -86 l 121 671 b 183 722 128 710 143 722 "},"ˆ":{"ha":557,"x_min":0,"x_max":0,"o":"m 408 1026 b 493 983 451 1026 461 1022 l 603 850 b 572 807 621 828 613 807 l 496 807 b 418 835 447 807 435 811 l 375 896 l 310 835 b 224 807 281 808 269 807 l 136 807 b 121 850 96 807 94 828 l 278 983 b 329 1019 300 1003 317 1015 b 383 1026 340 1024 358 1026 "},"ˇ":{"ha":497,"x_min":0,"x_max":0,"o":"m 588 1024 b 603 981 628 1024 629 1003 l 446 847 b 346 804 401 808 390 804 l 321 804 b 231 847 271 804 263 808 l 122 981 b 151 1024 101 1003 111 1024 l 229 1024 b 304 996 275 1024 288 1019 l 351 935 l 414 994 b 503 1024 440 1021 457 1024 "},"˘":{"ha":399,"x_min":0,"x_max":0,"o":"m 526 949 b 281 807 475 854 393 807 b 76 949 169 807 92 860 b 107 994 71 972 79 985 l 179 1021 b 228 1004 211 1031 218 1026 b 300 951 235 969 260 951 b 389 1006 338 951 367 969 b 436 1024 400 1025 415 1031 l 513 994 b 526 949 535 983 539 975 "},"˙":{"ha":301,"x_min":0,"x_max":0,"o":"m 279 1008 b 356 917 350 1008 367 988 l 353 906 b 244 814 340 835 315 814 l 236 814 b 161 906 165 814 149 835 l 164 917 b 271 1008 175 988 200 1008 "},"˚":{"ha":333,"x_min":0,"x_max":0,"o":"m 115 924 b 307 1079 132 1017 211 1079 b 440 924 400 1079 456 1014 b 253 771 424 833 347 771 b 115 924 157 771 100 833 m 336 924 b 290 982 342 958 322 982 b 219 924 253 982 225 958 b 269 868 214 892 235 868 b 336 924 303 868 331 890 "},"˛":{"ha":350,"x_min":0,"x_max":0,"o":"m 217 1 b 110 -169 143 -76 108 -133 b 132 -197 110 -187 117 -197 b 157 -190 142 -197 150 -194 b 188 -199 175 -181 185 -183 l 203 -264 b 193 -300 207 -279 204 -292 b 43 -340 160 -326 110 -340 b -78 -236 -25 -340 -76 -303 b 82 0 -78 -160 -25 -81 "},"˜":{"ha":424,"x_min":0,"x_max":0,"o":"m 525 1015 b 550 985 546 1015 554 1006 b 396 819 529 863 483 819 b 300 854 363 819 331 831 b 233 889 269 878 247 889 b 204 850 218 889 208 876 b 171 819 201 829 190 819 l 108 819 b 83 851 88 819 79 831 b 235 1015 104 972 153 1015 b 400 946 321 1015 363 946 b 429 986 415 946 425 960 b 464 1015 433 1006 444 1015 "},"˝":{"ha":549,"x_min":0,"x_max":0,"o":"m 640 1003 b 646 946 678 990 679 972 l 468 818 b 406 797 442 797 421 790 l 369 806 b 346 826 354 810 346 817 l 340 822 b 276 801 307 800 297 794 l 242 813 b 235 863 214 819 211 836 l 346 989 b 438 1022 374 1021 404 1032 l 496 1003 b 574 1022 519 1024 544 1031 "},"̦":{"ha":0,"x_min":0,"x_max":0,"o":"m 122 -315 b 56 -361 107 -346 85 -361 l -14 -361 b -40 -325 -43 -361 -50 -351 l 15 -129 b 85 -75 28 -89 44 -75 l 182 -74 b 221 -129 228 -74 240 -92 "},"π":{"ha":914,"x_min":0,"x_max":0,"o":"m 896 722 b 938 671 935 722 944 710 l 922 586 b 863 533 917 547 901 533 l 835 533 l 779 221 b 781 113 772 183 774 147 b 740 38 792 78 778 53 l 640 1 b 574 28 600 -15 583 -11 b 569 222 558 85 557 149 l 625 533 l 415 533 l 331 51 b 269 0 324 13 308 0 l 163 0 b 121 51 124 0 114 13 l 206 533 b 136 515 192 532 168 526 b 74 538 101 499 81 504 l 53 619 b 90 686 43 651 56 674 b 300 722 153 710 224 722 "},"Ё":{"ha":811,"x_min":0,"x_max":0,"o":"m 447 1244 b 521 1156 514 1244 532 1222 l 518 1140 b 413 1053 506 1074 479 1053 l 403 1053 b 329 1140 336 1053 318 1074 l 332 1156 b 436 1244 344 1222 369 1244 m 733 1244 b 806 1156 801 1244 818 1222 l 803 1140 b 700 1053 792 1074 767 1053 l 690 1053 b 615 1140 622 1053 603 1075 l 618 1156 b 724 1244 629 1222 656 1244 m 807 986 b 854 929 850 986 861 972 l 838 836 b 771 781 831 796 814 781 l 381 781 l 350 601 l 671 601 b 717 546 711 601 724 589 l 700 453 b 633 396 693 410 676 396 l 313 396 l 279 207 l 683 207 b 729 150 726 207 736 190 l 713 57 b 647 0 706 14 690 0 l 75 0 b 28 57 32 0 21 14 l 182 929 b 249 986 192 972 206 986 "},"А":{"ha":931,"x_min":0,"x_max":0,"o":"m 888 56 b 840 0 894 18 878 0 l 743 0 b 649 51 672 0 654 11 l 629 182 l 285 182 l 218 51 b 108 0 197 11 176 0 l 6 0 b -22 56 -33 0 -43 18 l 467 939 b 543 986 485 976 503 986 l 650 986 b 713 942 690 986 706 976 m 568 581 b 565 753 561 640 561 715 l 568 779 l 557 779 b 489 582 544 714 522 647 l 378 365 l 603 365 "},"Б":{"ha":886,"x_min":0,"x_max":0,"o":"m 836 986 b 882 929 879 986 889 972 l 867 842 b 800 785 860 799 843 785 l 382 785 l 353 624 l 567 624 b 789 535 664 624 738 594 b 838 300 839 475 856 396 b 475 0 804 110 668 0 l 74 0 b 28 54 33 0 21 14 l 182 929 b 249 986 189 972 206 986 m 607 311 b 511 422 619 378 583 422 l 318 422 l 279 201 l 472 201 b 607 311 544 201 596 244 "},"В":{"ha":908,"x_min":0,"x_max":0,"o":"m 639 986 b 888 714 821 986 917 875 b 756 518 869 619 832 567 l 754 513 b 846 264 833 475 867 386 b 472 0 814 92 668 0 l 75 0 b 28 57 32 0 21 14 l 182 929 b 249 986 192 972 206 986 m 536 597 b 653 692 603 597 642 629 b 569 786 664 754 636 786 l 382 786 l 349 597 m 614 300 b 528 401 625 368 596 401 l 315 401 l 279 200 l 492 200 b 614 300 561 200 601 233 "},"Г":{"ha":733,"x_min":0,"x_max":0,"o":"m 761 986 b 808 929 804 986 815 972 l 792 836 b 725 781 785 796 768 781 l 381 781 l 253 57 b 188 0 246 14 231 0 l 75 0 b 28 57 32 0 21 14 l 182 929 b 249 986 192 972 206 986 "},"Д":{"ha":1060,"x_min":0,"x_max":0,"o":"m 961 986 b 1008 929 1004 986 1015 972 l 881 207 l 947 207 b 993 150 990 207 1000 190 l 939 -156 b 874 -212 932 -199 917 -212 l 765 -212 b 718 -156 722 -212 711 -199 l 746 0 l 181 0 l 153 -156 b 86 -212 146 -199 129 -212 l -22 -212 b -69 -156 -65 -212 -76 -199 l -15 150 b 51 207 -6 193 11 207 l 79 207 b 189 340 119 233 157 278 b 272 632 221 403 249 500 l 324 929 b 390 986 333 972 347 986 m 515 779 l 490 633 b 339 207 456 440 404 297 l 654 207 l 756 779 "},"Е":{"ha":811,"x_min":0,"x_max":0,"o":"m 807 986 b 854 929 850 986 861 972 l 838 836 b 771 781 831 796 814 781 l 381 781 l 350 601 l 671 601 b 717 546 711 601 724 589 l 700 453 b 633 396 693 410 676 396 l 313 396 l 279 207 l 683 207 b 729 150 726 207 736 190 l 713 57 b 647 0 706 14 690 0 l 75 0 b 28 57 32 0 21 14 l 182 929 b 249 986 192 972 206 986 "},"Ж":{"ha":1332,"x_min":0,"x_max":0,"o":"m 1369 986 b 1389 931 1408 986 1415 960 l 1065 525 b 1135 399 1093 497 1117 456 l 1251 60 b 1210 0 1264 19 1250 0 l 1103 0 b 1000 51 1031 0 1013 8 l 919 318 b 793 399 901 381 872 399 l 781 399 l 719 57 b 653 0 713 14 696 0 l 540 0 b 494 57 500 0 488 14 l 556 399 l 542 399 b 457 383 504 399 475 393 b 396 318 439 372 418 350 l 218 51 b 94 0 189 8 167 0 l -17 0 b -36 60 -57 0 -62 26 l 200 399 b 317 525 240 456 279 499 l 135 931 b 171 986 119 960 133 986 l 288 986 b 388 939 358 986 369 982 l 533 600 b 576 601 543 601 558 601 l 590 601 l 649 929 b 714 986 656 972 671 986 l 826 986 b 874 929 869 986 881 972 l 815 601 l 828 601 b 868 600 846 601 858 601 l 1129 939 b 1249 986 1161 979 1181 986 "},"З":{"ha":890,"x_min":0,"x_max":0,"o":"m 871 703 b 733 515 856 621 810 558 b 829 271 818 464 850 383 b 406 -21 794 76 653 -21 b 10 213 172 -21 40 57 b 58 285 3 247 19 272 l 168 322 b 233 286 208 338 226 326 b 429 183 249 215 306 183 b 594 292 525 183 579 219 b 504 400 606 364 575 400 l 342 400 b 294 456 299 400 288 413 l 310 542 b 376 599 319 585 333 599 l 515 599 b 642 700 588 599 629 632 b 526 803 653 768 615 803 b 313 700 422 803 351 768 b 235 664 290 660 272 651 l 139 701 b 117 774 104 714 96 739 b 565 1007 201 929 339 1007 b 871 703 792 1007 906 888 "},"И":{"ha":979,"x_min":0,"x_max":0,"o":"m 942 986 b 988 929 985 986 994 972 l 835 57 b 768 0 828 14 811 0 l 656 0 b 608 57 613 0 601 14 l 665 372 b 721 592 683 478 704 549 b 768 708 728 613 744 651 l 760 708 b 678 567 728 647 700 600 b 578 432 656 532 622 488 l 253 26 b 193 0 238 8 218 0 l 75 0 b 28 57 32 0 21 14 l 182 929 b 249 986 192 972 206 986 l 361 986 b 407 929 404 986 414 972 l 353 614 b 315 446 340 540 328 483 b 250 278 303 408 282 351 l 257 278 b 343 424 290 339 319 388 b 443 561 367 460 400 506 l 764 960 b 824 986 779 978 799 986 "},"Й":{"ha":979,"x_min":0,"x_max":0,"o":"m 760 1090 b 611 1053 715 1065 665 1053 b 476 1090 557 1053 511 1065 b 413 1193 442 1114 419 1149 b 442 1240 407 1219 414 1231 l 521 1268 b 567 1251 550 1278 560 1274 b 636 1197 575 1215 599 1197 b 724 1251 674 1197 703 1215 b 772 1269 736 1269 753 1276 l 847 1240 b 863 1193 871 1229 875 1219 b 760 1090 839 1149 804 1114 m 942 986 b 988 929 985 986 994 972 l 835 57 b 768 0 828 14 811 0 l 656 0 b 608 57 613 0 601 14 l 665 372 b 721 592 683 478 704 549 b 768 708 728 613 744 651 l 760 708 b 678 567 728 647 700 600 b 578 432 656 532 622 488 l 253 26 b 193 0 238 8 218 0 l 75 0 b 28 57 32 0 21 14 l 182 929 b 249 986 192 972 206 986 l 361 986 b 407 929 404 986 414 972 l 353 614 b 315 446 340 540 328 483 b 250 278 303 408 282 351 l 257 278 b 343 424 290 339 319 388 b 443 561 367 460 400 506 l 764 960 b 824 986 779 978 799 986 "},"К":{"ha":890,"x_min":0,"x_max":0,"o":"m 811 60 b 771 0 826 26 811 0 l 660 0 b 556 51 588 0 568 8 l 472 315 b 350 399 450 381 428 399 l 314 399 l 253 57 b 188 0 246 14 231 0 l 75 0 b 28 57 32 0 21 14 l 182 929 b 249 986 192 972 206 986 l 361 986 b 407 929 404 986 414 972 l 349 601 l 371 601 l 386 601 l 690 939 b 739 978 708 960 725 972 b 808 986 751 983 775 986 l 931 986 b 950 931 969 986 976 960 l 588 539 b 693 399 635 513 669 465 "},"Л":{"ha":957,"x_min":0,"x_max":0,"o":"m 922 986 b 969 929 965 986 976 972 l 815 57 b 749 0 808 14 792 0 l 638 0 b 590 57 594 0 583 14 l 718 779 l 492 779 l 467 633 b 299 165 428 415 371 258 b 75 -11 225 71 165 29 b 4 17 32 -29 15 -22 l -32 113 b 8 189 -44 150 -35 168 b 132 294 57 211 86 233 b 246 632 178 356 217 471 l 297 929 b 364 986 307 972 321 986 "},"М":{"ha":1139,"x_min":0,"x_max":0,"o":"m 1101 986 b 1149 931 1144 986 1156 971 l 994 56 b 928 0 988 15 971 0 l 824 0 b 778 56 781 0 771 15 l 833 371 b 933 683 847 456 881 560 l 922 683 b 765 425 879 593 826 507 l 638 249 b 567 208 615 219 600 208 l 510 208 b 454 249 476 208 465 217 l 385 425 b 326 683 358 492 339 578 l 315 683 b 303 369 322 561 318 457 l 247 56 b 181 0 240 15 224 0 l 75 0 b 28 56 32 0 21 13 l 182 931 b 249 986 189 971 206 986 l 336 986 b 408 944 382 986 396 978 l 581 474 l 919 943 b 1001 986 946 981 957 986 "},"Н":{"ha":960,"x_min":0,"x_max":0,"o":"m 922 986 b 968 929 965 986 975 972 l 814 57 b 749 0 807 14 792 0 l 636 0 b 589 57 593 0 582 14 l 649 396 l 314 396 l 254 57 b 188 0 247 14 231 0 l 75 0 b 28 57 32 0 21 14 l 182 929 b 249 986 189 972 206 986 l 361 986 b 407 929 404 986 414 972 l 350 603 l 686 603 l 743 929 b 810 986 753 972 767 986 "},"О":{"ha":938,"x_min":0,"x_max":0,"o":"m 129 646 b 597 1007 169 878 336 1007 b 883 901 726 1007 822 972 b 944 618 943 831 964 736 l 894 336 b 426 -21 854 104 689 -21 b 142 85 297 -21 201 14 b 79 364 81 154 60 247 m 724 638 b 567 800 742 744 685 800 b 354 638 443 800 372 746 l 303 349 b 458 186 285 242 340 186 b 672 349 582 186 653 240 "},"П":{"ha":953,"x_min":0,"x_max":0,"o":"m 914 986 b 961 929 957 986 968 972 l 807 57 b 740 0 800 14 783 0 l 628 0 b 582 57 588 0 575 14 l 710 781 l 381 781 l 253 57 b 188 0 246 14 231 0 l 75 0 b 28 57 32 0 21 14 l 182 929 b 249 986 192 972 206 986 "},"Р":{"ha":889,"x_min":0,"x_max":0,"o":"m 619 986 b 851 889 724 986 800 954 b 899 635 901 824 917 739 b 504 321 861 429 717 321 l 300 321 l 253 57 b 188 0 246 14 231 0 l 75 0 b 28 57 32 0 21 14 l 182 929 b 249 986 192 972 206 986 m 517 528 b 668 653 599 528 656 574 b 561 781 683 732 640 781 l 381 781 l 336 528 "},"С":{"ha":889,"x_min":0,"x_max":0,"o":"m 129 647 b 600 1007 169 879 338 1007 b 935 769 793 1007 906 928 b 890 697 942 729 933 710 l 789 664 b 722 699 746 651 732 658 b 567 800 708 767 657 800 b 353 635 443 800 372 744 l 303 351 b 458 186 283 242 335 186 b 651 288 549 186 613 219 b 729 322 674 328 692 338 l 833 282 b 857 210 871 267 878 249 b 425 -21 772 56 629 -21 b 79 364 165 -21 40 129 "},"Т":{"ha":807,"x_min":0,"x_max":0,"o":"m 839 986 b 885 929 882 986 892 972 l 869 836 b 803 781 860 796 843 781 l 585 781 l 457 57 b 390 0 450 14 433 0 l 278 0 b 232 57 238 0 225 14 l 360 781 l 142 781 b 96 836 99 781 89 796 l 111 929 b 178 986 118 972 135 986 "},"У":{"ha":865,"x_min":0,"x_max":0,"o":"m 938 986 b 957 929 972 986 978 967 l 414 50 b 313 0 388 7 372 0 l 179 0 b 161 57 143 0 138 19 l 317 293 l 110 929 b 149 986 97 967 111 986 l 265 986 b 361 936 336 986 349 982 l 479 549 l 713 936 b 749 979 726 960 739 974 b 814 986 758 983 781 986 "},"Ф":{"ha":1181,"x_min":0,"x_max":0,"o":"m 789 1021 b 835 964 832 1021 842 1007 l 825 903 l 882 903 b 1200 538 1126 903 1240 764 l 1183 440 b 740 90 1144 217 989 90 l 682 90 l 671 29 b 604 -28 664 -14 647 -28 l 492 -28 b 444 29 449 -28 438 -14 l 456 90 l 397 90 b 81 460 153 90 40 232 l 97 557 b 540 903 138 781 292 903 l 599 903 l 610 964 b 676 1021 617 1007 633 1021 m 508 704 b 325 554 404 704 343 654 l 304 439 b 436 289 288 339 332 289 l 490 289 l 563 704 m 975 554 b 843 704 993 654 950 704 l 789 704 l 717 289 l 771 289 b 954 439 876 289 938 339 "},"Х":{"ha":903,"x_min":0,"x_max":0,"o":"m 947 986 b 965 932 985 986 992 960 l 608 504 l 824 57 b 786 0 842 28 825 0 l 657 0 b 556 50 586 0 574 4 l 435 325 l 229 50 b 183 8 211 28 196 14 b 111 0 169 3 146 0 l -21 0 b -39 57 -60 0 -65 25 l 332 503 l 129 932 b 165 986 113 960 126 986 l 289 986 b 393 939 356 986 369 979 l 503 682 l 701 939 b 747 979 719 960 735 974 b 813 986 760 983 781 986 "},"Ц":{"ha":1004,"x_min":0,"x_max":0,"o":"m 889 207 b 935 150 932 207 942 190 l 881 -156 b 815 -212 874 -199 858 -212 l 713 -212 b 665 -156 669 -212 658 -199 l 693 0 l 75 0 b 28 57 32 0 21 14 l 182 929 b 249 986 192 972 206 986 l 361 986 b 407 929 404 986 414 972 l 279 207 l 603 207 l 729 929 b 796 986 736 972 753 986 l 908 986 b 956 929 951 986 963 972 l 828 207 "},"Ч":{"ha":900,"x_min":0,"x_max":0,"o":"m 919 986 b 965 929 963 986 972 972 l 813 57 b 746 0 806 14 789 0 l 633 0 b 586 57 590 0 579 14 l 640 357 b 463 344 585 349 525 344 b 156 714 217 344 114 468 l 193 929 b 260 986 200 972 217 986 l 372 986 b 419 929 415 986 426 972 l 378 699 b 519 554 360 592 401 554 b 678 571 578 554 631 560 l 740 929 b 807 986 750 972 764 986 "},"Ш":{"ha":1306,"x_min":0,"x_max":0,"o":"m 1268 986 b 1315 929 1311 986 1322 972 l 1161 57 b 1094 0 1154 14 1138 0 l 75 0 b 28 57 32 0 21 14 l 182 929 b 249 986 192 972 206 986 l 361 986 b 407 929 404 986 414 972 l 279 207 l 508 207 l 636 929 b 701 986 643 972 658 986 l 814 986 b 861 929 857 986 868 972 l 733 207 l 961 207 l 1089 929 b 1156 986 1099 972 1113 986 "},"Щ":{"ha":1364,"x_min":0,"x_max":0,"o":"m 1247 207 b 1294 150 1290 207 1304 193 l 1240 -157 b 1174 -212 1233 -197 1217 -212 l 1072 -212 b 1025 -157 1029 -212 1018 -200 l 1053 0 l 75 0 b 28 57 32 0 21 14 l 182 929 b 249 986 192 972 206 986 l 361 986 b 407 929 404 986 414 972 l 279 207 l 508 207 l 636 929 b 701 986 643 972 658 986 l 814 986 b 861 929 857 986 868 972 l 733 207 l 961 207 l 1089 929 b 1156 986 1099 972 1113 986 l 1268 986 b 1315 929 1311 986 1322 972 l 1188 207 "},"Ъ":{"ha":1049,"x_min":0,"x_max":0,"o":"m 715 665 b 953 568 819 665 899 633 b 1006 315 1006 503 1024 419 b 615 0 968 108 826 0 l 238 0 b 190 57 194 0 183 14 l 318 779 l 142 779 b 96 836 99 779 89 796 l 111 929 b 178 986 118 972 135 986 l 522 986 b 569 929 565 986 576 972 l 524 665 m 622 206 b 774 333 701 206 758 254 b 667 458 786 413 749 458 l 488 458 l 442 206 "},"Ы":{"ha":1290,"x_min":0,"x_max":0,"o":"m 842 319 b 451 0 807 114 661 0 l 75 0 b 28 57 32 0 21 14 l 182 929 b 249 986 192 972 206 986 l 361 986 b 407 929 404 986 414 972 l 361 665 l 557 665 b 792 571 661 665 740 633 b 842 319 843 508 860 424 m 1075 931 b 1140 986 1085 974 1100 986 l 1254 986 b 1300 931 1297 986 1307 971 l 1146 56 b 1081 0 1139 15 1124 0 l 967 0 b 921 56 926 0 914 13 m 611 333 b 506 458 624 413 588 458 l 325 458 l 279 206 l 460 206 b 611 333 539 206 596 254 "},"Ь":{"ha":885,"x_min":0,"x_max":0,"o":"m 842 319 b 451 0 807 114 661 0 l 75 0 b 28 57 32 0 21 14 l 182 929 b 249 986 192 972 206 986 l 361 986 b 407 929 404 986 414 972 l 361 665 l 557 665 b 792 571 661 665 740 633 b 842 319 843 508 860 424 m 560 240 b 611 333 586 263 604 293 b 594 426 618 374 613 404 b 504 458 575 447 544 458 l 325 458 l 279 206 l 460 206 b 560 240 500 206 533 217 "},"Э":{"ha":896,"x_min":0,"x_max":0,"o":"m 108 774 b 539 1007 193 929 338 1007 b 821 900 668 1007 761 971 b 879 617 881 829 900 735 l 831 336 b 367 -21 788 104 628 -21 b 10 213 163 -21 38 63 b 58 285 3 251 15 272 l 168 322 b 233 286 208 338 226 326 b 393 183 247 218 300 183 b 607 346 515 183 586 238 l 615 397 l 332 397 b 286 454 289 397 276 411 l 301 544 b 368 601 308 588 325 601 l 651 601 l 658 642 b 503 803 676 747 621 803 b 304 700 411 803 344 768 b 226 665 282 660 265 653 l 131 701 b 108 774 93 717 88 735 "},"Ю":{"ha":1325,"x_min":0,"x_max":0,"o":"m 515 651 b 976 1007 550 878 721 1007 b 1307 621 1228 1007 1347 856 l 1258 339 b 797 -21 1215 107 1053 -21 b 463 354 546 -21 424 125 l 469 396 l 314 396 l 254 57 b 188 0 247 14 231 0 l 75 0 b 28 57 32 0 21 14 l 182 929 b 249 986 192 972 206 986 l 361 986 b 407 929 404 986 414 972 l 350 603 l 507 603 m 1086 639 b 940 800 1104 746 1056 800 b 739 639 825 800 757 746 l 688 347 b 832 186 669 242 719 186 b 1033 347 947 186 1014 240 "},"Я":{"ha":911,"x_min":0,"x_max":0,"o":"m 140 683 b 522 986 175 882 317 986 l 907 986 b 954 929 950 986 961 972 l 800 57 b 733 0 793 14 776 0 l 621 0 b 575 57 581 0 568 14 l 626 350 l 564 350 b 411 268 482 350 451 335 l 281 51 b 157 0 254 8 231 0 l 46 0 b 26 60 6 0 0 19 l 207 333 b 250 396 217 346 242 385 b 140 683 160 446 117 549 m 508 781 b 374 667 433 781 389 743 b 469 554 361 594 396 554 l 663 554 l 703 781 "},"а":{"ha":753,"x_min":0,"x_max":0,"o":"m 81 463 b 454 743 115 657 233 743 b 711 697 567 743 651 728 b 747 619 751 676 757 665 l 651 72 b 590 11 644 33 631 21 b 306 -21 504 -10 410 -21 b 50 288 106 -21 15 100 m 517 546 b 435 556 492 553 464 556 b 286 442 346 556 301 524 l 256 268 b 356 167 244 200 278 167 b 460 176 393 167 428 169 l 524 535 b 517 546 525 540 524 544 "},"б":{"ha":772,"x_min":0,"x_max":0,"o":"m 625 1013 b 725 1028 668 1013 701 1018 b 790 994 763 1046 783 1035 l 803 919 b 760 846 808 881 799 867 b 600 824 728 831 674 824 l 551 824 b 328 653 406 824 350 781 l 325 638 b 507 701 372 681 433 701 b 747 401 689 701 782 590 l 722 261 b 349 -21 688 74 564 -21 b 64 282 136 -21 31 97 l 117 590 b 263 914 143 740 192 849 b 583 1013 333 979 440 1013 m 539 411 b 439 515 550 481 517 515 b 297 411 356 515 308 481 l 272 269 b 372 165 260 200 293 165 b 514 269 454 165 501 200 "},"в":{"ha":756,"x_min":0,"x_max":0,"o":"m 192 706 b 440 743 260 731 343 743 b 657 682 538 743 610 722 b 710 518 704 640 722 586 b 590 381 699 456 658 410 b 693 210 663 354 706 292 b 332 -21 671 56 550 -21 b 67 10 214 -21 125 -11 b 17 93 26 22 10 50 l 107 603 b 192 706 117 654 144 689 m 499 506 b 410 571 504 546 471 571 b 314 561 371 571 339 568 b 306 551 308 560 306 556 l 286 443 l 390 443 b 499 506 454 443 490 464 m 479 222 b 368 293 486 268 450 293 l 261 293 l 238 163 b 240 157 238 160 239 158 b 338 150 272 153 306 150 b 479 222 422 150 469 174 "},"г":{"ha":708,"x_min":0,"x_max":0,"o":"m 110 594 b 440 743 179 693 289 743 b 701 517 629 743 724 650 b 582 339 685 428 646 369 b 378 290 518 308 465 297 b 211 213 274 281 218 256 b 325 154 204 168 240 154 b 469 211 393 154 442 174 b 543 240 493 246 510 253 l 615 214 b 638 142 650 201 658 178 b 296 -21 576 33 463 -21 b 18 211 94 -21 -8 71 b 351 443 46 363 151 426 b 506 514 447 453 499 468 b 404 565 511 551 486 565 b 268 511 344 565 299 547 b 193 489 240 478 231 474 l 124 521 b 110 594 90 536 86 560 "},"д":{"ha":771,"x_min":0,"x_max":0,"o":"m 261 981 b 321 1033 267 1019 282 1033 b 626 989 463 1033 564 1018 b 756 538 760 924 800 783 l 707 263 b 329 -21 675 79 544 -21 b 46 278 114 -21 13 94 l 72 421 b 411 696 101 597 233 696 b 581 633 489 696 546 675 b 497 819 593 757 560 790 b 293 850 457 840 389 850 b 247 900 253 850 242 861 m 522 411 b 419 515 533 481 499 515 b 281 411 338 515 292 481 l 256 269 b 357 165 243 200 276 165 b 497 269 438 165 485 200 "},"е":{"ha":744,"x_min":0,"x_max":0,"o":"m 81 458 b 465 743 114 642 250 743 b 690 672 563 743 638 719 b 749 482 742 624 761 561 b 413 285 725 350 614 285 b 260 297 374 285 322 289 l 254 261 b 358 151 240 188 275 151 b 506 207 422 151 471 169 b 589 225 538 240 551 246 l 651 188 b 658 106 683 168 685 140 b 328 -21 593 21 482 -21 b 92 71 215 -21 136 10 b 51 304 47 132 33 210 m 544 501 b 438 576 551 550 515 576 b 290 465 360 576 306 533 l 286 447 b 421 436 346 440 390 436 b 544 501 494 436 536 458 "},"ж":{"ha":1060,"x_min":0,"x_max":0,"o":"m 640 722 b 683 669 681 722 690 710 l 647 460 l 667 460 l 675 460 l 840 681 b 942 722 867 718 882 722 l 1042 722 b 1065 661 1090 722 1097 701 l 847 390 b 897 307 868 375 885 347 l 972 63 b 926 0 988 18 976 0 l 831 0 b 747 47 769 0 757 7 l 707 218 b 632 274 697 254 672 272 l 615 274 l 575 53 b 513 0 568 13 553 0 l 410 0 b 365 53 369 0 358 13 l 406 274 l 392 274 b 296 218 349 274 317 256 l 194 47 b 94 0 171 7 154 0 l -1 0 b -25 63 -51 0 -57 18 l 135 308 b 211 397 167 354 193 385 l 92 661 b 138 722 72 701 88 722 l 228 722 b 318 681 288 722 306 715 l 410 460 l 421 460 l 438 460 l 474 669 b 538 722 481 710 494 722 "},"з":{"ha":711,"x_min":0,"x_max":0,"o":"m 83 569 b 418 743 143 685 254 743 b 685 519 606 743 706 660 b 576 372 675 458 638 396 l 575 368 b 646 201 635 338 658 282 b 304 -21 622 53 508 -21 b -1 163 131 -21 28 40 b 47 236 -11 200 6 225 l 132 261 b 199 229 176 274 189 267 b 324 156 210 181 251 156 b 439 224 393 156 432 178 b 385 282 446 258 425 282 l 269 282 b 229 332 232 282 222 294 l 240 394 b 299 444 246 432 261 444 l 403 444 b 478 499 446 444 471 463 b 396 568 485 542 453 568 b 258 504 331 568 285 547 b 181 469 236 465 221 458 l 104 496 b 83 569 69 508 63 532 "},"и":{"ha":771,"x_min":0,"x_max":0,"o":"m 731 722 b 772 671 769 722 779 710 l 674 110 b 604 29 664 64 653 47 b 313 -21 518 -4 421 -21 b 65 281 113 -21 32 93 l 133 671 b 194 722 140 710 156 722 l 301 722 b 343 671 340 722 350 710 l 274 274 b 374 169 261 201 292 169 b 465 179 406 169 436 172 b 479 194 474 182 478 188 l 563 671 b 624 722 569 710 585 722 "},"й":{"ha":771,"x_min":0,"x_max":0,"o":"m 726 931 b 468 782 675 836 583 782 b 253 931 353 782 271 838 b 286 979 249 958 257 969 l 361 1007 b 413 989 393 1017 403 1013 b 489 933 419 951 446 933 b 582 992 526 933 558 953 b 631 1010 594 1011 611 1017 l 711 979 b 726 931 733 969 739 953 m 731 722 b 772 671 769 722 779 710 l 674 110 b 604 29 664 64 653 47 b 313 -21 518 -4 421 -21 b 65 281 113 -21 32 93 l 133 671 b 194 722 140 710 156 722 l 301 722 b 343 671 340 722 350 710 l 274 274 b 374 169 261 201 292 169 b 465 179 406 169 436 172 b 479 194 474 182 478 188 l 563 671 b 624 722 569 710 585 722 "},"к":{"ha":740,"x_min":0,"x_max":0,"o":"m 653 63 b 606 0 668 18 656 0 l 514 0 b 432 47 457 0 444 7 l 388 218 b 310 276 376 257 350 276 l 260 276 l 221 53 b 158 0 214 13 199 0 l 54 0 b 11 53 14 0 4 13 l 119 669 b 182 722 126 710 142 722 l 286 722 b 329 669 326 722 336 710 l 293 460 l 318 460 l 329 460 l 526 681 b 632 722 558 718 572 722 l 725 722 b 742 654 775 722 779 693 l 511 399 b 575 307 538 386 560 356 "},"л":{"ha":771,"x_min":0,"x_max":0,"o":"m 714 722 b 756 671 753 722 763 710 l 647 51 b 588 0 640 13 625 0 l 479 0 b 438 51 442 0 431 13 l 522 532 l 382 532 l 350 400 b 201 64 304 207 261 117 b 83 -8 158 25 133 14 b 64 -17 75 -12 68 -15 b 6 11 35 -28 15 -18 l -32 110 b -4 165 -39 133 -31 153 b 33 185 -3 165 25 178 b 81 231 42 190 65 207 b 156 425 103 267 132 325 l 213 671 b 274 722 222 710 235 722 "},"м":{"ha":901,"x_min":0,"x_max":0,"o":"m 836 722 b 882 667 881 722 889 710 l 774 51 b 713 0 767 13 751 0 l 622 0 b 579 51 582 0 572 11 l 610 222 b 688 453 621 282 647 360 l 681 453 b 586 299 653 396 621 344 l 500 183 b 432 146 478 151 467 146 l 381 146 b 325 183 347 146 336 151 l 279 299 b 242 453 264 338 251 389 l 235 453 b 231 221 240 346 239 268 l 201 51 b 140 0 194 13 179 0 l 51 0 b 10 51 11 0 3 11 l 118 667 b 185 722 125 710 140 722 l 263 722 b 329 681 303 722 317 714 l 443 369 l 667 679 b 744 722 689 713 704 722 "},"н":{"ha":774,"x_min":0,"x_max":0,"o":"m 714 722 b 754 671 751 722 761 710 l 646 51 b 586 0 639 13 624 0 l 478 0 b 436 51 439 0 429 13 l 475 271 l 260 271 l 221 51 b 161 0 214 13 199 0 l 53 0 b 11 51 14 0 4 13 l 119 671 b 181 722 126 710 142 722 l 289 722 b 329 671 326 722 336 710 l 293 463 l 508 463 l 544 671 b 606 722 551 710 567 722 "},"о":{"ha":760,"x_min":0,"x_max":0,"o":"m 79 457 b 460 743 113 640 244 743 b 740 440 675 743 774 628 l 710 261 b 329 -21 676 78 547 -21 b 49 278 117 -21 15 93 m 533 453 b 429 557 544 522 510 557 b 289 453 349 557 301 522 l 257 269 b 360 165 244 200 278 165 b 500 269 440 165 488 200 "},"п":{"ha":771,"x_min":0,"x_max":0,"o":"m 176 693 b 469 743 264 726 363 743 b 717 443 668 743 750 631 l 649 51 b 588 0 642 13 626 0 l 479 0 b 438 51 442 0 431 13 l 507 449 b 408 553 519 518 488 553 b 308 540 372 553 339 549 b 303 535 307 540 304 539 l 218 51 b 158 0 211 13 196 0 l 50 0 b 8 51 11 0 1 13 l 107 613 b 176 693 117 658 128 675 "},"р":{"ha":756,"x_min":0,"x_max":0,"o":"m 178 700 b 468 743 258 729 356 743 b 717 443 669 743 751 631 l 686 267 b 315 -21 651 75 528 -21 b 210 -8 283 -21 247 -17 l 165 -254 b 104 -306 158 -293 143 -306 l -3 -306 b -44 -254 -42 -306 -51 -293 l 110 619 b 178 700 119 665 132 682 m 510 454 b 411 556 522 519 485 556 b 313 546 379 556 347 553 b 304 536 308 544 306 542 l 242 175 b 332 167 275 169 306 167 b 479 281 415 167 464 204 "},"с":{"ha":713,"x_min":0,"x_max":0,"o":"m 79 461 b 451 743 113 649 236 743 b 721 558 611 743 700 669 b 676 486 726 518 715 499 l 593 458 b 526 493 550 443 536 453 b 419 563 514 539 479 563 b 289 457 344 563 301 528 l 254 264 b 347 160 242 194 272 160 b 475 231 403 160 446 183 b 553 264 497 269 515 276 l 640 236 b 661 163 676 222 683 197 b 317 -21 590 40 475 -21 b 49 285 104 -21 15 96 "},"т":{"ha":1146,"x_min":0,"x_max":0,"o":"m 618 701 b 858 743 697 729 778 743 b 1093 444 1051 743 1125 632 l 1024 51 b 963 0 1017 13 1001 0 l 856 0 b 814 51 817 0 807 13 l 883 450 b 797 553 896 518 868 553 b 699 539 765 553 733 549 b 692 454 700 515 697 486 l 621 51 b 561 0 614 13 599 0 l 453 0 b 411 51 414 0 404 13 l 481 450 b 394 553 493 524 467 553 b 310 542 369 553 342 549 b 303 533 307 542 304 539 l 218 51 b 158 0 211 13 196 0 l 50 0 b 8 51 11 0 1 13 l 107 613 b 176 693 117 658 128 675 b 456 743 264 726 357 743 b 618 701 526 743 581 729 "},"у":{"ha":774,"x_min":0,"x_max":0,"o":"m 732 722 b 772 671 769 722 779 710 l 653 -14 b 282 -319 617 -218 493 -319 b 14 -186 143 -319 54 -275 b 49 -106 -4 -151 8 -125 l 128 -68 b 206 -86 172 -47 188 -53 b 310 -139 225 -121 260 -139 b 440 -26 383 -139 426 -101 l 450 31 b 319 21 415 24 371 21 b 74 325 119 21 40 136 l 133 671 b 194 722 140 710 156 722 l 301 722 b 343 671 340 722 350 710 l 281 315 b 382 211 268 246 303 211 b 483 221 414 211 447 214 l 563 671 b 624 722 569 710 585 722 "},"ф":{"ha":1038,"x_min":0,"x_max":0,"o":"m 708 740 b 763 743 732 742 750 743 b 1018 410 972 743 1057 617 l 996 282 b 629 -21 958 76 842 -21 b 575 -18 617 -21 599 -19 l 533 -254 b 474 -306 526 -293 511 -306 l 365 -306 b 324 -254 328 -306 317 -293 l 365 -18 b 313 -21 343 -19 325 -21 b 57 311 103 -21 18 101 l 79 439 b 446 743 115 642 238 743 b 499 740 458 743 476 742 l 540 975 b 600 1026 547 1014 563 1026 l 708 1026 b 750 975 746 1026 757 1014 m 264 297 b 357 167 249 210 281 167 b 404 169 369 167 386 168 l 472 553 b 426 556 454 554 439 556 b 286 425 347 556 301 513 m 811 425 b 717 556 826 514 799 556 b 669 553 706 556 690 554 l 603 169 b 647 167 621 168 636 167 b 789 297 726 167 774 210 "},"х":{"ha":731,"x_min":0,"x_max":0,"o":"m 714 722 b 739 661 764 722 772 701 l 492 372 l 646 61 b 597 0 668 21 654 0 l 511 0 b 426 44 454 0 444 4 l 344 226 l 204 44 b 103 0 175 6 158 0 l -1 0 b -28 61 -62 0 -67 21 l 233 369 l 86 661 b 136 722 68 701 85 722 l 219 722 b 306 678 276 722 289 715 l 381 518 l 508 678 b 606 722 540 717 551 722 "},"ц":{"ha":838,"x_min":0,"x_max":0,"o":"m 303 722 b 344 671 342 722 351 710 l 275 274 b 375 169 263 201 293 169 b 478 182 407 169 440 174 l 564 671 b 625 722 571 710 586 722 l 732 722 b 774 671 771 722 781 710 l 689 190 b 788 40 788 197 808 151 l 757 -142 b 697 -193 750 -181 736 -193 l 597 -193 b 554 -142 558 -193 547 -181 l 578 -17 b 540 10 582 10 569 17 b 313 -21 476 -11 400 -21 b 67 285 113 -21 32 97 l 135 671 b 196 722 142 710 157 722 "},"ч":{"ha":722,"x_min":0,"x_max":0,"o":"m 99 671 b 160 722 106 710 121 722 l 268 722 b 308 671 306 722 315 710 l 281 514 b 372 413 269 442 294 413 b 457 422 407 413 444 418 l 468 425 l 511 671 b 572 722 518 710 533 722 l 679 722 b 721 671 718 722 728 710 l 613 51 b 551 0 606 13 590 0 l 444 0 b 403 51 406 0 396 13 l 435 233 b 310 224 411 226 369 224 b 74 521 119 224 42 338 "},"ш":{"ha":1146,"x_min":0,"x_max":0,"o":"m 1108 722 b 1150 671 1147 722 1157 710 l 1051 110 b 982 29 1042 64 1031 47 b 703 -21 894 -4 801 -21 b 540 18 633 -21 579 -8 b 300 -21 467 -8 386 -21 b 67 286 107 -21 32 97 l 135 671 b 196 722 142 710 157 722 l 303 722 b 344 671 342 722 351 710 l 275 272 b 361 169 263 204 290 169 b 460 183 393 169 425 174 b 467 268 458 207 461 236 l 538 671 b 597 722 544 710 560 722 l 706 722 b 747 671 744 722 754 710 l 678 272 b 764 169 665 204 693 169 b 844 179 792 169 818 172 b 856 193 851 181 854 185 l 940 671 b 1000 722 947 710 963 722 "},"щ":{"ha":1213,"x_min":0,"x_max":0,"o":"m 135 671 b 196 722 142 710 157 722 l 303 722 b 344 671 342 722 351 710 l 275 272 b 361 169 263 204 290 169 b 460 183 393 169 425 174 b 467 268 458 207 461 236 l 538 671 b 597 722 544 710 560 722 l 706 722 b 747 671 744 722 754 710 l 678 272 b 764 169 665 204 693 169 b 854 183 799 169 828 174 l 940 671 b 1000 722 947 710 963 722 l 1108 722 b 1150 671 1147 722 1157 710 l 1065 190 b 1164 40 1164 197 1185 151 l 1133 -142 b 1074 -193 1126 -181 1111 -193 l 974 -193 b 929 -142 935 -193 922 -181 l 953 -17 b 917 10 958 10 946 18 b 703 -21 840 -11 769 -21 b 540 18 633 -21 579 -8 b 300 -21 467 -8 386 -21 b 67 286 107 -21 32 97 "},"ъ":{"ha":842,"x_min":0,"x_max":0,"o":"m 428 522 b 540 535 469 531 507 535 b 792 249 724 535 825 433 b 456 -21 763 75 643 -21 b 186 22 346 -21 257 -7 b 144 103 146 40 135 57 l 222 536 l 92 536 b 50 588 54 536 43 549 l 64 671 b 125 722 71 710 86 722 l 413 722 b 453 671 450 722 460 710 m 371 172 b 463 163 396 165 426 163 b 588 260 535 163 576 194 b 488 360 600 331 567 360 b 397 351 461 360 431 357 l 367 182 b 371 172 365 178 367 174 "},"ы":{"ha":1017,"x_min":0,"x_max":0,"o":"m 300 521 b 413 535 346 531 383 535 b 664 249 596 533 696 433 b 328 -21 632 75 513 -21 b 58 22 218 -21 129 -7 b 17 103 18 40 7 57 l 119 671 b 181 722 126 710 142 722 l 285 722 b 325 671 322 722 332 710 m 957 722 b 999 671 994 722 1006 710 l 890 51 b 829 0 883 13 868 0 l 721 0 b 681 51 683 0 674 13 l 789 671 b 849 722 796 710 811 722 m 243 172 b 335 163 268 165 299 163 b 460 261 401 163 449 199 b 360 360 472 332 439 360 b 269 351 335 360 304 357 l 239 182 b 243 172 238 178 239 174 "},"ь":{"ha":713,"x_min":0,"x_max":0,"o":"m 300 521 b 413 535 346 531 383 535 b 664 249 596 533 696 433 b 328 -21 632 75 513 -21 b 58 22 218 -21 129 -7 b 17 103 18 40 7 57 l 119 671 b 181 722 126 710 142 722 l 285 722 b 325 671 322 722 332 710 m 243 172 b 335 163 268 165 299 163 b 460 261 401 163 449 199 b 360 360 472 332 439 360 b 269 351 335 360 304 357 l 239 182 b 243 172 238 178 239 174 "},"э":{"ha":711,"x_min":0,"x_max":0,"o":"m 69 565 b 396 743 125 675 236 743 b 674 438 614 743 707 625 l 642 263 b 285 -21 610 75 500 -21 b -3 164 122 -21 26 40 b 46 238 -12 204 3 222 l 132 263 b 197 232 175 274 188 267 b 301 156 213 181 247 156 b 433 261 378 156 422 190 l 438 278 l 274 279 b 232 328 236 279 226 290 l 246 401 b 304 450 251 436 267 450 l 468 450 l 469 464 b 374 568 482 538 453 568 b 247 499 318 568 276 544 b 168 465 226 464 200 453 l 92 492 b 69 565 54 507 47 522 "},"ю":{"ha":1067,"x_min":0,"x_max":0,"o":"m 388 476 b 754 743 422 654 544 743 b 1029 439 965 743 1061 624 l 997 258 b 629 -21 964 72 842 -21 b 350 263 424 -21 326 83 l 351 271 l 260 271 l 221 51 b 161 0 214 13 199 0 l 53 0 b 11 51 14 0 4 13 l 119 671 b 181 722 126 710 142 722 l 289 722 b 329 671 326 722 336 710 l 293 463 l 385 463 m 821 453 b 725 557 833 522 801 557 b 593 453 650 557 606 522 l 560 269 b 654 165 547 200 578 165 b 788 269 731 165 775 200 "},"я":{"ha":743,"x_min":0,"x_max":0,"o":"m 681 722 b 722 671 719 722 729 710 l 617 51 b 556 0 610 13 594 0 l 447 0 b 406 51 408 0 399 13 l 436 224 l 343 224 l 219 46 b 115 0 193 6 175 0 l 21 0 b -7 63 -39 0 -42 19 l 142 258 b 65 485 71 299 46 375 b 363 722 93 639 203 722 m 364 544 b 278 471 319 544 285 511 b 339 400 268 428 293 400 l 467 400 l 492 544 "}}}
